%TF.GenerationSoftware,KiCad,Pcbnew,10.0.3*%
%TF.CreationDate,2026-06-14T04:58:04-05:00*%
%TF.ProjectId,rp2350-rgb-pcb,72703233-3530-42d7-9267-622d7063622e,rev?*%
%TF.SameCoordinates,Original*%
%TF.FileFunction,Copper,L2,Bot*%
%TF.FilePolarity,Positive*%
%FSLAX46Y46*%
G04 Gerber Fmt 4.6, Leading zero omitted, Abs format (unit mm)*
G04 Created by KiCad (PCBNEW 10.0.3) date 2026-06-14 04:58:04*
%MOMM*%
%LPD*%
G01*
G04 APERTURE LIST*
G04 Aperture macros list*
%AMRoundRect*
0 Rectangle with rounded corners*
0 $1 Rounding radius*
0 $2 $3 $4 $5 $6 $7 $8 $9 X,Y pos of 4 corners*
0 Add a 4 corners polygon primitive as box body*
4,1,4,$2,$3,$4,$5,$6,$7,$8,$9,$2,$3,0*
0 Add four circle primitives for the rounded corners*
1,1,$1+$1,$2,$3*
1,1,$1+$1,$4,$5*
1,1,$1+$1,$6,$7*
1,1,$1+$1,$8,$9*
0 Add four rect primitives between the rounded corners*
20,1,$1+$1,$2,$3,$4,$5,0*
20,1,$1+$1,$4,$5,$6,$7,0*
20,1,$1+$1,$6,$7,$8,$9,0*
20,1,$1+$1,$8,$9,$2,$3,0*%
G04 Aperture macros list end*
%TA.AperFunction,ComponentPad*%
%ADD10RoundRect,0.250000X0.600000X-0.600000X0.600000X0.600000X-0.600000X0.600000X-0.600000X-0.600000X0*%
%TD*%
%TA.AperFunction,ComponentPad*%
%ADD11C,1.700000*%
%TD*%
%TA.AperFunction,ComponentPad*%
%ADD12RoundRect,0.250000X0.750000X-0.600000X0.750000X0.600000X-0.750000X0.600000X-0.750000X-0.600000X0*%
%TD*%
%TA.AperFunction,ComponentPad*%
%ADD13O,2.000000X1.700000*%
%TD*%
%TA.AperFunction,ComponentPad*%
%ADD14R,1.700000X1.700000*%
%TD*%
%TA.AperFunction,ViaPad*%
%ADD15C,1.200000*%
%TD*%
%TA.AperFunction,ViaPad*%
%ADD16C,0.600000*%
%TD*%
%TA.AperFunction,Conductor*%
%ADD17C,0.800000*%
%TD*%
%TA.AperFunction,Conductor*%
%ADD18C,0.250000*%
%TD*%
G04 APERTURE END LIST*
D10*
%TO.P,J3,1*%
%TO.N,N$15*%
X7112000Y-13411200D03*
D11*
%TO.P,J3,2*%
%TO.N,N$16*%
X7112000Y-10871200D03*
%TO.P,J3,3*%
%TO.N,N$17*%
X9652000Y-13411200D03*
%TO.P,J3,4*%
%TO.N,GND*%
X9652000Y-10871200D03*
%TO.P,J3,5*%
%TO.N,N$18*%
X12192000Y-13411200D03*
%TO.P,J3,6*%
%TO.N,N$19*%
X12192000Y-10871200D03*
%TO.P,J3,7*%
%TO.N,N$20*%
X14732000Y-13411200D03*
%TO.P,J3,8*%
%TO.N,GND*%
X14732000Y-10871200D03*
%TO.P,J3,9*%
%TO.N,N$25*%
X17272000Y-13411200D03*
%TO.P,J3,10*%
%TO.N,N$26*%
X17272000Y-10871200D03*
%TO.P,J3,11*%
%TO.N,N$27*%
X19812000Y-13411200D03*
%TO.P,J3,12*%
%TO.N,N$28*%
X19812000Y-10871200D03*
%TO.P,J3,13*%
%TO.N,N$22*%
X22352000Y-13411200D03*
%TO.P,J3,14*%
%TO.N,N$23*%
X22352000Y-10871200D03*
%TO.P,J3,15*%
%TO.N,N$24*%
X24892000Y-13411200D03*
%TO.P,J3,16*%
%TO.N,GND*%
X24892000Y-10871200D03*
%TD*%
D10*
%TO.P,J2,1*%
%TO.N,N$1*%
X40110000Y-13350000D03*
D11*
%TO.P,J2,2*%
%TO.N,N$2*%
X40110000Y-10810000D03*
%TO.P,J2,3*%
%TO.N,N$3*%
X42650000Y-13350000D03*
%TO.P,J2,4*%
%TO.N,GND*%
X42650000Y-10810000D03*
%TO.P,J2,5*%
%TO.N,N$4*%
X45190000Y-13350000D03*
%TO.P,J2,6*%
%TO.N,N$5*%
X45190000Y-10810000D03*
%TO.P,J2,7*%
%TO.N,N$6*%
X47730000Y-13350000D03*
%TO.P,J2,8*%
%TO.N,GND*%
X47730000Y-10810000D03*
%TO.P,J2,9*%
%TO.N,N$11*%
X50270000Y-13350000D03*
%TO.P,J2,10*%
%TO.N,N$12*%
X50270000Y-10810000D03*
%TO.P,J2,11*%
%TO.N,N$13*%
X52810000Y-13350000D03*
%TO.P,J2,12*%
%TO.N,N$14*%
X52810000Y-10810000D03*
%TO.P,J2,13*%
%TO.N,N$8*%
X55350000Y-13350000D03*
%TO.P,J2,14*%
%TO.N,N$9*%
X55350000Y-10810000D03*
%TO.P,J2,15*%
%TO.N,N$10*%
X57890000Y-13350000D03*
%TO.P,J2,16*%
%TO.N,GND*%
X57890000Y-10810000D03*
%TD*%
D12*
%TO.P,J5,1*%
%TO.N,+5V*%
X59690000Y-38750000D03*
D13*
%TO.P,J5,2*%
%TO.N,GND*%
X59690000Y-36250000D03*
%TD*%
D14*
%TO.P,J4,1*%
%TO.N,GP19*%
X23110000Y-3500000D03*
D11*
%TO.P,J4,2*%
%TO.N,GP20*%
X25650000Y-3500000D03*
%TO.P,J4,3*%
%TO.N,GP21*%
X28190000Y-3500000D03*
%TO.P,J4,4*%
%TO.N,GP22*%
X30730000Y-3500000D03*
%TO.P,J4,5*%
%TO.N,GP26*%
X33270000Y-3500000D03*
%TO.P,J4,6*%
%TO.N,GP27*%
X35810000Y-3500000D03*
%TO.P,J4,7*%
%TO.N,+3V3*%
X38350000Y-3500000D03*
%TO.P,J4,8*%
%TO.N,GND*%
X40890000Y-3500000D03*
%TD*%
D14*
%TO.P,J1,1*%
%TO.N,+3V3*%
X56642000Y-51257200D03*
D11*
%TO.P,J1,2*%
%TO.N,N/C*%
X56642000Y-53797200D03*
%TO.P,J1,3*%
%TO.N,GP2*%
X54102000Y-51257200D03*
%TO.P,J1,4*%
%TO.N,N/C*%
X54102000Y-53797200D03*
%TO.P,J1,5*%
%TO.N,GP3*%
X51562000Y-51257200D03*
%TO.P,J1,6*%
%TO.N,GND*%
X51562000Y-53797200D03*
%TO.P,J1,7*%
%TO.N,GP14*%
X49022000Y-51257200D03*
%TO.P,J1,8*%
%TO.N,GP4*%
X49022000Y-53797200D03*
%TO.P,J1,9*%
%TO.N,GND*%
X46482000Y-51257200D03*
%TO.P,J1,10*%
%TO.N,GP5*%
X46482000Y-53797200D03*
%TO.P,J1,11*%
%TO.N,GP17*%
X43942000Y-51257200D03*
%TO.P,J1,12*%
%TO.N,GP18*%
X43942000Y-53797200D03*
%TO.P,J1,13*%
%TO.N,GP27*%
X41402000Y-51257200D03*
%TO.P,J1,14*%
%TO.N,GND*%
X41402000Y-53797200D03*
%TO.P,J1,15*%
%TO.N,GP22*%
X38862000Y-51257200D03*
%TO.P,J1,16*%
%TO.N,N/C*%
X38862000Y-53797200D03*
%TO.P,J1,17*%
%TO.N,+3V3*%
X36322000Y-51257200D03*
%TO.P,J1,18*%
%TO.N,N/C*%
X36322000Y-53797200D03*
%TO.P,J1,19*%
%TO.N,GP11*%
X33782000Y-51257200D03*
%TO.P,J1,20*%
%TO.N,GND*%
X33782000Y-53797200D03*
%TO.P,J1,21*%
%TO.N,GP12*%
X31242000Y-51257200D03*
%TO.P,J1,22*%
%TO.N,N/C*%
X31242000Y-53797200D03*
%TO.P,J1,23*%
%TO.N,GP10*%
X28702000Y-51257200D03*
%TO.P,J1,24*%
%TO.N,GP8*%
X28702000Y-53797200D03*
%TO.P,J1,25*%
%TO.N,GND*%
X26162000Y-51257200D03*
%TO.P,J1,26*%
%TO.N,GP7*%
X26162000Y-53797200D03*
%TO.P,J1,27*%
%TO.N,GP0*%
X23622000Y-51257200D03*
%TO.P,J1,28*%
%TO.N,GP1*%
X23622000Y-53797200D03*
%TO.P,J1,29*%
%TO.N,GP15*%
X21082000Y-51257200D03*
%TO.P,J1,30*%
%TO.N,GND*%
X21082000Y-53797200D03*
%TO.P,J1,31*%
%TO.N,GP6*%
X18542000Y-51257200D03*
%TO.P,J1,32*%
%TO.N,GP9*%
X18542000Y-53797200D03*
%TO.P,J1,33*%
%TO.N,GP13*%
X16002000Y-51257200D03*
%TO.P,J1,34*%
%TO.N,GND*%
X16002000Y-53797200D03*
%TO.P,J1,35*%
%TO.N,GP19*%
X13462000Y-51257200D03*
%TO.P,J1,36*%
%TO.N,GP16*%
X13462000Y-53797200D03*
%TO.P,J1,37*%
%TO.N,GP26*%
X10922000Y-51257200D03*
%TO.P,J1,38*%
%TO.N,GP20*%
X10922000Y-53797200D03*
%TO.P,J1,39*%
%TO.N,GND*%
X8382000Y-51257200D03*
%TO.P,J1,40*%
%TO.N,GP21*%
X8382000Y-53797200D03*
%TD*%
D15*
%TO.N,+5V*%
X36400000Y-28280000D03*
X10160000Y-32385000D03*
X10283600Y-26035000D03*
X36400000Y-22359291D03*
D16*
%TO.N,GP18*%
X46937500Y-45716500D03*
%TO.N,GP12*%
X25745300Y-44869200D03*
%TO.N,GP13*%
X41618100Y-43180000D03*
X37037200Y-43180000D03*
%TO.N,GP14*%
X50120919Y-44266781D03*
%TO.N,GP15*%
X21384700Y-46591500D03*
D15*
%TO.N,GND*%
X32515700Y-22084100D03*
X22985600Y-30131100D03*
X38073889Y-22265410D03*
X11553600Y-22722500D03*
X59131200Y-47091600D03*
X34834501Y-45831858D03*
X20066000Y-7061200D03*
X6632500Y-22294100D03*
X11226800Y-43535600D03*
X48970700Y-31011600D03*
X16245200Y-45299300D03*
X46564000Y-36895600D03*
X21785500Y-39444800D03*
D16*
%TO.N,N$14*%
X41004800Y-34776800D03*
%TO.N,N$13*%
X49215000Y-32369150D03*
%TO.N,N$12*%
X37037200Y-41910000D03*
%TO.N,N$11*%
X40789600Y-43180000D03*
X48155000Y-16834500D03*
%TO.N,N$10*%
X54610000Y-41275000D03*
%TO.N,GP2*%
X43964857Y-33110794D03*
%TO.N,GP3*%
X41889700Y-31756200D03*
X42038300Y-48304400D03*
%TO.N,GP4*%
X43252552Y-33574610D03*
%TO.N,GP5*%
X42380100Y-36260900D03*
%TO.N,GP17*%
X40726400Y-35667200D03*
X45752600Y-35225900D03*
%TO.N,GP22*%
X31580000Y-34747200D03*
X31597600Y-28041600D03*
%TO.N,GP11*%
X30378400Y-28092400D03*
X18392500Y-34029900D03*
X30375900Y-34950400D03*
%TO.N,GP10*%
X18343400Y-34952500D03*
%TO.N,GP8*%
X17950400Y-35754300D03*
%TO.N,GP7*%
X17220400Y-31810900D03*
%TO.N,GP0*%
X29353648Y-46536777D03*
X29705500Y-36693200D03*
%TO.N,GP1*%
X29583700Y-39259751D03*
%TO.N,GP6*%
X14173200Y-48971200D03*
X14100400Y-33199000D03*
%TO.N,GP9*%
X15296100Y-31810900D03*
%TO.N,GP26*%
X12743700Y-15628400D03*
%TO.N,GP20*%
X9194800Y-25654000D03*
%TO.N,GP21*%
X7924800Y-23384500D03*
%TO.N,N$25*%
X16533200Y-42789400D03*
%TO.N,N$26*%
X15394000Y-34086300D03*
%TO.N,N$27*%
X19081400Y-31768600D03*
%TO.N,N$28*%
X18840700Y-32963100D03*
%TO.N,N$24*%
X22860000Y-34290000D03*
%TD*%
%TO.N,+5V*%
D17*
X10160000Y-32385000D02*
X10160000Y-26158600D01*
X36400000Y-28280000D02*
X36400000Y-22359291D01*
X10160000Y-26158600D02*
X10283600Y-26035000D01*
%TO.N,GP18*%
D18*
X45144800Y-47509200D02*
X45144800Y-52594400D01*
X46937500Y-45716500D02*
X45144800Y-47509200D01*
X45144800Y-52594400D02*
X43942000Y-53797200D01*
%TO.N,GP12*%
X31242000Y-51257200D02*
X30024500Y-52474700D01*
X25745300Y-47654895D02*
X25745300Y-44869200D01*
X27432000Y-51688000D02*
X27432000Y-49341595D01*
X28218700Y-52474700D02*
X27432000Y-51688000D01*
X27432000Y-49341595D02*
X25745300Y-47654895D01*
X30024500Y-52474700D02*
X28218700Y-52474700D01*
%TO.N,GP13*%
X41618100Y-43314800D02*
X41618100Y-43180000D01*
X41113500Y-43819400D02*
X41618100Y-43314800D01*
X37037200Y-43180000D02*
X37676600Y-43819400D01*
X37676600Y-43819400D02*
X41113500Y-43819400D01*
%TO.N,GP14*%
X50120919Y-50158281D02*
X50120919Y-44266781D01*
X49022000Y-51257200D02*
X50120919Y-50158281D01*
%TO.N,GP15*%
X21082000Y-51257200D02*
X21082000Y-46894200D01*
X21082000Y-46894200D02*
X21384700Y-46591500D01*
%TO.N,N$14*%
X51540000Y-14605000D02*
X51435000Y-14605000D01*
X43199700Y-27959700D02*
X43199700Y-32404700D01*
X41004800Y-34599600D02*
X41004800Y-34776800D01*
X51540000Y-12080000D02*
X51540000Y-14605000D01*
X40640000Y-25400000D02*
X43199700Y-27959700D01*
X43199700Y-32404700D02*
X41004800Y-34599600D01*
X51435000Y-14605000D02*
X40640000Y-25400000D01*
X52810000Y-10810000D02*
X51540000Y-12080000D01*
%TO.N,N$13*%
X52810000Y-13350000D02*
X52810000Y-28774150D01*
X52810000Y-28774150D02*
X49215000Y-32369150D01*
%TO.N,N$12*%
X50270000Y-10810000D02*
X49000000Y-12080000D01*
X38939598Y-24646802D02*
X38939598Y-28815255D01*
X49000000Y-12080000D02*
X49000000Y-14586400D01*
X38939598Y-28815255D02*
X37037200Y-30717653D01*
X37037200Y-30717653D02*
X37037200Y-41910000D01*
X49000000Y-14586400D02*
X38939598Y-24646802D01*
%TO.N,N$11*%
X48155000Y-16834500D02*
X39648000Y-25341500D01*
X39648000Y-25341500D02*
X39648000Y-42038400D01*
X39648000Y-42038400D02*
X40789600Y-43180000D01*
%TO.N,N$10*%
X54610000Y-16630000D02*
X54610000Y-41275000D01*
X57890000Y-13350000D02*
X54610000Y-16630000D01*
%TO.N,+3V3*%
D17*
X58263700Y-9124900D02*
X59387800Y-10249000D01*
X38350000Y-3500000D02*
X43974900Y-9124900D01*
X43974900Y-9124900D02*
X58263700Y-9124900D01*
X59387800Y-10249000D02*
X59387800Y-15242600D01*
X56642000Y-17988400D02*
X56642000Y-51257200D01*
X59387800Y-15242600D02*
X56642000Y-17988400D01*
%TO.N,GP2*%
D18*
X50959900Y-48115100D02*
X50959900Y-38908100D01*
X45162594Y-33110794D02*
X43964857Y-33110794D01*
X50959900Y-38908100D02*
X45162594Y-33110794D01*
X54102000Y-51257200D02*
X50959900Y-48115100D01*
%TO.N,GP3*%
X42244800Y-48097900D02*
X42244800Y-38071800D01*
X42244800Y-38071800D02*
X40099700Y-35926700D01*
X42038300Y-48304400D02*
X42244800Y-48097900D01*
X40099700Y-33664900D02*
X41889700Y-31874900D01*
X40099700Y-35926700D02*
X40099700Y-33664900D01*
X41889700Y-31874900D02*
X41889700Y-31756200D01*
%TO.N,GP4*%
X46379300Y-34966300D02*
X46012200Y-34599200D01*
X47782300Y-52557500D02*
X47782300Y-36797400D01*
X46012200Y-34599200D02*
X44277142Y-34599200D01*
X46379300Y-35394400D02*
X46379300Y-34966300D01*
X47782300Y-36797400D02*
X46379300Y-35394400D01*
X44277142Y-34599200D02*
X43252552Y-33574610D01*
X49022000Y-53797200D02*
X47782300Y-52557500D01*
%TO.N,GP5*%
X42696500Y-36577300D02*
X42380100Y-36260900D01*
X42696500Y-54264400D02*
X42696500Y-36577300D01*
X46482000Y-53797200D02*
X45243900Y-55035300D01*
X45243900Y-55035300D02*
X43467400Y-55035300D01*
X43467400Y-55035300D02*
X42696500Y-54264400D01*
%TO.N,GP17*%
X44007400Y-36971100D02*
X45752600Y-35225900D01*
X43942000Y-37146800D02*
X43991000Y-37097800D01*
X43942000Y-51257200D02*
X43942000Y-37146800D01*
X43991000Y-36987500D02*
X44007400Y-36971100D01*
X44007400Y-36971100D02*
X42637500Y-35601300D01*
X43991000Y-37097800D02*
X43991000Y-36987500D01*
X42637500Y-35601300D02*
X40792300Y-35601300D01*
X40792300Y-35601300D02*
X40726400Y-35667200D01*
%TO.N,GP27*%
X34960000Y-4350000D02*
X34960000Y-43613119D01*
X41402000Y-50055119D02*
X41402000Y-51257200D01*
X34960000Y-43613119D02*
X41402000Y-50055119D01*
X35810000Y-3500000D02*
X34960000Y-4350000D01*
%TO.N,GP22*%
X38862000Y-51257200D02*
X31580000Y-43975200D01*
X31580000Y-43975200D02*
X31580000Y-34747200D01*
X31580000Y-4350000D02*
X30730000Y-3500000D01*
X31597600Y-28041600D02*
X31580000Y-28024000D01*
X31580000Y-28024000D02*
X31580000Y-4350000D01*
%TO.N,GP11*%
X30375900Y-26822400D02*
X30375900Y-17230900D01*
X22058900Y-29747300D02*
X22058900Y-30682800D01*
X24404600Y-12234500D02*
X23715300Y-12923800D01*
X30708700Y-47076705D02*
X30708700Y-38438308D01*
X18711800Y-34029900D02*
X18392500Y-34029900D01*
X30378400Y-28092400D02*
X30378400Y-26824900D01*
X30375900Y-38105508D02*
X30375900Y-34696400D01*
X30378400Y-26824900D02*
X30375900Y-26822400D01*
X30440000Y-47345405D02*
X30708700Y-47076705D01*
X22058900Y-30682800D02*
X18711800Y-34029900D01*
X25379500Y-12234500D02*
X24404600Y-12234500D01*
X30708700Y-38438308D02*
X30375900Y-38105508D01*
X23715300Y-12923800D02*
X23715300Y-28090900D01*
X23715300Y-28090900D02*
X22058900Y-29747300D01*
X30375900Y-17230900D02*
X25379500Y-12234500D01*
X30375900Y-34696400D02*
X30375900Y-34848800D01*
X30440000Y-47915200D02*
X30440000Y-47345405D01*
X33782000Y-51257200D02*
X30440000Y-47915200D01*
%TO.N,GP10*%
X27900000Y-44197300D02*
X27900000Y-50455200D01*
X18343400Y-34952500D02*
X18655200Y-34952500D01*
X18655200Y-34952500D02*
X27900000Y-44197300D01*
X27900000Y-50455200D02*
X28702000Y-51257200D01*
%TO.N,GP8*%
X27432000Y-52527200D02*
X25767200Y-52527200D01*
X24022278Y-49173967D02*
X24022278Y-44328078D01*
X28702000Y-53797200D02*
X27432000Y-52527200D01*
X24892000Y-50043689D02*
X24022278Y-49173967D01*
X24022278Y-44328078D02*
X17950400Y-38256200D01*
X17950400Y-38256200D02*
X17950400Y-35754300D01*
X25767200Y-52527200D02*
X24892000Y-51652000D01*
X24892000Y-51652000D02*
X24892000Y-50043689D01*
%TO.N,GP7*%
X23227200Y-52527200D02*
X22352000Y-51652000D01*
X22352000Y-46430700D02*
X17220400Y-41299100D01*
X24892000Y-52527200D02*
X23227200Y-52527200D01*
X22352000Y-51652000D02*
X22352000Y-46430700D01*
X26162000Y-53797200D02*
X24892000Y-52527200D01*
X17220400Y-41299100D02*
X17220400Y-31810900D01*
%TO.N,GP0*%
X29122400Y-37276300D02*
X29122400Y-37861196D01*
X30258700Y-45631725D02*
X29353648Y-46536777D01*
X29122400Y-37861196D02*
X30258700Y-38997496D01*
X30258700Y-38997496D02*
X30258700Y-45631725D01*
X29705500Y-36693200D02*
X29122400Y-37276300D01*
%TO.N,GP1*%
X32457300Y-50806300D02*
X31036000Y-49385000D01*
X31703600Y-52474500D02*
X32457300Y-51720800D01*
X28678648Y-48049639D02*
X28678648Y-40164803D01*
X32457300Y-51720800D02*
X32457300Y-50806300D01*
X30065300Y-53305500D02*
X30896300Y-52474500D01*
X30014009Y-49385000D02*
X28678648Y-48049639D01*
X30065300Y-54104700D02*
X30065300Y-53305500D01*
X30896300Y-52474500D02*
X31703600Y-52474500D01*
X31036000Y-49385000D02*
X30014009Y-49385000D01*
X24840900Y-55016100D02*
X29153900Y-55016100D01*
X29153900Y-55016100D02*
X30065300Y-54104700D01*
X28678648Y-40164803D02*
X29583700Y-39259751D01*
X23622000Y-53797200D02*
X24840900Y-55016100D01*
%TO.N,GP6*%
X14173200Y-48971200D02*
X14173200Y-48485200D01*
X14100400Y-48412400D02*
X14100400Y-33199000D01*
X14173200Y-48485200D02*
X14100400Y-48412400D01*
%TO.N,GP9*%
X17272000Y-52527200D02*
X18542000Y-53797200D01*
X15431787Y-48206187D02*
X17272000Y-50046400D01*
X14738700Y-47328030D02*
X15431787Y-48021117D01*
X15296100Y-31810900D02*
X14738700Y-32368300D01*
X14738700Y-32368300D02*
X14738700Y-47328030D01*
X17272000Y-50046400D02*
X17272000Y-52527200D01*
X15431787Y-48021117D02*
X15431787Y-48206187D01*
%TO.N,GP19*%
X20417800Y-3500000D02*
X23110000Y-3500000D01*
X13462000Y-10455800D02*
X20417800Y-3500000D01*
X13462000Y-51257200D02*
X13462000Y-10455800D01*
%TO.N,GP26*%
X12743700Y-49435500D02*
X10922000Y-51257200D01*
X12743700Y-15628400D02*
X12743700Y-49435500D01*
%TO.N,GP20*%
X10922100Y-10456600D02*
X19068300Y-2310400D01*
X10922100Y-21454800D02*
X10922100Y-10456600D01*
X9731400Y-22645500D02*
X10922100Y-21454800D01*
X9194800Y-25654000D02*
X9194800Y-23182100D01*
X24460400Y-2310400D02*
X25650000Y-3500000D01*
X9194800Y-23182100D02*
X9731400Y-22645500D01*
X19068300Y-2310400D02*
X24460400Y-2310400D01*
%TO.N,GP21*%
X8435300Y-10402300D02*
X8435300Y-22874000D01*
X28190000Y-3500000D02*
X26534800Y-1844800D01*
X16992800Y-1844800D02*
X8435300Y-10402300D01*
X8435300Y-22874000D02*
X7924800Y-23384500D01*
X26534800Y-1844800D02*
X16992800Y-1844800D01*
%TO.N,N$25*%
X16533200Y-14150000D02*
X17272000Y-13411200D01*
X16533200Y-42789400D02*
X16533200Y-14150000D01*
%TO.N,N$26*%
X16002000Y-12141200D02*
X17272000Y-10871200D01*
X16002000Y-33478300D02*
X16002000Y-12141200D01*
X15394000Y-34086300D02*
X16002000Y-33478300D01*
%TO.N,N$27*%
X19081400Y-31768600D02*
X19812000Y-31038000D01*
X19812000Y-31038000D02*
X19812000Y-13411200D01*
%TO.N,N$28*%
X21002600Y-12061800D02*
X21002600Y-30801200D01*
X19812000Y-10871200D02*
X21002600Y-12061800D01*
X21002600Y-30801200D02*
X18840700Y-32963100D01*
%TO.N,N$24*%
X24892000Y-32258000D02*
X22860000Y-34290000D01*
X24892000Y-13411200D02*
X24892000Y-32258000D01*
%TD*%
%TA.AperFunction,Conductor*%
%TO.N,GND*%
G36*
X64442539Y-520185D02*
G01*
X64488294Y-572989D01*
X64499500Y-624500D01*
X64499500Y-55375500D01*
X64479815Y-55442539D01*
X64427011Y-55488294D01*
X64375500Y-55499500D01*
X45539389Y-55499500D01*
X45472350Y-55479815D01*
X45426595Y-55427011D01*
X45416651Y-55357853D01*
X45445676Y-55294297D01*
X45451708Y-55287819D01*
X45944895Y-54794631D01*
X46006218Y-54761146D01*
X46075909Y-54766130D01*
X46080023Y-54767749D01*
X46175580Y-54807330D01*
X46378530Y-54847699D01*
X46378534Y-54847700D01*
X46378535Y-54847700D01*
X46585466Y-54847700D01*
X46585467Y-54847699D01*
X46788420Y-54807330D01*
X46979598Y-54728141D01*
X47151655Y-54613177D01*
X47297977Y-54466855D01*
X47412941Y-54294798D01*
X47492130Y-54103620D01*
X47532500Y-53900665D01*
X47532500Y-53693735D01*
X47492130Y-53490780D01*
X47412941Y-53299602D01*
X47297977Y-53127545D01*
X47297975Y-53127542D01*
X47151657Y-52981224D01*
X47053501Y-52915639D01*
X46979598Y-52866259D01*
X46960516Y-52858355D01*
X46788420Y-52787070D01*
X46788412Y-52787068D01*
X46585469Y-52746700D01*
X46585465Y-52746700D01*
X46378535Y-52746700D01*
X46378530Y-52746700D01*
X46175587Y-52787068D01*
X46175579Y-52787070D01*
X45984403Y-52866258D01*
X45812342Y-52981224D01*
X45666024Y-53127542D01*
X45551058Y-53299603D01*
X45471870Y-53490779D01*
X45471868Y-53490787D01*
X45431500Y-53693730D01*
X45431500Y-53900669D01*
X45471868Y-54103612D01*
X45471870Y-54103620D01*
X45511448Y-54199169D01*
X45518917Y-54268638D01*
X45487642Y-54331118D01*
X45484568Y-54334303D01*
X45145392Y-54673481D01*
X45118464Y-54688184D01*
X45092646Y-54704777D01*
X45086445Y-54705668D01*
X45084069Y-54706966D01*
X45057711Y-54709800D01*
X44814395Y-54709800D01*
X44747356Y-54690115D01*
X44701601Y-54637311D01*
X44691657Y-54568153D01*
X44720682Y-54504597D01*
X44726714Y-54498119D01*
X44757974Y-54466858D01*
X44757975Y-54466857D01*
X44757977Y-54466855D01*
X44872941Y-54294798D01*
X44952130Y-54103620D01*
X44992500Y-53900665D01*
X44992500Y-53693735D01*
X44952130Y-53490780D01*
X44912550Y-53395228D01*
X44905082Y-53325760D01*
X44936357Y-53263280D01*
X44939431Y-53260095D01*
X45135145Y-53064381D01*
X45405265Y-52794262D01*
X45448118Y-52720039D01*
X45470300Y-52637253D01*
X45470300Y-52551547D01*
X45470300Y-51659287D01*
X45489985Y-51592248D01*
X45542789Y-51546493D01*
X45611947Y-51536549D01*
X45675503Y-51565574D01*
X45708861Y-51611834D01*
X45728740Y-51659828D01*
X45821758Y-51799039D01*
X45821764Y-51799047D01*
X45940152Y-51917435D01*
X45940160Y-51917441D01*
X46079371Y-52010459D01*
X46234063Y-52074534D01*
X46234071Y-52074536D01*
X46398277Y-52107199D01*
X46398280Y-52107200D01*
X46565720Y-52107200D01*
X46565722Y-52107199D01*
X46729928Y-52074536D01*
X46729936Y-52074534D01*
X46884627Y-52010459D01*
X46884628Y-52010459D01*
X47023839Y-51917441D01*
X47023847Y-51917435D01*
X47142236Y-51799046D01*
X47229697Y-51668151D01*
X47283309Y-51623345D01*
X47352634Y-51614638D01*
X47415662Y-51644792D01*
X47452382Y-51704235D01*
X47456800Y-51737041D01*
X47456800Y-52514647D01*
X47456800Y-52600353D01*
X47466687Y-52637251D01*
X47478982Y-52683140D01*
X47500286Y-52720039D01*
X47521835Y-52757362D01*
X47521837Y-52757364D01*
X48024568Y-53260095D01*
X48058053Y-53321418D01*
X48053069Y-53391110D01*
X48051448Y-53395228D01*
X48011871Y-53490775D01*
X48011868Y-53490787D01*
X47971500Y-53693730D01*
X47971500Y-53900669D01*
X48011868Y-54103612D01*
X48011870Y-54103620D01*
X48077939Y-54263125D01*
X48091059Y-54294798D01*
X48120625Y-54339047D01*
X48206024Y-54466857D01*
X48352342Y-54613175D01*
X48352345Y-54613177D01*
X48524402Y-54728141D01*
X48715580Y-54807330D01*
X48918530Y-54847699D01*
X48918534Y-54847700D01*
X48918535Y-54847700D01*
X49125466Y-54847700D01*
X49125467Y-54847699D01*
X49328420Y-54807330D01*
X49519598Y-54728141D01*
X49691655Y-54613177D01*
X49837977Y-54466855D01*
X49952941Y-54294798D01*
X50032130Y-54103620D01*
X50072500Y-53900665D01*
X50072500Y-53713477D01*
X50712000Y-53713477D01*
X50712000Y-53880922D01*
X50744663Y-54045128D01*
X50744665Y-54045136D01*
X50808740Y-54199827D01*
X50808740Y-54199828D01*
X50901758Y-54339039D01*
X50901764Y-54339047D01*
X51020152Y-54457435D01*
X51020160Y-54457441D01*
X51159371Y-54550459D01*
X51314063Y-54614534D01*
X51314071Y-54614536D01*
X51478277Y-54647199D01*
X51478280Y-54647200D01*
X51645720Y-54647200D01*
X51645722Y-54647199D01*
X51809928Y-54614536D01*
X51809936Y-54614534D01*
X51964627Y-54550459D01*
X51964628Y-54550459D01*
X52103839Y-54457441D01*
X52103847Y-54457435D01*
X52222235Y-54339047D01*
X52222241Y-54339039D01*
X52315259Y-54199828D01*
X52315259Y-54199827D01*
X52379334Y-54045136D01*
X52379336Y-54045128D01*
X52411999Y-53880922D01*
X52412000Y-53880920D01*
X52412000Y-53713482D01*
X52411672Y-53711833D01*
X52411672Y-53711830D01*
X52408072Y-53693730D01*
X53051500Y-53693730D01*
X53051500Y-53900669D01*
X53091868Y-54103612D01*
X53091870Y-54103620D01*
X53157939Y-54263125D01*
X53171059Y-54294798D01*
X53200625Y-54339047D01*
X53286024Y-54466857D01*
X53432342Y-54613175D01*
X53432345Y-54613177D01*
X53604402Y-54728141D01*
X53795580Y-54807330D01*
X53998530Y-54847699D01*
X53998534Y-54847700D01*
X53998535Y-54847700D01*
X54205466Y-54847700D01*
X54205467Y-54847699D01*
X54408420Y-54807330D01*
X54599598Y-54728141D01*
X54771655Y-54613177D01*
X54917977Y-54466855D01*
X55032941Y-54294798D01*
X55112130Y-54103620D01*
X55152500Y-53900665D01*
X55152500Y-53693735D01*
X55152499Y-53693730D01*
X55591500Y-53693730D01*
X55591500Y-53900669D01*
X55631868Y-54103612D01*
X55631870Y-54103620D01*
X55697939Y-54263125D01*
X55711059Y-54294798D01*
X55740625Y-54339047D01*
X55826024Y-54466857D01*
X55972342Y-54613175D01*
X55972345Y-54613177D01*
X56144402Y-54728141D01*
X56335580Y-54807330D01*
X56538530Y-54847699D01*
X56538534Y-54847700D01*
X56538535Y-54847700D01*
X56745466Y-54847700D01*
X56745467Y-54847699D01*
X56948420Y-54807330D01*
X57139598Y-54728141D01*
X57311655Y-54613177D01*
X57457977Y-54466855D01*
X57572941Y-54294798D01*
X57652130Y-54103620D01*
X57692500Y-53900665D01*
X57692500Y-53693735D01*
X57652130Y-53490780D01*
X57572941Y-53299602D01*
X57457977Y-53127545D01*
X57457975Y-53127542D01*
X57311657Y-52981224D01*
X57213501Y-52915639D01*
X57139598Y-52866259D01*
X57120516Y-52858355D01*
X56948420Y-52787070D01*
X56948412Y-52787068D01*
X56745469Y-52746700D01*
X56745465Y-52746700D01*
X56538535Y-52746700D01*
X56538530Y-52746700D01*
X56335587Y-52787068D01*
X56335579Y-52787070D01*
X56144403Y-52866258D01*
X55972342Y-52981224D01*
X55826024Y-53127542D01*
X55711058Y-53299603D01*
X55631870Y-53490779D01*
X55631868Y-53490787D01*
X55591500Y-53693730D01*
X55152499Y-53693730D01*
X55112130Y-53490780D01*
X55032941Y-53299602D01*
X54917977Y-53127545D01*
X54917975Y-53127542D01*
X54771657Y-52981224D01*
X54673501Y-52915639D01*
X54599598Y-52866259D01*
X54580516Y-52858355D01*
X54408420Y-52787070D01*
X54408412Y-52787068D01*
X54205469Y-52746700D01*
X54205465Y-52746700D01*
X53998535Y-52746700D01*
X53998530Y-52746700D01*
X53795587Y-52787068D01*
X53795579Y-52787070D01*
X53604403Y-52866258D01*
X53432342Y-52981224D01*
X53286024Y-53127542D01*
X53171058Y-53299603D01*
X53091870Y-53490779D01*
X53091868Y-53490787D01*
X53051500Y-53693730D01*
X52408072Y-53693730D01*
X52379336Y-53549271D01*
X52379334Y-53549263D01*
X52315259Y-53394572D01*
X52315259Y-53394571D01*
X52222241Y-53255360D01*
X52222235Y-53255352D01*
X52103847Y-53136964D01*
X52103839Y-53136958D01*
X51964628Y-53043940D01*
X51809936Y-52979865D01*
X51809928Y-52979863D01*
X51645721Y-52947200D01*
X51478279Y-52947200D01*
X51314071Y-52979863D01*
X51314063Y-52979865D01*
X51159372Y-53043940D01*
X51159371Y-53043940D01*
X51020160Y-53136958D01*
X51020152Y-53136964D01*
X50901764Y-53255352D01*
X50901758Y-53255360D01*
X50808740Y-53394571D01*
X50808740Y-53394572D01*
X50744665Y-53549263D01*
X50744663Y-53549271D01*
X50712000Y-53713477D01*
X50072500Y-53713477D01*
X50072500Y-53693735D01*
X50032130Y-53490780D01*
X49952941Y-53299602D01*
X49837977Y-53127545D01*
X49837975Y-53127542D01*
X49691657Y-52981224D01*
X49593501Y-52915639D01*
X49519598Y-52866259D01*
X49500516Y-52858355D01*
X49328420Y-52787070D01*
X49328412Y-52787068D01*
X49125469Y-52746700D01*
X49125465Y-52746700D01*
X48918535Y-52746700D01*
X48918530Y-52746700D01*
X48715587Y-52787068D01*
X48715575Y-52787071D01*
X48620028Y-52826648D01*
X48550559Y-52834117D01*
X48488080Y-52802841D01*
X48484895Y-52799768D01*
X48144119Y-52458992D01*
X48129415Y-52432064D01*
X48112823Y-52406246D01*
X48111931Y-52400045D01*
X48110634Y-52397669D01*
X48108596Y-52378711D01*
X59649500Y-52378711D01*
X59649500Y-52621288D01*
X59680709Y-52858355D01*
X59681162Y-52861789D01*
X59692406Y-52903750D01*
X59743947Y-53096104D01*
X59785784Y-53197106D01*
X59836776Y-53320212D01*
X59958064Y-53530289D01*
X59958066Y-53530292D01*
X59958067Y-53530293D01*
X60105733Y-53722736D01*
X60105739Y-53722743D01*
X60277256Y-53894260D01*
X60277263Y-53894266D01*
X60285604Y-53900666D01*
X60469711Y-54041936D01*
X60679788Y-54163224D01*
X60903900Y-54256054D01*
X61138211Y-54318838D01*
X61318586Y-54342584D01*
X61378711Y-54350500D01*
X61378712Y-54350500D01*
X61621289Y-54350500D01*
X61669388Y-54344167D01*
X61861789Y-54318838D01*
X62096100Y-54256054D01*
X62320212Y-54163224D01*
X62530289Y-54041936D01*
X62722738Y-53894265D01*
X62894265Y-53722738D01*
X63041936Y-53530289D01*
X63163224Y-53320212D01*
X63256054Y-53096100D01*
X63318838Y-52861789D01*
X63350500Y-52621288D01*
X63350500Y-52378712D01*
X63349319Y-52369745D01*
X63335837Y-52267331D01*
X63318838Y-52138211D01*
X63256054Y-51903900D01*
X63250489Y-51890466D01*
X63218667Y-51813639D01*
X63163224Y-51679788D01*
X63041936Y-51469711D01*
X62943113Y-51340922D01*
X62894266Y-51277263D01*
X62894260Y-51277256D01*
X62722743Y-51105739D01*
X62722736Y-51105733D01*
X62530293Y-50958067D01*
X62530292Y-50958066D01*
X62530289Y-50958064D01*
X62320212Y-50836776D01*
X62289996Y-50824260D01*
X62096104Y-50743947D01*
X61861785Y-50681161D01*
X61621289Y-50649500D01*
X61621288Y-50649500D01*
X61378712Y-50649500D01*
X61378711Y-50649500D01*
X61138214Y-50681161D01*
X60903895Y-50743947D01*
X60679794Y-50836773D01*
X60679785Y-50836777D01*
X60497851Y-50941817D01*
X60471610Y-50956968D01*
X60469706Y-50958067D01*
X60277263Y-51105733D01*
X60277256Y-51105739D01*
X60105739Y-51277256D01*
X60105733Y-51277263D01*
X59958067Y-51469706D01*
X59836777Y-51679785D01*
X59836773Y-51679794D01*
X59743947Y-51903895D01*
X59681161Y-52138214D01*
X59649500Y-52378711D01*
X48108596Y-52378711D01*
X48107800Y-52371311D01*
X48107800Y-52127995D01*
X48127485Y-52060956D01*
X48180289Y-52015201D01*
X48249447Y-52005257D01*
X48313003Y-52034282D01*
X48319481Y-52040314D01*
X48352342Y-52073175D01*
X48352345Y-52073177D01*
X48524402Y-52188141D01*
X48715580Y-52267330D01*
X48860052Y-52296067D01*
X48918530Y-52307699D01*
X48918534Y-52307700D01*
X48918535Y-52307700D01*
X49125466Y-52307700D01*
X49125467Y-52307699D01*
X49328420Y-52267330D01*
X49519598Y-52188141D01*
X49691655Y-52073177D01*
X49837977Y-51926855D01*
X49952941Y-51754798D01*
X50032130Y-51563620D01*
X50072500Y-51360665D01*
X50072500Y-51153735D01*
X50072499Y-51153730D01*
X50511500Y-51153730D01*
X50511500Y-51360669D01*
X50551868Y-51563612D01*
X50551870Y-51563620D01*
X50621140Y-51730853D01*
X50631059Y-51754798D01*
X50660625Y-51799047D01*
X50746024Y-51926857D01*
X50892342Y-52073175D01*
X50892345Y-52073177D01*
X51064402Y-52188141D01*
X51255580Y-52267330D01*
X51400052Y-52296067D01*
X51458530Y-52307699D01*
X51458534Y-52307700D01*
X51458535Y-52307700D01*
X51665466Y-52307700D01*
X51665467Y-52307699D01*
X51868420Y-52267330D01*
X52059598Y-52188141D01*
X52231655Y-52073177D01*
X52377977Y-51926855D01*
X52492941Y-51754798D01*
X52572130Y-51563620D01*
X52612500Y-51360665D01*
X52612500Y-51153735D01*
X52572130Y-50950780D01*
X52492941Y-50759602D01*
X52377977Y-50587545D01*
X52377975Y-50587542D01*
X52231657Y-50441224D01*
X52107316Y-50358143D01*
X52059598Y-50326259D01*
X52059593Y-50326257D01*
X51868420Y-50247070D01*
X51868412Y-50247068D01*
X51665469Y-50206700D01*
X51665465Y-50206700D01*
X51458535Y-50206700D01*
X51458530Y-50206700D01*
X51255587Y-50247068D01*
X51255579Y-50247070D01*
X51064403Y-50326258D01*
X50892342Y-50441224D01*
X50746024Y-50587542D01*
X50631058Y-50759603D01*
X50551870Y-50950779D01*
X50551868Y-50950787D01*
X50511500Y-51153730D01*
X50072499Y-51153730D01*
X50032130Y-50950780D01*
X49992550Y-50855228D01*
X49985082Y-50785760D01*
X50016357Y-50723280D01*
X50019431Y-50720095D01*
X50151984Y-50587542D01*
X50381384Y-50358143D01*
X50424237Y-50283920D01*
X50446419Y-50201134D01*
X50446419Y-50115428D01*
X50446419Y-48339500D01*
X50466104Y-48272461D01*
X50518908Y-48226706D01*
X50588066Y-48216762D01*
X50651622Y-48245787D01*
X50677804Y-48277497D01*
X50699435Y-48314962D01*
X50699437Y-48314964D01*
X53104568Y-50720095D01*
X53138053Y-50781418D01*
X53133069Y-50851110D01*
X53131448Y-50855228D01*
X53091871Y-50950775D01*
X53091868Y-50950787D01*
X53051500Y-51153730D01*
X53051500Y-51360669D01*
X53091868Y-51563612D01*
X53091870Y-51563620D01*
X53161140Y-51730853D01*
X53171059Y-51754798D01*
X53200625Y-51799047D01*
X53286024Y-51926857D01*
X53432342Y-52073175D01*
X53432345Y-52073177D01*
X53604402Y-52188141D01*
X53795580Y-52267330D01*
X53940052Y-52296067D01*
X53998530Y-52307699D01*
X53998534Y-52307700D01*
X53998535Y-52307700D01*
X54205466Y-52307700D01*
X54205467Y-52307699D01*
X54408420Y-52267330D01*
X54599598Y-52188141D01*
X54771655Y-52073177D01*
X54917977Y-51926855D01*
X55032941Y-51754798D01*
X55112130Y-51563620D01*
X55152500Y-51360665D01*
X55152500Y-51153735D01*
X55112130Y-50950780D01*
X55032941Y-50759602D01*
X54917977Y-50587545D01*
X54917975Y-50587542D01*
X54771657Y-50441224D01*
X54647316Y-50358143D01*
X54599598Y-50326259D01*
X54599593Y-50326257D01*
X54408420Y-50247070D01*
X54408412Y-50247068D01*
X54205469Y-50206700D01*
X54205465Y-50206700D01*
X53998535Y-50206700D01*
X53998530Y-50206700D01*
X53795587Y-50247068D01*
X53795575Y-50247071D01*
X53700028Y-50286648D01*
X53630559Y-50294117D01*
X53568080Y-50262841D01*
X53564895Y-50259768D01*
X51321719Y-48016592D01*
X51288234Y-47955269D01*
X51285400Y-47928911D01*
X51285400Y-38960955D01*
X51285401Y-38960942D01*
X51285401Y-38865248D01*
X51283794Y-38859251D01*
X51263218Y-38782461D01*
X51239641Y-38741626D01*
X51220365Y-38708238D01*
X51159762Y-38647635D01*
X51159759Y-38647633D01*
X45362456Y-32850329D01*
X45325344Y-32828902D01*
X45288234Y-32807476D01*
X45246840Y-32796385D01*
X45205447Y-32785294D01*
X45205446Y-32785294D01*
X44398533Y-32785294D01*
X44331494Y-32765609D01*
X44310852Y-32748975D01*
X44272173Y-32710296D01*
X44272171Y-32710294D01*
X44177761Y-32655786D01*
X44158044Y-32644402D01*
X44061333Y-32618489D01*
X44030749Y-32610294D01*
X43898965Y-32610294D01*
X43771671Y-32644402D01*
X43771670Y-32644402D01*
X43771668Y-32644403D01*
X43771667Y-32644403D01*
X43670683Y-32702707D01*
X43602783Y-32719180D01*
X43536756Y-32696327D01*
X43493565Y-32641406D01*
X43486924Y-32571853D01*
X43501298Y-32533316D01*
X43503018Y-32530338D01*
X43525200Y-32447553D01*
X43525200Y-27916847D01*
X43503018Y-27834062D01*
X43474740Y-27785083D01*
X43460169Y-27759844D01*
X43460163Y-27759836D01*
X41188008Y-25487681D01*
X41154523Y-25426358D01*
X41159507Y-25356666D01*
X41188008Y-25312319D01*
X45231716Y-21268611D01*
X51541567Y-14958759D01*
X51597150Y-14926669D01*
X51665638Y-14908318D01*
X51739862Y-14865465D01*
X51800465Y-14804862D01*
X51843318Y-14730638D01*
X51865500Y-14647853D01*
X51865500Y-14190495D01*
X51885185Y-14123456D01*
X51937989Y-14077701D01*
X52007147Y-14067757D01*
X52070703Y-14096782D01*
X52077181Y-14102814D01*
X52140342Y-14165975D01*
X52140345Y-14165977D01*
X52312402Y-14280941D01*
X52331482Y-14288844D01*
X52407952Y-14320519D01*
X52462356Y-14364359D01*
X52484421Y-14430653D01*
X52484500Y-14435080D01*
X52484500Y-28587961D01*
X52464815Y-28655000D01*
X52448181Y-28675642D01*
X49291492Y-31832331D01*
X49230169Y-31865816D01*
X49203811Y-31868650D01*
X49149108Y-31868650D01*
X49021812Y-31902758D01*
X48907686Y-31968650D01*
X48907683Y-31968652D01*
X48814502Y-32061833D01*
X48814500Y-32061836D01*
X48748608Y-32175962D01*
X48720255Y-32281780D01*
X48714500Y-32303258D01*
X48714500Y-32435042D01*
X48722218Y-32463846D01*
X48748608Y-32562337D01*
X48772987Y-32604562D01*
X48814500Y-32676464D01*
X48907686Y-32769650D01*
X49021814Y-32835542D01*
X49149108Y-32869650D01*
X49149110Y-32869650D01*
X49280890Y-32869650D01*
X49280892Y-32869650D01*
X49408186Y-32835542D01*
X49522314Y-32769650D01*
X49615500Y-32676464D01*
X49681392Y-32562336D01*
X49715500Y-32435042D01*
X49715500Y-32380337D01*
X49735185Y-32313298D01*
X49751814Y-32292661D01*
X53009859Y-29034616D01*
X53009862Y-29034615D01*
X53070465Y-28974012D01*
X53112163Y-28901789D01*
X53113318Y-28899789D01*
X53135501Y-28817003D01*
X53135501Y-28731297D01*
X53135501Y-28723702D01*
X53135500Y-28723684D01*
X53135500Y-14435080D01*
X53155185Y-14368041D01*
X53207989Y-14322286D01*
X53212048Y-14320519D01*
X53221830Y-14316466D01*
X53307598Y-14280941D01*
X53479655Y-14165977D01*
X53625977Y-14019655D01*
X53740941Y-13847598D01*
X53820130Y-13656420D01*
X53860500Y-13453465D01*
X53860500Y-13246535D01*
X53860499Y-13246530D01*
X54299500Y-13246530D01*
X54299500Y-13453469D01*
X54339868Y-13656412D01*
X54339870Y-13656420D01*
X54419058Y-13847596D01*
X54534024Y-14019657D01*
X54680342Y-14165975D01*
X54680345Y-14165977D01*
X54852402Y-14280941D01*
X55043580Y-14360130D01*
X55232187Y-14397646D01*
X55246530Y-14400499D01*
X55246534Y-14400500D01*
X55246535Y-14400500D01*
X55453466Y-14400500D01*
X55453467Y-14400499D01*
X55656420Y-14360130D01*
X55847598Y-14280941D01*
X56019655Y-14165977D01*
X56165977Y-14019655D01*
X56280941Y-13847598D01*
X56360130Y-13656420D01*
X56400500Y-13453465D01*
X56400500Y-13246535D01*
X56360130Y-13043580D01*
X56280941Y-12852402D01*
X56165977Y-12680345D01*
X56165975Y-12680342D01*
X56019657Y-12534024D01*
X55912321Y-12462305D01*
X55847598Y-12419059D01*
X55713595Y-12363553D01*
X55656420Y-12339870D01*
X55656412Y-12339868D01*
X55453469Y-12299500D01*
X55453465Y-12299500D01*
X55246535Y-12299500D01*
X55246530Y-12299500D01*
X55043587Y-12339868D01*
X55043579Y-12339870D01*
X54852403Y-12419058D01*
X54680342Y-12534024D01*
X54534024Y-12680342D01*
X54419058Y-12852403D01*
X54339870Y-13043579D01*
X54339868Y-13043587D01*
X54299500Y-13246530D01*
X53860499Y-13246530D01*
X53820130Y-13043580D01*
X53740941Y-12852402D01*
X53625977Y-12680345D01*
X53625975Y-12680342D01*
X53479657Y-12534024D01*
X53372321Y-12462305D01*
X53307598Y-12419059D01*
X53173595Y-12363553D01*
X53116420Y-12339870D01*
X53116412Y-12339868D01*
X52913469Y-12299500D01*
X52913465Y-12299500D01*
X52706535Y-12299500D01*
X52706530Y-12299500D01*
X52503587Y-12339868D01*
X52503579Y-12339870D01*
X52312403Y-12419058D01*
X52140342Y-12534024D01*
X52140341Y-12534025D01*
X52077181Y-12597186D01*
X52057744Y-12607798D01*
X52041011Y-12622299D01*
X52027679Y-12624215D01*
X52015858Y-12630671D01*
X51993771Y-12629091D01*
X51971853Y-12632243D01*
X51959601Y-12626647D01*
X51946166Y-12625687D01*
X51928439Y-12612416D01*
X51908297Y-12603218D01*
X51901014Y-12591886D01*
X51890233Y-12583815D01*
X51882495Y-12563069D01*
X51870523Y-12544440D01*
X51867371Y-12522521D01*
X51865816Y-12518351D01*
X51865500Y-12509505D01*
X51865500Y-12266188D01*
X51885185Y-12199149D01*
X51901815Y-12178511D01*
X52272895Y-11807430D01*
X52334218Y-11773946D01*
X52403910Y-11778930D01*
X52408023Y-11780548D01*
X52503580Y-11820130D01*
X52706530Y-11860499D01*
X52706534Y-11860500D01*
X52706535Y-11860500D01*
X52913466Y-11860500D01*
X52913467Y-11860499D01*
X53116420Y-11820130D01*
X53307598Y-11740941D01*
X53479655Y-11625977D01*
X53625977Y-11479655D01*
X53740941Y-11307598D01*
X53820130Y-11116420D01*
X53860500Y-10913465D01*
X53860500Y-10706535D01*
X53820130Y-10503580D01*
X53740941Y-10312402D01*
X53625977Y-10140345D01*
X53625975Y-10140342D01*
X53479657Y-9994024D01*
X53441273Y-9968377D01*
X53417514Y-9952502D01*
X53372709Y-9898891D01*
X53364002Y-9829566D01*
X53394156Y-9766538D01*
X53453599Y-9729818D01*
X53486405Y-9725400D01*
X54673595Y-9725400D01*
X54740634Y-9745085D01*
X54786389Y-9797889D01*
X54796333Y-9867047D01*
X54767308Y-9930603D01*
X54742486Y-9952501D01*
X54727211Y-9962707D01*
X54680342Y-9994024D01*
X54534024Y-10140342D01*
X54419058Y-10312403D01*
X54339870Y-10503579D01*
X54339868Y-10503587D01*
X54299500Y-10706530D01*
X54299500Y-10913469D01*
X54339868Y-11116412D01*
X54339870Y-11116420D01*
X54417564Y-11303990D01*
X54419059Y-11307598D01*
X54459950Y-11368796D01*
X54534024Y-11479657D01*
X54680342Y-11625975D01*
X54680345Y-11625977D01*
X54852402Y-11740941D01*
X55043580Y-11820130D01*
X55246530Y-11860499D01*
X55246534Y-11860500D01*
X55246535Y-11860500D01*
X55453466Y-11860500D01*
X55453467Y-11860499D01*
X55656420Y-11820130D01*
X55847598Y-11740941D01*
X56019655Y-11625977D01*
X56165977Y-11479655D01*
X56280941Y-11307598D01*
X56360130Y-11116420D01*
X56400500Y-10913465D01*
X56400500Y-10706535D01*
X56360130Y-10503580D01*
X56280941Y-10312402D01*
X56165977Y-10140345D01*
X56165975Y-10140342D01*
X56019657Y-9994024D01*
X55981273Y-9968377D01*
X55957514Y-9952502D01*
X55912709Y-9898891D01*
X55904002Y-9829566D01*
X55934156Y-9766538D01*
X55993599Y-9729818D01*
X56026405Y-9725400D01*
X57726702Y-9725400D01*
X57793741Y-9745085D01*
X57839496Y-9797889D01*
X57849440Y-9867047D01*
X57820415Y-9930603D01*
X57761637Y-9968377D01*
X57750893Y-9971017D01*
X57642071Y-9992663D01*
X57642063Y-9992665D01*
X57487372Y-10056740D01*
X57487371Y-10056740D01*
X57348160Y-10149758D01*
X57348152Y-10149764D01*
X57229764Y-10268152D01*
X57229758Y-10268160D01*
X57136740Y-10407371D01*
X57136740Y-10407372D01*
X57072665Y-10562063D01*
X57072663Y-10562071D01*
X57040000Y-10726277D01*
X57040000Y-10893722D01*
X57072663Y-11057928D01*
X57072665Y-11057936D01*
X57136740Y-11212627D01*
X57136740Y-11212628D01*
X57229758Y-11351839D01*
X57229764Y-11351847D01*
X57348152Y-11470235D01*
X57348160Y-11470241D01*
X57487371Y-11563259D01*
X57642063Y-11627334D01*
X57642071Y-11627336D01*
X57806277Y-11659999D01*
X57806280Y-11660000D01*
X57973720Y-11660000D01*
X57973722Y-11659999D01*
X58137928Y-11627336D01*
X58137936Y-11627334D01*
X58292627Y-11563259D01*
X58292628Y-11563259D01*
X58431839Y-11470241D01*
X58431847Y-11470235D01*
X58550236Y-11351846D01*
X58560197Y-11336939D01*
X58613809Y-11292134D01*
X58683134Y-11283426D01*
X58746162Y-11313580D01*
X58782882Y-11373023D01*
X58787300Y-11405829D01*
X58787300Y-12462305D01*
X58767615Y-12529344D01*
X58714811Y-12575099D01*
X58645653Y-12585043D01*
X58582097Y-12556018D01*
X58575619Y-12549986D01*
X58559657Y-12534024D01*
X58452321Y-12462305D01*
X58387598Y-12419059D01*
X58253595Y-12363553D01*
X58196420Y-12339870D01*
X58196412Y-12339868D01*
X57993469Y-12299500D01*
X57993465Y-12299500D01*
X57786535Y-12299500D01*
X57786530Y-12299500D01*
X57583587Y-12339868D01*
X57583579Y-12339870D01*
X57392403Y-12419058D01*
X57220342Y-12534024D01*
X57074024Y-12680342D01*
X56959058Y-12852403D01*
X56879870Y-13043579D01*
X56879868Y-13043587D01*
X56839500Y-13246530D01*
X56839500Y-13453469D01*
X56879868Y-13656412D01*
X56879870Y-13656420D01*
X56919448Y-13751969D01*
X56926917Y-13821438D01*
X56895642Y-13883918D01*
X56892568Y-13887103D01*
X54349537Y-16430135D01*
X54349535Y-16430138D01*
X54306682Y-16504361D01*
X54288013Y-16574035D01*
X54286607Y-16579279D01*
X54284500Y-16587144D01*
X54284500Y-40841324D01*
X54264815Y-40908363D01*
X54248181Y-40929005D01*
X54209502Y-40967683D01*
X54209500Y-40967686D01*
X54143608Y-41081812D01*
X54128213Y-41139269D01*
X54109500Y-41209108D01*
X54109500Y-41340892D01*
X54126554Y-41404539D01*
X54143608Y-41468187D01*
X54163524Y-41502682D01*
X54209500Y-41582314D01*
X54302686Y-41675500D01*
X54416814Y-41741392D01*
X54544108Y-41775500D01*
X54544110Y-41775500D01*
X54675890Y-41775500D01*
X54675892Y-41775500D01*
X54803186Y-41741392D01*
X54917314Y-41675500D01*
X55010500Y-41582314D01*
X55076392Y-41468186D01*
X55110500Y-41340892D01*
X55110500Y-41209108D01*
X55076392Y-41081814D01*
X55010500Y-40967686D01*
X54971819Y-40929005D01*
X54938334Y-40867682D01*
X54935500Y-40841324D01*
X54935500Y-16816188D01*
X54955185Y-16749149D01*
X54971814Y-16728512D01*
X57352895Y-14347430D01*
X57414218Y-14313946D01*
X57483910Y-14318930D01*
X57488023Y-14320548D01*
X57583580Y-14360130D01*
X57772187Y-14397646D01*
X57786530Y-14400499D01*
X57786534Y-14400500D01*
X57786535Y-14400500D01*
X57993466Y-14400500D01*
X57993467Y-14400499D01*
X58196420Y-14360130D01*
X58387598Y-14280941D01*
X58559655Y-14165977D01*
X58567550Y-14158082D01*
X58575619Y-14150014D01*
X58636942Y-14116529D01*
X58706634Y-14121513D01*
X58762567Y-14163385D01*
X58786984Y-14228849D01*
X58787300Y-14237695D01*
X58787300Y-14942502D01*
X58767615Y-15009541D01*
X58750981Y-15030183D01*
X56161481Y-17619682D01*
X56161479Y-17619685D01*
X56111361Y-17706494D01*
X56111359Y-17706496D01*
X56082425Y-17756609D01*
X56082424Y-17756610D01*
X56082423Y-17756615D01*
X56041499Y-17909343D01*
X56041499Y-17909345D01*
X56041499Y-18077446D01*
X56041500Y-18077459D01*
X56041500Y-50082700D01*
X56021815Y-50149739D01*
X55969011Y-50195494D01*
X55917500Y-50206700D01*
X55772247Y-50206700D01*
X55713770Y-50218331D01*
X55713769Y-50218332D01*
X55647447Y-50262647D01*
X55603132Y-50328969D01*
X55603131Y-50328970D01*
X55591500Y-50387447D01*
X55591500Y-52126952D01*
X55603131Y-52185429D01*
X55603132Y-52185430D01*
X55647447Y-52251752D01*
X55713769Y-52296067D01*
X55713770Y-52296068D01*
X55772247Y-52307699D01*
X55772250Y-52307700D01*
X55772252Y-52307700D01*
X57511750Y-52307700D01*
X57511751Y-52307699D01*
X57526568Y-52304752D01*
X57570229Y-52296068D01*
X57570229Y-52296067D01*
X57570231Y-52296067D01*
X57636552Y-52251752D01*
X57680867Y-52185431D01*
X57680867Y-52185429D01*
X57680868Y-52185429D01*
X57692499Y-52126952D01*
X57692500Y-52126950D01*
X57692500Y-50387449D01*
X57692499Y-50387447D01*
X57680868Y-50328970D01*
X57680867Y-50328969D01*
X57636552Y-50262647D01*
X57570230Y-50218332D01*
X57570229Y-50218331D01*
X57511752Y-50206700D01*
X57511748Y-50206700D01*
X57366500Y-50206700D01*
X57299461Y-50187015D01*
X57253706Y-50134211D01*
X57242500Y-50082700D01*
X57242500Y-38095730D01*
X58489500Y-38095730D01*
X58489500Y-39404269D01*
X58492353Y-39434699D01*
X58492353Y-39434701D01*
X58537206Y-39562880D01*
X58537207Y-39562882D01*
X58617850Y-39672150D01*
X58727118Y-39752793D01*
X58748432Y-39760251D01*
X58855299Y-39797646D01*
X58885730Y-39800500D01*
X58885734Y-39800500D01*
X60494270Y-39800500D01*
X60524699Y-39797646D01*
X60524701Y-39797646D01*
X60612543Y-39766908D01*
X60652882Y-39752793D01*
X60762150Y-39672150D01*
X60842793Y-39562882D01*
X60865219Y-39498790D01*
X60887646Y-39434701D01*
X60887646Y-39434699D01*
X60890500Y-39404269D01*
X60890500Y-38095730D01*
X60887646Y-38065300D01*
X60887646Y-38065298D01*
X60842793Y-37937119D01*
X60842792Y-37937117D01*
X60762150Y-37827850D01*
X60652882Y-37747207D01*
X60652880Y-37747206D01*
X60524700Y-37702353D01*
X60494270Y-37699500D01*
X60494266Y-37699500D01*
X58885734Y-37699500D01*
X58885730Y-37699500D01*
X58855300Y-37702353D01*
X58855298Y-37702353D01*
X58727119Y-37747206D01*
X58727117Y-37747207D01*
X58617850Y-37827850D01*
X58537207Y-37937117D01*
X58537206Y-37937119D01*
X58492353Y-38065298D01*
X58492353Y-38065300D01*
X58489500Y-38095730D01*
X57242500Y-38095730D01*
X57242500Y-36166277D01*
X58690000Y-36166277D01*
X58690000Y-36333722D01*
X58722663Y-36497928D01*
X58722665Y-36497936D01*
X58786740Y-36652627D01*
X58786740Y-36652628D01*
X58879758Y-36791839D01*
X58879764Y-36791847D01*
X58998152Y-36910235D01*
X58998160Y-36910241D01*
X59137371Y-37003259D01*
X59292063Y-37067334D01*
X59292071Y-37067336D01*
X59456277Y-37099999D01*
X59456280Y-37100000D01*
X59923720Y-37100000D01*
X59923722Y-37099999D01*
X60087928Y-37067336D01*
X60087936Y-37067334D01*
X60242627Y-37003259D01*
X60242628Y-37003259D01*
X60381839Y-36910241D01*
X60381847Y-36910235D01*
X60500235Y-36791847D01*
X60500241Y-36791839D01*
X60593259Y-36652628D01*
X60593259Y-36652627D01*
X60657334Y-36497936D01*
X60657336Y-36497928D01*
X60689999Y-36333722D01*
X60690000Y-36333720D01*
X60690000Y-36166279D01*
X60689999Y-36166277D01*
X60657336Y-36002071D01*
X60657334Y-36002063D01*
X60593259Y-35847372D01*
X60593259Y-35847371D01*
X60500241Y-35708160D01*
X60500235Y-35708152D01*
X60381847Y-35589764D01*
X60381839Y-35589758D01*
X60242628Y-35496740D01*
X60087936Y-35432665D01*
X60087928Y-35432663D01*
X59923721Y-35400000D01*
X59456279Y-35400000D01*
X59292071Y-35432663D01*
X59292063Y-35432665D01*
X59137372Y-35496740D01*
X59137371Y-35496740D01*
X58998160Y-35589758D01*
X58998152Y-35589764D01*
X58879764Y-35708152D01*
X58879758Y-35708160D01*
X58786740Y-35847371D01*
X58786740Y-35847372D01*
X58722665Y-36002063D01*
X58722663Y-36002071D01*
X58690000Y-36166277D01*
X57242500Y-36166277D01*
X57242500Y-29378711D01*
X59649500Y-29378711D01*
X59649500Y-29621288D01*
X59681161Y-29861785D01*
X59743947Y-30096104D01*
X59836773Y-30320205D01*
X59836776Y-30320212D01*
X59958064Y-30530289D01*
X59958066Y-30530292D01*
X59958067Y-30530293D01*
X60105733Y-30722736D01*
X60105739Y-30722743D01*
X60277256Y-30894260D01*
X60277263Y-30894266D01*
X60304880Y-30915457D01*
X60469711Y-31041936D01*
X60679788Y-31163224D01*
X60903900Y-31256054D01*
X61138211Y-31318838D01*
X61318586Y-31342584D01*
X61378711Y-31350500D01*
X61378712Y-31350500D01*
X61621289Y-31350500D01*
X61669388Y-31344167D01*
X61861789Y-31318838D01*
X62096100Y-31256054D01*
X62320212Y-31163224D01*
X62530289Y-31041936D01*
X62722738Y-30894265D01*
X62894265Y-30722738D01*
X63041936Y-30530289D01*
X63163224Y-30320212D01*
X63256054Y-30096100D01*
X63318838Y-29861789D01*
X63350500Y-29621288D01*
X63350500Y-29378712D01*
X63318838Y-29138211D01*
X63256054Y-28903900D01*
X63163224Y-28679788D01*
X63041936Y-28469711D01*
X62981018Y-28390321D01*
X62894266Y-28277263D01*
X62894260Y-28277256D01*
X62722743Y-28105739D01*
X62722736Y-28105733D01*
X62530293Y-27958067D01*
X62530292Y-27958066D01*
X62530289Y-27958064D01*
X62320212Y-27836776D01*
X62313643Y-27834055D01*
X62096104Y-27743947D01*
X61904338Y-27692563D01*
X61861789Y-27681162D01*
X61861788Y-27681161D01*
X61861785Y-27681161D01*
X61621289Y-27649500D01*
X61621288Y-27649500D01*
X61378712Y-27649500D01*
X61378711Y-27649500D01*
X61138214Y-27681161D01*
X60903895Y-27743947D01*
X60679794Y-27836773D01*
X60679785Y-27836777D01*
X60469706Y-27958067D01*
X60277263Y-28105733D01*
X60277256Y-28105739D01*
X60105739Y-28277256D01*
X60105733Y-28277263D01*
X59958067Y-28469706D01*
X59836777Y-28679785D01*
X59836773Y-28679794D01*
X59743947Y-28903895D01*
X59681161Y-29138214D01*
X59649500Y-29378711D01*
X57242500Y-29378711D01*
X57242500Y-18288497D01*
X57262185Y-18221458D01*
X57278819Y-18200816D01*
X58546758Y-16932877D01*
X59868320Y-15611316D01*
X59947377Y-15474384D01*
X59988301Y-15321657D01*
X59988301Y-15163542D01*
X59988301Y-15155947D01*
X59988300Y-15155929D01*
X59988300Y-10169943D01*
X59983621Y-10152483D01*
X59983620Y-10152479D01*
X59963342Y-10076799D01*
X59947377Y-10017216D01*
X59947376Y-10017213D01*
X59868324Y-9880290D01*
X59868321Y-9880286D01*
X59868320Y-9880284D01*
X59756516Y-9768480D01*
X59756515Y-9768479D01*
X59752185Y-9764149D01*
X59752174Y-9764139D01*
X58751290Y-8763255D01*
X58751288Y-8763252D01*
X58632417Y-8644381D01*
X58632416Y-8644380D01*
X58545604Y-8594260D01*
X58545604Y-8594259D01*
X58545600Y-8594258D01*
X58495485Y-8565323D01*
X58342757Y-8524399D01*
X58184643Y-8524399D01*
X58177047Y-8524399D01*
X58177031Y-8524400D01*
X44274997Y-8524400D01*
X44207958Y-8504715D01*
X44187316Y-8488081D01*
X39431140Y-3731905D01*
X39397655Y-3670582D01*
X39394857Y-3641216D01*
X39395116Y-3630530D01*
X39400500Y-3603465D01*
X39400500Y-3416277D01*
X40040000Y-3416277D01*
X40040000Y-3583722D01*
X40072663Y-3747928D01*
X40072665Y-3747936D01*
X40136740Y-3902627D01*
X40136740Y-3902628D01*
X40229758Y-4041839D01*
X40229764Y-4041847D01*
X40348152Y-4160235D01*
X40348160Y-4160241D01*
X40487371Y-4253259D01*
X40642063Y-4317334D01*
X40642071Y-4317336D01*
X40806277Y-4349999D01*
X40806280Y-4350000D01*
X40973720Y-4350000D01*
X40973722Y-4349999D01*
X41137928Y-4317336D01*
X41137936Y-4317334D01*
X41292627Y-4253259D01*
X41292628Y-4253259D01*
X41431839Y-4160241D01*
X41431847Y-4160235D01*
X41550235Y-4041847D01*
X41550241Y-4041839D01*
X41643259Y-3902628D01*
X41643259Y-3902627D01*
X41707334Y-3747936D01*
X41707336Y-3747928D01*
X41739999Y-3583722D01*
X41740000Y-3583720D01*
X41740000Y-3416279D01*
X41736532Y-3398845D01*
X41736532Y-3398844D01*
X41732527Y-3378711D01*
X59649500Y-3378711D01*
X59649500Y-3621288D01*
X59681161Y-3861785D01*
X59743947Y-4096104D01*
X59836773Y-4320205D01*
X59836777Y-4320214D01*
X59853974Y-4350000D01*
X59958064Y-4530289D01*
X59958066Y-4530292D01*
X59958067Y-4530293D01*
X60105733Y-4722736D01*
X60105739Y-4722743D01*
X60277256Y-4894260D01*
X60277262Y-4894265D01*
X60469711Y-5041936D01*
X60679788Y-5163224D01*
X60903900Y-5256054D01*
X61138211Y-5318838D01*
X61318586Y-5342584D01*
X61378711Y-5350500D01*
X61378712Y-5350500D01*
X61621289Y-5350500D01*
X61669388Y-5344167D01*
X61861789Y-5318838D01*
X62096100Y-5256054D01*
X62320212Y-5163224D01*
X62530289Y-5041936D01*
X62722738Y-4894265D01*
X62894265Y-4722738D01*
X63041936Y-4530289D01*
X63163224Y-4320212D01*
X63256054Y-4096100D01*
X63318838Y-3861789D01*
X63350500Y-3621288D01*
X63350500Y-3378712D01*
X63318838Y-3138211D01*
X63256054Y-2903900D01*
X63163224Y-2679788D01*
X63041936Y-2469711D01*
X62894265Y-2277262D01*
X62894260Y-2277256D01*
X62722743Y-2105739D01*
X62722736Y-2105733D01*
X62530293Y-1958067D01*
X62530292Y-1958066D01*
X62530289Y-1958064D01*
X62320212Y-1836776D01*
X62320205Y-1836773D01*
X62096104Y-1743947D01*
X61861785Y-1681161D01*
X61621289Y-1649500D01*
X61621288Y-1649500D01*
X61378712Y-1649500D01*
X61378711Y-1649500D01*
X61138214Y-1681161D01*
X60903895Y-1743947D01*
X60679794Y-1836773D01*
X60679785Y-1836777D01*
X60469706Y-1958067D01*
X60277263Y-2105733D01*
X60277256Y-2105739D01*
X60105739Y-2277256D01*
X60105733Y-2277263D01*
X59958067Y-2469706D01*
X59836777Y-2679785D01*
X59836773Y-2679794D01*
X59743947Y-2903895D01*
X59681161Y-3138214D01*
X59649500Y-3378711D01*
X41732527Y-3378711D01*
X41707336Y-3252071D01*
X41707334Y-3252063D01*
X41643259Y-3097372D01*
X41643259Y-3097371D01*
X41550241Y-2958160D01*
X41550235Y-2958152D01*
X41431847Y-2839764D01*
X41431839Y-2839758D01*
X41292628Y-2746740D01*
X41137936Y-2682665D01*
X41137928Y-2682663D01*
X40973721Y-2650000D01*
X40806279Y-2650000D01*
X40642071Y-2682663D01*
X40642063Y-2682665D01*
X40487372Y-2746740D01*
X40487371Y-2746740D01*
X40348160Y-2839758D01*
X40348152Y-2839764D01*
X40229764Y-2958152D01*
X40229758Y-2958160D01*
X40136740Y-3097371D01*
X40136740Y-3097372D01*
X40072665Y-3252063D01*
X40072663Y-3252071D01*
X40040000Y-3416277D01*
X39400500Y-3416277D01*
X39400500Y-3396535D01*
X39360130Y-3193580D01*
X39280941Y-3002402D01*
X39165977Y-2830345D01*
X39165975Y-2830342D01*
X39019657Y-2684024D01*
X38933626Y-2626541D01*
X38847598Y-2569059D01*
X38828516Y-2561155D01*
X38656420Y-2489870D01*
X38656412Y-2489868D01*
X38453469Y-2449500D01*
X38453465Y-2449500D01*
X38246535Y-2449500D01*
X38246530Y-2449500D01*
X38043587Y-2489868D01*
X38043579Y-2489870D01*
X37852403Y-2569058D01*
X37680342Y-2684024D01*
X37534024Y-2830342D01*
X37419058Y-3002403D01*
X37339870Y-3193579D01*
X37339868Y-3193587D01*
X37299500Y-3396530D01*
X37299500Y-3603469D01*
X37339868Y-3806412D01*
X37339870Y-3806420D01*
X37419058Y-3997596D01*
X37534024Y-4169657D01*
X37680342Y-4315975D01*
X37680345Y-4315977D01*
X37852402Y-4430941D01*
X38043580Y-4510130D01*
X38188052Y-4538867D01*
X38246530Y-4550499D01*
X38246534Y-4550500D01*
X38246535Y-4550500D01*
X38453466Y-4550500D01*
X38453466Y-4550499D01*
X38470029Y-4547205D01*
X38539620Y-4553429D01*
X38581905Y-4581140D01*
X43490039Y-9489274D01*
X43490049Y-9489285D01*
X43494379Y-9493615D01*
X43494380Y-9493616D01*
X43606184Y-9605420D01*
X43692995Y-9655539D01*
X43692997Y-9655541D01*
X43731051Y-9677511D01*
X43743115Y-9684477D01*
X43895843Y-9725401D01*
X43895846Y-9725401D01*
X44061553Y-9725401D01*
X44061569Y-9725400D01*
X44513595Y-9725400D01*
X44580634Y-9745085D01*
X44626389Y-9797889D01*
X44636333Y-9867047D01*
X44607308Y-9930603D01*
X44582486Y-9952501D01*
X44567211Y-9962707D01*
X44520342Y-9994024D01*
X44374024Y-10140342D01*
X44259058Y-10312403D01*
X44179870Y-10503579D01*
X44179868Y-10503587D01*
X44139500Y-10706530D01*
X44139500Y-10913469D01*
X44179868Y-11116412D01*
X44179870Y-11116420D01*
X44257564Y-11303990D01*
X44259059Y-11307598D01*
X44299950Y-11368796D01*
X44374024Y-11479657D01*
X44520342Y-11625975D01*
X44520345Y-11625977D01*
X44692402Y-11740941D01*
X44883580Y-11820130D01*
X45086530Y-11860499D01*
X45086534Y-11860500D01*
X45086535Y-11860500D01*
X45293466Y-11860500D01*
X45293467Y-11860499D01*
X45496420Y-11820130D01*
X45687598Y-11740941D01*
X45859655Y-11625977D01*
X46005977Y-11479655D01*
X46120941Y-11307598D01*
X46200130Y-11116420D01*
X46240500Y-10913465D01*
X46240500Y-10706535D01*
X46200130Y-10503580D01*
X46120941Y-10312402D01*
X46005977Y-10140345D01*
X46005975Y-10140342D01*
X45859657Y-9994024D01*
X45821273Y-9968377D01*
X45797514Y-9952502D01*
X45752709Y-9898891D01*
X45744002Y-9829566D01*
X45774156Y-9766538D01*
X45833599Y-9729818D01*
X45866405Y-9725400D01*
X47566702Y-9725400D01*
X47633741Y-9745085D01*
X47679496Y-9797889D01*
X47689440Y-9867047D01*
X47660415Y-9930603D01*
X47601637Y-9968377D01*
X47590893Y-9971017D01*
X47482071Y-9992663D01*
X47482063Y-9992665D01*
X47327372Y-10056740D01*
X47327371Y-10056740D01*
X47188160Y-10149758D01*
X47188152Y-10149764D01*
X47069764Y-10268152D01*
X47069758Y-10268160D01*
X46976740Y-10407371D01*
X46976740Y-10407372D01*
X46912665Y-10562063D01*
X46912663Y-10562071D01*
X46880000Y-10726277D01*
X46880000Y-10893722D01*
X46912663Y-11057928D01*
X46912665Y-11057936D01*
X46976740Y-11212627D01*
X46976740Y-11212628D01*
X47069758Y-11351839D01*
X47069764Y-11351847D01*
X47188152Y-11470235D01*
X47188160Y-11470241D01*
X47327371Y-11563259D01*
X47482063Y-11627334D01*
X47482071Y-11627336D01*
X47646277Y-11659999D01*
X47646280Y-11660000D01*
X47813720Y-11660000D01*
X47813722Y-11659999D01*
X47977928Y-11627336D01*
X47977936Y-11627334D01*
X48132627Y-11563259D01*
X48132628Y-11563259D01*
X48271839Y-11470241D01*
X48271847Y-11470235D01*
X48390235Y-11351847D01*
X48390241Y-11351839D01*
X48483259Y-11212628D01*
X48483259Y-11212627D01*
X48547334Y-11057936D01*
X48547336Y-11057928D01*
X48579999Y-10893722D01*
X48580000Y-10893720D01*
X48580000Y-10726279D01*
X48579999Y-10726277D01*
X48547336Y-10562071D01*
X48547334Y-10562063D01*
X48483259Y-10407372D01*
X48483259Y-10407371D01*
X48390241Y-10268160D01*
X48390235Y-10268152D01*
X48271847Y-10149764D01*
X48271839Y-10149758D01*
X48132628Y-10056740D01*
X47977936Y-9992665D01*
X47977928Y-9992663D01*
X47869107Y-9971017D01*
X47807196Y-9938632D01*
X47772622Y-9877917D01*
X47776361Y-9808147D01*
X47817228Y-9751475D01*
X47882246Y-9725894D01*
X47893298Y-9725400D01*
X49593595Y-9725400D01*
X49660634Y-9745085D01*
X49706389Y-9797889D01*
X49716333Y-9867047D01*
X49687308Y-9930603D01*
X49662486Y-9952501D01*
X49647211Y-9962707D01*
X49600342Y-9994024D01*
X49454024Y-10140342D01*
X49339058Y-10312403D01*
X49259870Y-10503579D01*
X49259868Y-10503587D01*
X49219500Y-10706530D01*
X49219500Y-10913469D01*
X49259868Y-11116412D01*
X49259870Y-11116420D01*
X49299448Y-11211969D01*
X49306917Y-11281438D01*
X49275642Y-11343918D01*
X49272568Y-11347103D01*
X48739537Y-11880135D01*
X48739535Y-11880138D01*
X48696683Y-11954358D01*
X48696682Y-11954360D01*
X48696682Y-11954361D01*
X48680284Y-12015561D01*
X48680283Y-12015560D01*
X48674500Y-12037142D01*
X48674500Y-12509505D01*
X48654815Y-12576544D01*
X48602011Y-12622299D01*
X48532853Y-12632243D01*
X48469297Y-12603218D01*
X48462819Y-12597186D01*
X48399657Y-12534024D01*
X48292321Y-12462305D01*
X48227598Y-12419059D01*
X48093595Y-12363553D01*
X48036420Y-12339870D01*
X48036412Y-12339868D01*
X47833469Y-12299500D01*
X47833465Y-12299500D01*
X47626535Y-12299500D01*
X47626530Y-12299500D01*
X47423587Y-12339868D01*
X47423579Y-12339870D01*
X47232403Y-12419058D01*
X47060342Y-12534024D01*
X46914024Y-12680342D01*
X46799058Y-12852403D01*
X46719870Y-13043579D01*
X46719868Y-13043587D01*
X46679500Y-13246530D01*
X46679500Y-13453469D01*
X46719868Y-13656412D01*
X46719870Y-13656420D01*
X46799058Y-13847596D01*
X46914024Y-14019657D01*
X47060342Y-14165975D01*
X47060345Y-14165977D01*
X47232402Y-14280941D01*
X47423580Y-14360130D01*
X47612187Y-14397646D01*
X47626530Y-14400499D01*
X47626534Y-14400500D01*
X47626535Y-14400500D01*
X47833466Y-14400500D01*
X47833467Y-14400499D01*
X48036420Y-14360130D01*
X48227598Y-14280941D01*
X48399655Y-14165977D01*
X48430219Y-14135413D01*
X48462819Y-14102814D01*
X48482255Y-14092201D01*
X48498989Y-14077701D01*
X48512320Y-14075784D01*
X48524142Y-14069329D01*
X48546228Y-14070908D01*
X48568147Y-14067757D01*
X48580398Y-14073352D01*
X48593834Y-14074313D01*
X48611560Y-14087583D01*
X48631703Y-14096782D01*
X48638985Y-14108113D01*
X48649767Y-14116185D01*
X48657504Y-14136930D01*
X48669477Y-14155560D01*
X48672628Y-14177478D01*
X48674184Y-14181649D01*
X48674500Y-14190495D01*
X48674500Y-14400211D01*
X48654815Y-14467250D01*
X48638181Y-14487892D01*
X38679135Y-24446937D01*
X38679131Y-24446943D01*
X38636279Y-24521163D01*
X38636280Y-24521164D01*
X38614098Y-24603949D01*
X38614098Y-28629066D01*
X38594413Y-28696105D01*
X38577779Y-28716747D01*
X36776737Y-30517788D01*
X36776733Y-30517794D01*
X36733881Y-30592015D01*
X36733880Y-30592016D01*
X36721039Y-30639945D01*
X36721039Y-30639946D01*
X36711700Y-30674799D01*
X36711700Y-41476324D01*
X36692015Y-41543363D01*
X36675381Y-41564005D01*
X36636702Y-41602683D01*
X36636700Y-41602686D01*
X36570808Y-41716812D01*
X36555083Y-41775500D01*
X36536700Y-41844108D01*
X36536700Y-41975892D01*
X36553754Y-42039539D01*
X36570808Y-42103187D01*
X36603754Y-42160250D01*
X36636700Y-42217314D01*
X36729886Y-42310500D01*
X36844014Y-42376392D01*
X36971308Y-42410500D01*
X36971310Y-42410500D01*
X37103090Y-42410500D01*
X37103092Y-42410500D01*
X37230386Y-42376392D01*
X37344514Y-42310500D01*
X37437700Y-42217314D01*
X37503592Y-42103186D01*
X37537700Y-41975892D01*
X37537700Y-41844108D01*
X37503592Y-41716814D01*
X37437700Y-41602686D01*
X37399019Y-41564005D01*
X37365534Y-41502682D01*
X37362700Y-41476324D01*
X37362700Y-30903842D01*
X37382385Y-30836803D01*
X37399019Y-30816161D01*
X39110819Y-29104361D01*
X39172142Y-29070876D01*
X39241834Y-29075860D01*
X39297767Y-29117732D01*
X39322184Y-29183196D01*
X39322500Y-29192042D01*
X39322500Y-42081252D01*
X39344682Y-42164040D01*
X39366108Y-42201150D01*
X39387535Y-42238262D01*
X39387537Y-42238264D01*
X40252781Y-43103508D01*
X40286266Y-43164831D01*
X40287515Y-43171424D01*
X40289100Y-43181240D01*
X40289100Y-43245892D01*
X40315364Y-43343913D01*
X40316369Y-43350135D01*
X40312753Y-43378785D01*
X40312066Y-43407656D01*
X40308432Y-43413024D01*
X40307621Y-43419455D01*
X40289093Y-43441599D01*
X40272904Y-43465519D01*
X40266944Y-43468071D01*
X40262785Y-43473042D01*
X40235223Y-43481654D01*
X40208675Y-43493023D01*
X40196525Y-43493746D01*
X40196096Y-43493881D01*
X40195771Y-43493791D01*
X40193954Y-43493900D01*
X37862789Y-43493900D01*
X37795750Y-43474215D01*
X37775108Y-43457581D01*
X37574019Y-43256492D01*
X37540534Y-43195169D01*
X37537700Y-43168811D01*
X37537700Y-43114110D01*
X37537700Y-43114108D01*
X37503592Y-42986814D01*
X37437700Y-42872686D01*
X37344514Y-42779500D01*
X37247537Y-42723510D01*
X37230387Y-42713608D01*
X37156252Y-42693744D01*
X37103092Y-42679500D01*
X36971308Y-42679500D01*
X36844012Y-42713608D01*
X36729886Y-42779500D01*
X36729883Y-42779502D01*
X36636702Y-42872683D01*
X36636700Y-42872686D01*
X36570808Y-42986812D01*
X36541361Y-43096713D01*
X36536700Y-43114108D01*
X36536700Y-43245892D01*
X36539353Y-43255792D01*
X36570808Y-43373187D01*
X36597521Y-43419455D01*
X36636700Y-43487314D01*
X36729886Y-43580500D01*
X36844014Y-43646392D01*
X36971308Y-43680500D01*
X37026011Y-43680500D01*
X37093050Y-43700185D01*
X37113692Y-43716819D01*
X37476738Y-44079865D01*
X37550961Y-44122718D01*
X37633747Y-44144900D01*
X37633749Y-44144900D01*
X41156351Y-44144900D01*
X41156353Y-44144900D01*
X41239139Y-44122718D01*
X41313362Y-44079865D01*
X41699751Y-43693474D01*
X41713639Y-43685456D01*
X41722902Y-43675270D01*
X41755338Y-43661382D01*
X41763219Y-43659271D01*
X41833067Y-43660940D01*
X41890926Y-43700108D01*
X41918424Y-43764339D01*
X41919300Y-43779049D01*
X41919300Y-47724424D01*
X41899615Y-47791463D01*
X41851631Y-47833040D01*
X41852153Y-47833944D01*
X41847467Y-47836649D01*
X41846811Y-47837218D01*
X41845473Y-47837800D01*
X41730986Y-47903900D01*
X41730983Y-47903902D01*
X41637802Y-47997083D01*
X41637800Y-47997086D01*
X41571908Y-48111212D01*
X41537800Y-48238508D01*
X41537800Y-48370291D01*
X41571908Y-48497587D01*
X41604854Y-48554650D01*
X41637800Y-48611714D01*
X41730986Y-48704900D01*
X41845114Y-48770792D01*
X41972408Y-48804900D01*
X41972410Y-48804900D01*
X42104189Y-48804900D01*
X42104192Y-48804900D01*
X42214911Y-48775233D01*
X42284756Y-48776896D01*
X42342618Y-48816058D01*
X42370123Y-48880286D01*
X42371000Y-48895008D01*
X42371000Y-50441205D01*
X42351315Y-50508244D01*
X42298511Y-50553999D01*
X42229353Y-50563943D01*
X42165797Y-50534918D01*
X42159319Y-50528886D01*
X42071657Y-50441224D01*
X41899596Y-50326257D01*
X41804047Y-50286680D01*
X41788481Y-50274136D01*
X41770297Y-50265832D01*
X41761832Y-50252661D01*
X41749644Y-50242839D01*
X41743331Y-50223871D01*
X41732523Y-50207054D01*
X41728560Y-50179493D01*
X41727579Y-50176545D01*
X41727500Y-50172119D01*
X41727500Y-50107974D01*
X41727501Y-50107961D01*
X41727501Y-50012267D01*
X41725165Y-50003549D01*
X41705318Y-49929480D01*
X41683891Y-49892369D01*
X41662465Y-49855257D01*
X41601862Y-49794654D01*
X41601859Y-49794652D01*
X38464599Y-46657392D01*
X35321819Y-43514611D01*
X35288334Y-43453288D01*
X35285500Y-43426930D01*
X35285500Y-22280444D01*
X35599500Y-22280444D01*
X35599500Y-22438137D01*
X35630261Y-22592780D01*
X35630264Y-22592792D01*
X35690602Y-22738463D01*
X35690609Y-22738476D01*
X35769412Y-22856411D01*
X35775322Y-22865257D01*
X35778602Y-22870165D01*
X35799480Y-22936842D01*
X35799500Y-22939056D01*
X35799500Y-27700234D01*
X35779815Y-27767273D01*
X35778602Y-27769125D01*
X35690609Y-27900814D01*
X35690602Y-27900827D01*
X35630264Y-28046498D01*
X35630261Y-28046510D01*
X35599500Y-28201153D01*
X35599500Y-28358846D01*
X35630261Y-28513489D01*
X35630264Y-28513501D01*
X35690602Y-28659172D01*
X35690609Y-28659185D01*
X35778210Y-28790288D01*
X35778213Y-28790292D01*
X35889707Y-28901786D01*
X35889711Y-28901789D01*
X36020814Y-28989390D01*
X36020827Y-28989397D01*
X36082922Y-29015117D01*
X36166503Y-29049737D01*
X36321153Y-29080499D01*
X36321156Y-29080500D01*
X36321158Y-29080500D01*
X36478844Y-29080500D01*
X36478845Y-29080499D01*
X36633497Y-29049737D01*
X36779179Y-28989394D01*
X36910289Y-28901789D01*
X37021789Y-28790289D01*
X37109394Y-28659179D01*
X37169737Y-28513497D01*
X37200500Y-28358842D01*
X37200500Y-28201158D01*
X37200500Y-28201155D01*
X37200499Y-28201153D01*
X37182978Y-28113070D01*
X37169737Y-28046503D01*
X37161455Y-28026508D01*
X37109397Y-27900827D01*
X37109390Y-27900814D01*
X37021398Y-27769125D01*
X37000520Y-27702447D01*
X37000500Y-27700234D01*
X37000500Y-22939056D01*
X37020185Y-22872017D01*
X37021398Y-22870165D01*
X37024678Y-22865257D01*
X37109394Y-22738470D01*
X37169737Y-22592788D01*
X37200500Y-22438133D01*
X37200500Y-22280449D01*
X37200500Y-22280446D01*
X37200499Y-22280444D01*
X37169738Y-22125801D01*
X37169737Y-22125794D01*
X37169735Y-22125789D01*
X37109397Y-21980118D01*
X37109390Y-21980105D01*
X37021789Y-21849002D01*
X37021786Y-21848998D01*
X36910292Y-21737504D01*
X36910288Y-21737501D01*
X36779185Y-21649900D01*
X36779172Y-21649893D01*
X36633501Y-21589555D01*
X36633489Y-21589552D01*
X36478845Y-21558791D01*
X36478842Y-21558791D01*
X36321158Y-21558791D01*
X36321155Y-21558791D01*
X36166510Y-21589552D01*
X36166498Y-21589555D01*
X36020827Y-21649893D01*
X36020814Y-21649900D01*
X35889711Y-21737501D01*
X35889707Y-21737504D01*
X35778213Y-21848998D01*
X35778210Y-21849002D01*
X35690609Y-21980105D01*
X35690602Y-21980118D01*
X35630264Y-22125789D01*
X35630261Y-22125801D01*
X35599500Y-22280444D01*
X35285500Y-22280444D01*
X35285500Y-12695730D01*
X39059500Y-12695730D01*
X39059500Y-14004269D01*
X39062353Y-14034699D01*
X39062353Y-14034701D01*
X39105492Y-14157982D01*
X39107207Y-14162882D01*
X39187850Y-14272150D01*
X39297118Y-14352793D01*
X39318089Y-14360131D01*
X39425299Y-14397646D01*
X39455730Y-14400500D01*
X39455734Y-14400500D01*
X40764270Y-14400500D01*
X40794699Y-14397646D01*
X40794701Y-14397646D01*
X40858790Y-14375219D01*
X40922882Y-14352793D01*
X41032150Y-14272150D01*
X41112793Y-14162882D01*
X41141495Y-14080857D01*
X41157646Y-14034701D01*
X41157646Y-14034699D01*
X41160500Y-14004269D01*
X41160500Y-13246530D01*
X41599500Y-13246530D01*
X41599500Y-13453469D01*
X41639868Y-13656412D01*
X41639870Y-13656420D01*
X41719058Y-13847596D01*
X41834024Y-14019657D01*
X41980342Y-14165975D01*
X41980345Y-14165977D01*
X42152402Y-14280941D01*
X42343580Y-14360130D01*
X42532187Y-14397646D01*
X42546530Y-14400499D01*
X42546534Y-14400500D01*
X42546535Y-14400500D01*
X42753466Y-14400500D01*
X42753467Y-14400499D01*
X42956420Y-14360130D01*
X43147598Y-14280941D01*
X43319655Y-14165977D01*
X43465977Y-14019655D01*
X43580941Y-13847598D01*
X43660130Y-13656420D01*
X43700500Y-13453465D01*
X43700500Y-13246535D01*
X43700499Y-13246530D01*
X44139500Y-13246530D01*
X44139500Y-13453469D01*
X44179868Y-13656412D01*
X44179870Y-13656420D01*
X44259058Y-13847596D01*
X44374024Y-14019657D01*
X44520342Y-14165975D01*
X44520345Y-14165977D01*
X44692402Y-14280941D01*
X44883580Y-14360130D01*
X45072187Y-14397646D01*
X45086530Y-14400499D01*
X45086534Y-14400500D01*
X45086535Y-14400500D01*
X45293466Y-14400500D01*
X45293467Y-14400499D01*
X45496420Y-14360130D01*
X45687598Y-14280941D01*
X45859655Y-14165977D01*
X46005977Y-14019655D01*
X46120941Y-13847598D01*
X46200130Y-13656420D01*
X46240500Y-13453465D01*
X46240500Y-13246535D01*
X46200130Y-13043580D01*
X46120941Y-12852402D01*
X46005977Y-12680345D01*
X46005975Y-12680342D01*
X45859657Y-12534024D01*
X45752321Y-12462305D01*
X45687598Y-12419059D01*
X45553595Y-12363553D01*
X45496420Y-12339870D01*
X45496412Y-12339868D01*
X45293469Y-12299500D01*
X45293465Y-12299500D01*
X45086535Y-12299500D01*
X45086530Y-12299500D01*
X44883587Y-12339868D01*
X44883579Y-12339870D01*
X44692403Y-12419058D01*
X44520342Y-12534024D01*
X44374024Y-12680342D01*
X44259058Y-12852403D01*
X44179870Y-13043579D01*
X44179868Y-13043587D01*
X44139500Y-13246530D01*
X43700499Y-13246530D01*
X43660130Y-13043580D01*
X43580941Y-12852402D01*
X43465977Y-12680345D01*
X43465975Y-12680342D01*
X43319657Y-12534024D01*
X43212321Y-12462305D01*
X43147598Y-12419059D01*
X43013595Y-12363553D01*
X42956420Y-12339870D01*
X42956412Y-12339868D01*
X42753469Y-12299500D01*
X42753465Y-12299500D01*
X42546535Y-12299500D01*
X42546530Y-12299500D01*
X42343587Y-12339868D01*
X42343579Y-12339870D01*
X42152403Y-12419058D01*
X41980342Y-12534024D01*
X41834024Y-12680342D01*
X41719058Y-12852403D01*
X41639870Y-13043579D01*
X41639868Y-13043587D01*
X41599500Y-13246530D01*
X41160500Y-13246530D01*
X41160500Y-12695730D01*
X41157646Y-12665300D01*
X41157646Y-12665298D01*
X41119406Y-12556018D01*
X41112793Y-12537118D01*
X41032150Y-12427850D01*
X40922882Y-12347207D01*
X40922880Y-12347206D01*
X40794700Y-12302353D01*
X40764270Y-12299500D01*
X40764266Y-12299500D01*
X39455734Y-12299500D01*
X39455730Y-12299500D01*
X39425300Y-12302353D01*
X39425298Y-12302353D01*
X39297119Y-12347206D01*
X39297117Y-12347207D01*
X39187850Y-12427850D01*
X39107207Y-12537117D01*
X39107206Y-12537119D01*
X39062353Y-12665298D01*
X39062353Y-12665300D01*
X39059500Y-12695730D01*
X35285500Y-12695730D01*
X35285500Y-10706530D01*
X39059500Y-10706530D01*
X39059500Y-10913469D01*
X39099868Y-11116412D01*
X39099870Y-11116420D01*
X39177564Y-11303990D01*
X39179059Y-11307598D01*
X39219950Y-11368796D01*
X39294024Y-11479657D01*
X39440342Y-11625975D01*
X39440345Y-11625977D01*
X39612402Y-11740941D01*
X39803580Y-11820130D01*
X40006530Y-11860499D01*
X40006534Y-11860500D01*
X40006535Y-11860500D01*
X40213466Y-11860500D01*
X40213467Y-11860499D01*
X40416420Y-11820130D01*
X40607598Y-11740941D01*
X40779655Y-11625977D01*
X40925977Y-11479655D01*
X41040941Y-11307598D01*
X41120130Y-11116420D01*
X41160500Y-10913465D01*
X41160500Y-10726277D01*
X41800000Y-10726277D01*
X41800000Y-10893722D01*
X41832663Y-11057928D01*
X41832665Y-11057936D01*
X41896740Y-11212627D01*
X41896740Y-11212628D01*
X41989758Y-11351839D01*
X41989764Y-11351847D01*
X42108152Y-11470235D01*
X42108160Y-11470241D01*
X42247371Y-11563259D01*
X42402063Y-11627334D01*
X42402071Y-11627336D01*
X42566277Y-11659999D01*
X42566280Y-11660000D01*
X42733720Y-11660000D01*
X42733722Y-11659999D01*
X42897928Y-11627336D01*
X42897936Y-11627334D01*
X43052627Y-11563259D01*
X43052628Y-11563259D01*
X43191839Y-11470241D01*
X43191847Y-11470235D01*
X43310235Y-11351847D01*
X43310241Y-11351839D01*
X43403259Y-11212628D01*
X43403259Y-11212627D01*
X43467334Y-11057936D01*
X43467336Y-11057928D01*
X43499999Y-10893722D01*
X43500000Y-10893720D01*
X43500000Y-10726279D01*
X43499999Y-10726277D01*
X43467336Y-10562071D01*
X43467334Y-10562063D01*
X43403259Y-10407372D01*
X43403259Y-10407371D01*
X43310241Y-10268160D01*
X43310235Y-10268152D01*
X43191847Y-10149764D01*
X43191839Y-10149758D01*
X43052628Y-10056740D01*
X42897936Y-9992665D01*
X42897928Y-9992663D01*
X42733721Y-9960000D01*
X42566279Y-9960000D01*
X42402071Y-9992663D01*
X42402063Y-9992665D01*
X42247372Y-10056740D01*
X42247371Y-10056740D01*
X42108160Y-10149758D01*
X42108152Y-10149764D01*
X41989764Y-10268152D01*
X41989758Y-10268160D01*
X41896740Y-10407371D01*
X41896740Y-10407372D01*
X41832665Y-10562063D01*
X41832663Y-10562071D01*
X41800000Y-10726277D01*
X41160500Y-10726277D01*
X41160500Y-10706535D01*
X41120130Y-10503580D01*
X41040941Y-10312402D01*
X40925977Y-10140345D01*
X40925975Y-10140342D01*
X40779657Y-9994024D01*
X40608337Y-9879553D01*
X40607598Y-9879059D01*
X40575846Y-9865907D01*
X40416420Y-9799870D01*
X40416412Y-9799868D01*
X40213469Y-9759500D01*
X40213465Y-9759500D01*
X40006535Y-9759500D01*
X40006530Y-9759500D01*
X39803587Y-9799868D01*
X39803579Y-9799870D01*
X39612403Y-9879058D01*
X39440342Y-9994024D01*
X39294024Y-10140342D01*
X39179058Y-10312403D01*
X39099870Y-10503579D01*
X39099868Y-10503587D01*
X39059500Y-10706530D01*
X35285500Y-10706530D01*
X35285500Y-4605377D01*
X35305185Y-4538338D01*
X35357989Y-4492583D01*
X35427147Y-4482639D01*
X35456950Y-4490815D01*
X35503580Y-4510130D01*
X35648052Y-4538867D01*
X35706530Y-4550499D01*
X35706534Y-4550500D01*
X35706535Y-4550500D01*
X35913466Y-4550500D01*
X35913467Y-4550499D01*
X36116420Y-4510130D01*
X36307598Y-4430941D01*
X36479655Y-4315977D01*
X36625977Y-4169655D01*
X36740941Y-3997598D01*
X36820130Y-3806420D01*
X36860500Y-3603465D01*
X36860500Y-3396535D01*
X36820130Y-3193580D01*
X36740941Y-3002402D01*
X36625977Y-2830345D01*
X36625975Y-2830342D01*
X36479657Y-2684024D01*
X36393626Y-2626541D01*
X36307598Y-2569059D01*
X36288516Y-2561155D01*
X36116420Y-2489870D01*
X36116412Y-2489868D01*
X35913469Y-2449500D01*
X35913465Y-2449500D01*
X35706535Y-2449500D01*
X35706530Y-2449500D01*
X35503587Y-2489868D01*
X35503579Y-2489870D01*
X35312403Y-2569058D01*
X35140342Y-2684024D01*
X34994024Y-2830342D01*
X34879058Y-3002403D01*
X34799870Y-3193579D01*
X34799868Y-3193587D01*
X34759500Y-3396530D01*
X34759500Y-3603469D01*
X34799868Y-3806412D01*
X34799871Y-3806424D01*
X34839448Y-3901971D01*
X34846917Y-3971440D01*
X34815642Y-4033919D01*
X34812587Y-4037085D01*
X34767187Y-4082486D01*
X34699534Y-4150139D01*
X34699533Y-4150141D01*
X34656681Y-4224361D01*
X34656682Y-4224362D01*
X34634500Y-4307147D01*
X34634500Y-43655971D01*
X34656682Y-43738759D01*
X34676501Y-43773086D01*
X34699535Y-43812981D01*
X37886700Y-47000146D01*
X40991257Y-50104702D01*
X41024742Y-50166025D01*
X41019758Y-50235717D01*
X40977886Y-50291650D01*
X40951031Y-50306943D01*
X40904405Y-50326257D01*
X40732342Y-50441224D01*
X40586024Y-50587542D01*
X40471058Y-50759603D01*
X40391870Y-50950779D01*
X40391868Y-50950787D01*
X40351500Y-51153730D01*
X40351500Y-51360669D01*
X40391868Y-51563612D01*
X40391870Y-51563620D01*
X40461140Y-51730853D01*
X40471059Y-51754798D01*
X40500625Y-51799047D01*
X40586024Y-51926857D01*
X40732342Y-52073175D01*
X40732345Y-52073177D01*
X40904402Y-52188141D01*
X41095580Y-52267330D01*
X41240052Y-52296067D01*
X41298530Y-52307699D01*
X41298534Y-52307700D01*
X41298535Y-52307700D01*
X41505466Y-52307700D01*
X41505467Y-52307699D01*
X41708420Y-52267330D01*
X41899598Y-52188141D01*
X42071655Y-52073177D01*
X42114176Y-52030656D01*
X42159319Y-51985514D01*
X42220642Y-51952029D01*
X42290334Y-51957013D01*
X42346267Y-51998885D01*
X42370684Y-52064349D01*
X42371000Y-52073195D01*
X42371000Y-53308678D01*
X42351315Y-53375717D01*
X42298511Y-53421472D01*
X42229353Y-53431416D01*
X42165797Y-53402391D01*
X42143898Y-53377568D01*
X42062241Y-53255360D01*
X42062235Y-53255352D01*
X41943847Y-53136964D01*
X41943839Y-53136958D01*
X41804628Y-53043940D01*
X41649936Y-52979865D01*
X41649928Y-52979863D01*
X41485721Y-52947200D01*
X41318279Y-52947200D01*
X41154071Y-52979863D01*
X41154063Y-52979865D01*
X40999372Y-53043940D01*
X40999371Y-53043940D01*
X40860160Y-53136958D01*
X40860152Y-53136964D01*
X40741764Y-53255352D01*
X40741758Y-53255360D01*
X40648740Y-53394571D01*
X40648740Y-53394572D01*
X40584665Y-53549263D01*
X40584663Y-53549271D01*
X40552000Y-53713477D01*
X40552000Y-53880922D01*
X40584663Y-54045128D01*
X40584665Y-54045136D01*
X40648740Y-54199827D01*
X40648740Y-54199828D01*
X40741758Y-54339039D01*
X40741764Y-54339047D01*
X40860152Y-54457435D01*
X40860160Y-54457441D01*
X40999371Y-54550459D01*
X41154063Y-54614534D01*
X41154071Y-54614536D01*
X41318277Y-54647199D01*
X41318280Y-54647200D01*
X41485720Y-54647200D01*
X41485722Y-54647199D01*
X41649928Y-54614536D01*
X41649936Y-54614534D01*
X41804627Y-54550459D01*
X41804628Y-54550459D01*
X41943839Y-54457441D01*
X41943847Y-54457435D01*
X42062236Y-54339046D01*
X42143897Y-54216831D01*
X42197509Y-54172025D01*
X42266834Y-54163318D01*
X42329862Y-54193472D01*
X42366582Y-54252915D01*
X42371000Y-54285721D01*
X42371000Y-54307253D01*
X42378248Y-54334303D01*
X42393182Y-54390040D01*
X42408347Y-54416306D01*
X42436035Y-54464262D01*
X42436037Y-54464264D01*
X43259592Y-55287819D01*
X43293077Y-55349142D01*
X43288093Y-55418834D01*
X43246221Y-55474767D01*
X43180757Y-55499184D01*
X43171911Y-55499500D01*
X29428519Y-55499500D01*
X29361480Y-55479815D01*
X29315725Y-55427011D01*
X29305781Y-55357853D01*
X29334806Y-55294297D01*
X29353033Y-55277123D01*
X29353750Y-55276571D01*
X29353762Y-55276565D01*
X30214021Y-54416304D01*
X30275342Y-54382821D01*
X30345033Y-54387805D01*
X30400967Y-54429676D01*
X30404801Y-54435095D01*
X30426022Y-54466854D01*
X30426027Y-54466860D01*
X30572342Y-54613175D01*
X30572345Y-54613177D01*
X30744402Y-54728141D01*
X30935580Y-54807330D01*
X31138530Y-54847699D01*
X31138534Y-54847700D01*
X31138535Y-54847700D01*
X31345466Y-54847700D01*
X31345467Y-54847699D01*
X31548420Y-54807330D01*
X31739598Y-54728141D01*
X31911655Y-54613177D01*
X32057977Y-54466855D01*
X32172941Y-54294798D01*
X32252130Y-54103620D01*
X32292500Y-53900665D01*
X32292500Y-53713477D01*
X32932000Y-53713477D01*
X32932000Y-53880922D01*
X32964663Y-54045128D01*
X32964665Y-54045136D01*
X33028740Y-54199827D01*
X33028740Y-54199828D01*
X33121758Y-54339039D01*
X33121764Y-54339047D01*
X33240152Y-54457435D01*
X33240160Y-54457441D01*
X33379371Y-54550459D01*
X33534063Y-54614534D01*
X33534071Y-54614536D01*
X33698277Y-54647199D01*
X33698280Y-54647200D01*
X33865720Y-54647200D01*
X33865722Y-54647199D01*
X34029928Y-54614536D01*
X34029936Y-54614534D01*
X34184627Y-54550459D01*
X34184628Y-54550459D01*
X34323839Y-54457441D01*
X34323847Y-54457435D01*
X34442235Y-54339047D01*
X34442241Y-54339039D01*
X34535259Y-54199828D01*
X34535259Y-54199827D01*
X34599334Y-54045136D01*
X34599336Y-54045128D01*
X34631999Y-53880922D01*
X34632000Y-53880920D01*
X34632000Y-53713482D01*
X34631672Y-53711833D01*
X34631672Y-53711830D01*
X34628072Y-53693730D01*
X35271500Y-53693730D01*
X35271500Y-53900669D01*
X35311868Y-54103612D01*
X35311870Y-54103620D01*
X35377939Y-54263125D01*
X35391059Y-54294798D01*
X35420625Y-54339047D01*
X35506024Y-54466857D01*
X35652342Y-54613175D01*
X35652345Y-54613177D01*
X35824402Y-54728141D01*
X36015580Y-54807330D01*
X36218530Y-54847699D01*
X36218534Y-54847700D01*
X36218535Y-54847700D01*
X36425466Y-54847700D01*
X36425467Y-54847699D01*
X36628420Y-54807330D01*
X36819598Y-54728141D01*
X36991655Y-54613177D01*
X37137977Y-54466855D01*
X37252941Y-54294798D01*
X37332130Y-54103620D01*
X37372500Y-53900665D01*
X37372500Y-53693735D01*
X37372499Y-53693730D01*
X37811500Y-53693730D01*
X37811500Y-53900669D01*
X37851868Y-54103612D01*
X37851870Y-54103620D01*
X37917939Y-54263125D01*
X37931059Y-54294798D01*
X37960625Y-54339047D01*
X38046024Y-54466857D01*
X38192342Y-54613175D01*
X38192345Y-54613177D01*
X38364402Y-54728141D01*
X38555580Y-54807330D01*
X38758530Y-54847699D01*
X38758534Y-54847700D01*
X38758535Y-54847700D01*
X38965466Y-54847700D01*
X38965467Y-54847699D01*
X39168420Y-54807330D01*
X39359598Y-54728141D01*
X39531655Y-54613177D01*
X39677977Y-54466855D01*
X39792941Y-54294798D01*
X39872130Y-54103620D01*
X39912500Y-53900665D01*
X39912500Y-53693735D01*
X39872130Y-53490780D01*
X39792941Y-53299602D01*
X39677977Y-53127545D01*
X39677975Y-53127542D01*
X39531657Y-52981224D01*
X39433501Y-52915639D01*
X39359598Y-52866259D01*
X39340516Y-52858355D01*
X39168420Y-52787070D01*
X39168412Y-52787068D01*
X38965469Y-52746700D01*
X38965465Y-52746700D01*
X38758535Y-52746700D01*
X38758530Y-52746700D01*
X38555587Y-52787068D01*
X38555579Y-52787070D01*
X38364403Y-52866258D01*
X38192342Y-52981224D01*
X38046024Y-53127542D01*
X37931058Y-53299603D01*
X37851870Y-53490779D01*
X37851868Y-53490787D01*
X37811500Y-53693730D01*
X37372499Y-53693730D01*
X37332130Y-53490780D01*
X37252941Y-53299602D01*
X37137977Y-53127545D01*
X37137975Y-53127542D01*
X36991657Y-52981224D01*
X36893501Y-52915639D01*
X36819598Y-52866259D01*
X36800516Y-52858355D01*
X36628420Y-52787070D01*
X36628412Y-52787068D01*
X36425469Y-52746700D01*
X36425465Y-52746700D01*
X36218535Y-52746700D01*
X36218530Y-52746700D01*
X36015587Y-52787068D01*
X36015579Y-52787070D01*
X35824403Y-52866258D01*
X35652342Y-52981224D01*
X35506024Y-53127542D01*
X35391058Y-53299603D01*
X35311870Y-53490779D01*
X35311868Y-53490787D01*
X35271500Y-53693730D01*
X34628072Y-53693730D01*
X34599336Y-53549271D01*
X34599334Y-53549263D01*
X34535259Y-53394572D01*
X34535259Y-53394571D01*
X34442241Y-53255360D01*
X34442235Y-53255352D01*
X34323847Y-53136964D01*
X34323839Y-53136958D01*
X34184628Y-53043940D01*
X34029936Y-52979865D01*
X34029928Y-52979863D01*
X33865721Y-52947200D01*
X33698279Y-52947200D01*
X33534071Y-52979863D01*
X33534063Y-52979865D01*
X33379372Y-53043940D01*
X33379371Y-53043940D01*
X33240160Y-53136958D01*
X33240152Y-53136964D01*
X33121764Y-53255352D01*
X33121758Y-53255360D01*
X33028740Y-53394571D01*
X33028740Y-53394572D01*
X32964665Y-53549263D01*
X32964663Y-53549271D01*
X32932000Y-53713477D01*
X32292500Y-53713477D01*
X32292500Y-53693735D01*
X32252130Y-53490780D01*
X32172941Y-53299602D01*
X32057977Y-53127545D01*
X32057975Y-53127542D01*
X31911658Y-52981225D01*
X31911654Y-52981222D01*
X31875945Y-52957362D01*
X31831140Y-52903750D01*
X31822433Y-52834425D01*
X31852587Y-52771397D01*
X31882832Y-52746875D01*
X31903462Y-52734965D01*
X32657159Y-51981266D01*
X32657162Y-51981265D01*
X32717765Y-51920662D01*
X32737168Y-51887053D01*
X32744959Y-51878078D01*
X32764759Y-51865375D01*
X32781782Y-51849144D01*
X32793619Y-51846862D01*
X32803767Y-51840352D01*
X32827290Y-51840370D01*
X32850388Y-51835918D01*
X32861580Y-51840398D01*
X32873637Y-51840408D01*
X32893417Y-51853142D01*
X32915254Y-51861884D01*
X32927431Y-51875040D01*
X32932385Y-51878230D01*
X32934326Y-51882490D01*
X32941708Y-51890466D01*
X32966022Y-51926854D01*
X32966025Y-51926858D01*
X33112342Y-52073175D01*
X33112345Y-52073177D01*
X33284402Y-52188141D01*
X33475580Y-52267330D01*
X33620052Y-52296067D01*
X33678530Y-52307699D01*
X33678534Y-52307700D01*
X33678535Y-52307700D01*
X33885466Y-52307700D01*
X33885467Y-52307699D01*
X34088420Y-52267330D01*
X34279598Y-52188141D01*
X34451655Y-52073177D01*
X34597977Y-51926855D01*
X34712941Y-51754798D01*
X34792130Y-51563620D01*
X34832500Y-51360665D01*
X34832500Y-51153735D01*
X34832499Y-51153730D01*
X35271500Y-51153730D01*
X35271500Y-51360669D01*
X35311868Y-51563612D01*
X35311870Y-51563620D01*
X35381140Y-51730853D01*
X35391059Y-51754798D01*
X35420625Y-51799047D01*
X35506024Y-51926857D01*
X35652342Y-52073175D01*
X35652345Y-52073177D01*
X35824402Y-52188141D01*
X36015580Y-52267330D01*
X36160052Y-52296067D01*
X36218530Y-52307699D01*
X36218534Y-52307700D01*
X36218535Y-52307700D01*
X36425466Y-52307700D01*
X36425467Y-52307699D01*
X36628420Y-52267330D01*
X36819598Y-52188141D01*
X36991655Y-52073177D01*
X37137977Y-51926855D01*
X37252941Y-51754798D01*
X37332130Y-51563620D01*
X37372500Y-51360665D01*
X37372500Y-51153735D01*
X37332130Y-50950780D01*
X37252941Y-50759602D01*
X37137977Y-50587545D01*
X37137975Y-50587542D01*
X36991657Y-50441224D01*
X36867316Y-50358143D01*
X36819598Y-50326259D01*
X36819593Y-50326257D01*
X36628420Y-50247070D01*
X36628412Y-50247068D01*
X36425469Y-50206700D01*
X36425465Y-50206700D01*
X36218535Y-50206700D01*
X36218530Y-50206700D01*
X36015587Y-50247068D01*
X36015579Y-50247070D01*
X35824403Y-50326258D01*
X35652342Y-50441224D01*
X35506024Y-50587542D01*
X35391058Y-50759603D01*
X35311870Y-50950779D01*
X35311868Y-50950787D01*
X35271500Y-51153730D01*
X34832499Y-51153730D01*
X34792130Y-50950780D01*
X34712941Y-50759602D01*
X34597977Y-50587545D01*
X34597975Y-50587542D01*
X34451657Y-50441224D01*
X34327316Y-50358143D01*
X34279598Y-50326259D01*
X34279593Y-50326257D01*
X34088420Y-50247070D01*
X34088412Y-50247068D01*
X33885469Y-50206700D01*
X33885465Y-50206700D01*
X33678535Y-50206700D01*
X33678530Y-50206700D01*
X33475587Y-50247067D01*
X33475583Y-50247069D01*
X33475581Y-50247069D01*
X33475580Y-50247070D01*
X33444924Y-50259768D01*
X33380026Y-50286649D01*
X33310557Y-50294117D01*
X33248078Y-50262841D01*
X33244894Y-50259768D01*
X32024941Y-49039815D01*
X30801819Y-47816692D01*
X30787115Y-47789764D01*
X30770523Y-47763946D01*
X30769631Y-47757745D01*
X30768334Y-47755369D01*
X30765500Y-47729011D01*
X30765500Y-47531594D01*
X30785185Y-47464555D01*
X30801819Y-47443913D01*
X30862172Y-47383560D01*
X30969165Y-47276567D01*
X31012018Y-47202344D01*
X31034200Y-47119558D01*
X31034200Y-47033852D01*
X31034200Y-44137756D01*
X31053885Y-44070717D01*
X31106689Y-44024962D01*
X31175847Y-44015018D01*
X31239403Y-44044043D01*
X31271604Y-44094150D01*
X31273574Y-44093335D01*
X31276681Y-44100838D01*
X31292488Y-44128216D01*
X31319535Y-44175062D01*
X31319537Y-44175064D01*
X37864568Y-50720095D01*
X37898053Y-50781418D01*
X37893069Y-50851110D01*
X37891448Y-50855228D01*
X37851871Y-50950775D01*
X37851868Y-50950787D01*
X37811500Y-51153730D01*
X37811500Y-51360669D01*
X37851868Y-51563612D01*
X37851870Y-51563620D01*
X37921140Y-51730853D01*
X37931059Y-51754798D01*
X37960625Y-51799047D01*
X38046024Y-51926857D01*
X38192342Y-52073175D01*
X38192345Y-52073177D01*
X38364402Y-52188141D01*
X38555580Y-52267330D01*
X38700052Y-52296067D01*
X38758530Y-52307699D01*
X38758534Y-52307700D01*
X38758535Y-52307700D01*
X38965466Y-52307700D01*
X38965467Y-52307699D01*
X39168420Y-52267330D01*
X39359598Y-52188141D01*
X39531655Y-52073177D01*
X39677977Y-51926855D01*
X39792941Y-51754798D01*
X39872130Y-51563620D01*
X39912500Y-51360665D01*
X39912500Y-51153735D01*
X39872130Y-50950780D01*
X39792941Y-50759602D01*
X39677977Y-50587545D01*
X39677975Y-50587542D01*
X39531657Y-50441224D01*
X39407316Y-50358143D01*
X39359598Y-50326259D01*
X39359593Y-50326257D01*
X39168420Y-50247070D01*
X39168412Y-50247068D01*
X38965469Y-50206700D01*
X38965465Y-50206700D01*
X38758535Y-50206700D01*
X38758530Y-50206700D01*
X38555587Y-50247068D01*
X38555575Y-50247071D01*
X38460028Y-50286648D01*
X38390559Y-50294117D01*
X38328080Y-50262841D01*
X38324895Y-50259768D01*
X31941819Y-43876692D01*
X31908334Y-43815369D01*
X31905500Y-43789011D01*
X31905500Y-35180876D01*
X31925185Y-35113837D01*
X31941819Y-35093195D01*
X31950900Y-35084114D01*
X31980500Y-35054514D01*
X32046392Y-34940386D01*
X32080500Y-34813092D01*
X32080500Y-34681308D01*
X32046392Y-34554014D01*
X32044014Y-34549896D01*
X32013066Y-34496292D01*
X31980500Y-34439886D01*
X31887314Y-34346700D01*
X31816506Y-34305819D01*
X31773187Y-34280808D01*
X31673192Y-34254015D01*
X31645892Y-34246700D01*
X31514108Y-34246700D01*
X31386812Y-34280808D01*
X31272686Y-34346700D01*
X31272683Y-34346702D01*
X31179502Y-34439883D01*
X31179500Y-34439886D01*
X31113608Y-34554012D01*
X31079500Y-34681308D01*
X31079500Y-34706494D01*
X31059815Y-34773533D01*
X31007011Y-34819288D01*
X30937853Y-34829232D01*
X30874297Y-34800207D01*
X30847778Y-34763431D01*
X30846356Y-34764253D01*
X30815556Y-34710906D01*
X30776400Y-34643086D01*
X30683214Y-34549900D01*
X30683213Y-34549899D01*
X30683210Y-34549896D01*
X30676769Y-34544954D01*
X30678284Y-34542979D01*
X30642540Y-34507234D01*
X30636365Y-34496538D01*
X30575762Y-34435935D01*
X30575759Y-34435933D01*
X30575755Y-34435930D01*
X30501544Y-34393085D01*
X30501540Y-34393083D01*
X30501538Y-34393082D01*
X30418753Y-34370900D01*
X30333047Y-34370900D01*
X30250262Y-34393082D01*
X30250255Y-34393085D01*
X30176044Y-34435930D01*
X30176040Y-34435933D01*
X30115434Y-34496538D01*
X30109256Y-34507239D01*
X30073518Y-34542980D01*
X30075032Y-34544953D01*
X30068589Y-34549896D01*
X29975400Y-34643086D01*
X29909508Y-34757212D01*
X29879851Y-34867896D01*
X29875400Y-34884508D01*
X29875400Y-35016292D01*
X29885642Y-35054516D01*
X29909508Y-35143587D01*
X29922853Y-35166700D01*
X29975400Y-35257714D01*
X29975402Y-35257716D01*
X30014081Y-35296395D01*
X30047566Y-35357718D01*
X30050400Y-35384076D01*
X30050400Y-36105860D01*
X30030715Y-36172899D01*
X29977911Y-36218654D01*
X29908753Y-36228598D01*
X29894312Y-36225636D01*
X29771392Y-36192700D01*
X29639608Y-36192700D01*
X29512312Y-36226808D01*
X29398186Y-36292700D01*
X29398183Y-36292702D01*
X29305002Y-36385883D01*
X29305000Y-36385886D01*
X29239108Y-36500012D01*
X29205000Y-36627308D01*
X29205000Y-36682011D01*
X29185315Y-36749050D01*
X29168681Y-36769692D01*
X28861937Y-37076435D01*
X28861935Y-37076438D01*
X28819082Y-37150659D01*
X28816689Y-37159592D01*
X28809248Y-37187362D01*
X28809248Y-37187363D01*
X28809247Y-37187362D01*
X28796900Y-37233443D01*
X28796900Y-37904048D01*
X28819082Y-37986836D01*
X28830724Y-38007000D01*
X28861935Y-38061058D01*
X28861937Y-38061060D01*
X29405399Y-38604522D01*
X29438884Y-38665845D01*
X29433900Y-38735537D01*
X29392028Y-38791470D01*
X29379720Y-38799589D01*
X29276389Y-38859249D01*
X29276383Y-38859253D01*
X29183202Y-38952434D01*
X29183200Y-38952437D01*
X29117308Y-39066563D01*
X29083200Y-39193859D01*
X29083200Y-39248562D01*
X29063515Y-39315601D01*
X29046881Y-39336243D01*
X28418185Y-39964938D01*
X28418181Y-39964944D01*
X28375329Y-40039164D01*
X28375330Y-40039165D01*
X28353148Y-40121950D01*
X28353148Y-43890758D01*
X28346910Y-43912001D01*
X28345331Y-43934089D01*
X28337257Y-43944874D01*
X28333463Y-43957797D01*
X28316731Y-43972294D01*
X28303461Y-43990023D01*
X28290838Y-43994731D01*
X28280659Y-44003552D01*
X28258743Y-44006703D01*
X28237997Y-44014442D01*
X28224834Y-44011578D01*
X28211501Y-44013496D01*
X28191358Y-44004297D01*
X28169723Y-43999591D01*
X28151996Y-43986321D01*
X28147945Y-43984471D01*
X28141469Y-43978441D01*
X28107901Y-43944874D01*
X28099862Y-43936835D01*
X28099859Y-43936833D01*
X18855062Y-34692035D01*
X18780839Y-34649182D01*
X18767927Y-34645722D01*
X18754041Y-34637704D01*
X18740597Y-34634780D01*
X18712343Y-34613629D01*
X18702145Y-34603431D01*
X18668660Y-34542108D01*
X18673644Y-34472416D01*
X18702144Y-34428070D01*
X18707246Y-34422967D01*
X18758698Y-34371514D01*
X18814291Y-34339419D01*
X18837439Y-34333218D01*
X18911662Y-34290365D01*
X22319365Y-30882662D01*
X22362218Y-30808439D01*
X22384400Y-30725653D01*
X22384400Y-30639947D01*
X22384400Y-29933489D01*
X22404085Y-29866450D01*
X22420719Y-29845808D01*
X23195651Y-29070876D01*
X23975765Y-28290762D01*
X24004229Y-28241461D01*
X24018618Y-28216538D01*
X24040800Y-28133753D01*
X24040800Y-14337860D01*
X24060485Y-14270821D01*
X24113289Y-14225066D01*
X24182447Y-14215122D01*
X24233690Y-14234758D01*
X24394400Y-14342140D01*
X24394403Y-14342142D01*
X24489952Y-14381719D01*
X24544356Y-14425559D01*
X24566421Y-14491853D01*
X24566500Y-14496280D01*
X24566500Y-32071811D01*
X24546815Y-32138850D01*
X24530181Y-32159492D01*
X22936492Y-33753181D01*
X22875169Y-33786666D01*
X22848811Y-33789500D01*
X22794108Y-33789500D01*
X22666812Y-33823608D01*
X22552686Y-33889500D01*
X22552683Y-33889502D01*
X22459502Y-33982683D01*
X22459500Y-33982686D01*
X22393608Y-34096812D01*
X22367826Y-34193034D01*
X22359500Y-34224108D01*
X22359500Y-34355892D01*
X22369608Y-34393616D01*
X22393608Y-34483187D01*
X22407495Y-34507239D01*
X22459500Y-34597314D01*
X22552686Y-34690500D01*
X22666814Y-34756392D01*
X22794108Y-34790500D01*
X22794110Y-34790500D01*
X22925890Y-34790500D01*
X22925892Y-34790500D01*
X23053186Y-34756392D01*
X23167314Y-34690500D01*
X23260500Y-34597314D01*
X23326392Y-34483186D01*
X23360500Y-34355892D01*
X23360500Y-34301189D01*
X23380185Y-34234150D01*
X23396819Y-34213508D01*
X24266854Y-33343473D01*
X25152465Y-32457862D01*
X25195318Y-32383639D01*
X25217500Y-32300853D01*
X25217500Y-32215147D01*
X25217500Y-14496280D01*
X25237185Y-14429241D01*
X25289989Y-14383486D01*
X25294048Y-14381719D01*
X25303830Y-14377666D01*
X25389598Y-14342141D01*
X25561655Y-14227177D01*
X25707977Y-14080855D01*
X25822941Y-13908798D01*
X25902130Y-13717620D01*
X25939854Y-13527969D01*
X25972239Y-13466058D01*
X26032954Y-13431484D01*
X26102724Y-13435223D01*
X26149152Y-13464479D01*
X30014081Y-17329407D01*
X30047566Y-17390730D01*
X30050400Y-17417088D01*
X30050400Y-26865251D01*
X30051461Y-26873309D01*
X30050597Y-26873422D01*
X30052900Y-26890906D01*
X30052900Y-27658724D01*
X30033215Y-27725763D01*
X30016581Y-27746405D01*
X29977902Y-27785083D01*
X29977900Y-27785086D01*
X29912008Y-27899212D01*
X29891511Y-27975710D01*
X29877900Y-28026508D01*
X29877900Y-28158292D01*
X29889385Y-28201155D01*
X29912008Y-28285587D01*
X29944954Y-28342650D01*
X29977900Y-28399714D01*
X30071086Y-28492900D01*
X30185214Y-28558792D01*
X30312508Y-28592900D01*
X30312510Y-28592900D01*
X30444290Y-28592900D01*
X30444292Y-28592900D01*
X30571586Y-28558792D01*
X30685714Y-28492900D01*
X30778900Y-28399714D01*
X30844792Y-28285586D01*
X30875031Y-28172727D01*
X30911394Y-28113070D01*
X30974241Y-28082540D01*
X31043616Y-28090834D01*
X31097495Y-28135319D01*
X31114580Y-28172729D01*
X31131208Y-28234786D01*
X31197100Y-28348914D01*
X31290286Y-28442100D01*
X31404414Y-28507992D01*
X31531708Y-28542100D01*
X31531710Y-28542100D01*
X31663490Y-28542100D01*
X31663492Y-28542100D01*
X31790786Y-28507992D01*
X31904914Y-28442100D01*
X31998100Y-28348914D01*
X32063992Y-28234786D01*
X32098100Y-28107492D01*
X32098100Y-27975708D01*
X32063992Y-27848414D01*
X31998100Y-27734286D01*
X31941819Y-27678005D01*
X31908334Y-27616682D01*
X31905500Y-27590324D01*
X31905500Y-4402855D01*
X31905501Y-4402842D01*
X31905501Y-4307149D01*
X31905501Y-4307148D01*
X31883318Y-4224362D01*
X31849094Y-4165084D01*
X31840465Y-4150138D01*
X31779862Y-4089535D01*
X31779859Y-4089533D01*
X31727430Y-4037104D01*
X31693946Y-3975782D01*
X31698930Y-3906090D01*
X31700551Y-3901971D01*
X31740130Y-3806420D01*
X31780500Y-3603465D01*
X31780500Y-3396535D01*
X31780499Y-3396530D01*
X32219500Y-3396530D01*
X32219500Y-3603469D01*
X32259868Y-3806412D01*
X32259870Y-3806420D01*
X32339058Y-3997596D01*
X32454024Y-4169657D01*
X32600342Y-4315975D01*
X32600345Y-4315977D01*
X32772402Y-4430941D01*
X32963580Y-4510130D01*
X33108052Y-4538867D01*
X33166530Y-4550499D01*
X33166534Y-4550500D01*
X33166535Y-4550500D01*
X33373466Y-4550500D01*
X33373467Y-4550499D01*
X33576420Y-4510130D01*
X33767598Y-4430941D01*
X33939655Y-4315977D01*
X34085977Y-4169655D01*
X34200941Y-3997598D01*
X34280130Y-3806420D01*
X34320500Y-3603465D01*
X34320500Y-3396535D01*
X34280130Y-3193580D01*
X34200941Y-3002402D01*
X34085977Y-2830345D01*
X34085975Y-2830342D01*
X33939657Y-2684024D01*
X33853626Y-2626541D01*
X33767598Y-2569059D01*
X33748516Y-2561155D01*
X33576420Y-2489870D01*
X33576412Y-2489868D01*
X33373469Y-2449500D01*
X33373465Y-2449500D01*
X33166535Y-2449500D01*
X33166530Y-2449500D01*
X32963587Y-2489868D01*
X32963579Y-2489870D01*
X32772403Y-2569058D01*
X32600342Y-2684024D01*
X32454024Y-2830342D01*
X32339058Y-3002403D01*
X32259870Y-3193579D01*
X32259868Y-3193587D01*
X32219500Y-3396530D01*
X31780499Y-3396530D01*
X31740130Y-3193580D01*
X31660941Y-3002402D01*
X31545977Y-2830345D01*
X31545975Y-2830342D01*
X31399657Y-2684024D01*
X31313626Y-2626541D01*
X31227598Y-2569059D01*
X31208516Y-2561155D01*
X31036420Y-2489870D01*
X31036412Y-2489868D01*
X30833469Y-2449500D01*
X30833465Y-2449500D01*
X30626535Y-2449500D01*
X30626530Y-2449500D01*
X30423587Y-2489868D01*
X30423579Y-2489870D01*
X30232403Y-2569058D01*
X30060342Y-2684024D01*
X29914024Y-2830342D01*
X29799058Y-3002403D01*
X29719870Y-3193579D01*
X29719868Y-3193587D01*
X29679500Y-3396530D01*
X29679500Y-3603469D01*
X29719868Y-3806412D01*
X29719870Y-3806420D01*
X29799058Y-3997596D01*
X29914024Y-4169657D01*
X30060342Y-4315975D01*
X30060345Y-4315977D01*
X30232402Y-4430941D01*
X30423580Y-4510130D01*
X30568052Y-4538867D01*
X30626530Y-4550499D01*
X30626534Y-4550500D01*
X30626535Y-4550500D01*
X30833466Y-4550500D01*
X30833467Y-4550499D01*
X31036420Y-4510130D01*
X31083047Y-4490815D01*
X31152516Y-4483347D01*
X31214995Y-4514622D01*
X31250648Y-4574710D01*
X31254500Y-4605377D01*
X31254500Y-27625524D01*
X31234815Y-27692563D01*
X31218181Y-27713205D01*
X31197102Y-27734283D01*
X31197100Y-27734286D01*
X31131208Y-27848412D01*
X31100969Y-27961269D01*
X31064604Y-28020930D01*
X31001757Y-28051459D01*
X30932381Y-28043164D01*
X30878504Y-27998679D01*
X30861419Y-27961269D01*
X30860561Y-27958067D01*
X30844792Y-27899214D01*
X30778900Y-27785086D01*
X30740219Y-27746405D01*
X30706734Y-27685082D01*
X30703900Y-27658724D01*
X30703900Y-26879046D01*
X30703900Y-26867756D01*
X30703901Y-26867753D01*
X30703901Y-26782048D01*
X30701735Y-26773965D01*
X30701426Y-26758944D01*
X30701634Y-26758174D01*
X30701400Y-26756390D01*
X30701400Y-17283755D01*
X30701401Y-17283742D01*
X30701401Y-17188048D01*
X30679217Y-17105259D01*
X30679216Y-17105258D01*
X30636367Y-17031041D01*
X30636366Y-17031040D01*
X30636365Y-17031038D01*
X30575762Y-16970435D01*
X30575761Y-16970434D01*
X30571431Y-16966104D01*
X30571420Y-16966094D01*
X25579364Y-11974037D01*
X25579363Y-11974036D01*
X25579362Y-11974035D01*
X25522730Y-11941338D01*
X25505140Y-11931182D01*
X25454195Y-11917532D01*
X25422353Y-11909000D01*
X25231076Y-11909000D01*
X25164037Y-11889315D01*
X25118282Y-11836511D01*
X25108338Y-11767353D01*
X25137363Y-11703797D01*
X25183623Y-11670439D01*
X25294628Y-11624459D01*
X25433839Y-11531441D01*
X25433847Y-11531435D01*
X25552235Y-11413047D01*
X25552241Y-11413039D01*
X25645259Y-11273828D01*
X25645259Y-11273827D01*
X25709334Y-11119136D01*
X25709336Y-11119128D01*
X25741999Y-10954922D01*
X25742000Y-10954920D01*
X25742000Y-10787479D01*
X25741999Y-10787477D01*
X25709336Y-10623271D01*
X25709334Y-10623263D01*
X25645259Y-10468572D01*
X25645259Y-10468571D01*
X25552241Y-10329360D01*
X25552235Y-10329352D01*
X25433847Y-10210964D01*
X25433839Y-10210958D01*
X25294628Y-10117940D01*
X25139936Y-10053865D01*
X25139928Y-10053863D01*
X24975721Y-10021200D01*
X24808279Y-10021200D01*
X24644071Y-10053863D01*
X24644063Y-10053865D01*
X24489372Y-10117940D01*
X24489371Y-10117940D01*
X24350160Y-10210958D01*
X24350152Y-10210964D01*
X24231764Y-10329352D01*
X24231758Y-10329360D01*
X24138740Y-10468571D01*
X24138740Y-10468572D01*
X24074665Y-10623263D01*
X24074663Y-10623271D01*
X24042000Y-10787477D01*
X24042000Y-10954922D01*
X24074663Y-11119128D01*
X24074665Y-11119136D01*
X24138740Y-11273827D01*
X24138740Y-11273828D01*
X24231758Y-11413039D01*
X24231764Y-11413047D01*
X24350152Y-11531435D01*
X24350160Y-11531441D01*
X24489371Y-11624459D01*
X24600377Y-11670439D01*
X24654780Y-11714280D01*
X24676845Y-11780574D01*
X24659566Y-11848273D01*
X24608429Y-11895884D01*
X24552924Y-11909000D01*
X24361747Y-11909000D01*
X24278960Y-11931182D01*
X24238817Y-11954360D01*
X24238815Y-11954361D01*
X24204739Y-11974034D01*
X24204736Y-11974036D01*
X23454837Y-12723935D01*
X23454833Y-12723941D01*
X23416114Y-12791002D01*
X23365546Y-12839217D01*
X23296939Y-12852438D01*
X23232075Y-12826469D01*
X23205625Y-12797890D01*
X23178259Y-12756934D01*
X23167977Y-12741545D01*
X23167975Y-12741542D01*
X23021657Y-12595224D01*
X22869904Y-12493827D01*
X22849598Y-12480259D01*
X22806253Y-12462305D01*
X22658420Y-12401070D01*
X22658412Y-12401068D01*
X22455469Y-12360700D01*
X22455465Y-12360700D01*
X22248535Y-12360700D01*
X22248530Y-12360700D01*
X22045587Y-12401068D01*
X22045579Y-12401070D01*
X21854403Y-12480258D01*
X21682342Y-12595224D01*
X21682341Y-12595225D01*
X21539781Y-12737786D01*
X21478458Y-12771271D01*
X21408766Y-12766287D01*
X21352833Y-12724415D01*
X21328416Y-12658951D01*
X21328100Y-12650105D01*
X21328100Y-12114655D01*
X21328101Y-12114642D01*
X21328101Y-12018948D01*
X21327193Y-12015561D01*
X21305918Y-11936162D01*
X21305917Y-11936161D01*
X21305917Y-11936159D01*
X21305915Y-11936156D01*
X21295162Y-11917532D01*
X21295161Y-11917531D01*
X21290236Y-11909000D01*
X21263065Y-11861938D01*
X21202462Y-11801335D01*
X21202459Y-11801333D01*
X21019208Y-11618082D01*
X20809431Y-11408304D01*
X20775946Y-11346981D01*
X20780930Y-11277289D01*
X20782551Y-11273170D01*
X20822130Y-11177620D01*
X20862500Y-10974665D01*
X20862500Y-10767735D01*
X20862499Y-10767730D01*
X21301500Y-10767730D01*
X21301500Y-10974669D01*
X21341868Y-11177612D01*
X21341870Y-11177620D01*
X21414037Y-11351847D01*
X21421059Y-11368798D01*
X21450625Y-11413047D01*
X21536024Y-11540857D01*
X21682342Y-11687175D01*
X21682345Y-11687177D01*
X21854402Y-11802141D01*
X22045580Y-11881330D01*
X22227581Y-11917532D01*
X22248530Y-11921699D01*
X22248534Y-11921700D01*
X22248535Y-11921700D01*
X22455466Y-11921700D01*
X22455467Y-11921699D01*
X22658420Y-11881330D01*
X22849598Y-11802141D01*
X23021655Y-11687177D01*
X23167977Y-11540855D01*
X23282941Y-11368798D01*
X23362130Y-11177620D01*
X23402500Y-10974665D01*
X23402500Y-10767735D01*
X23362130Y-10564780D01*
X23282941Y-10373602D01*
X23167977Y-10201545D01*
X23167975Y-10201542D01*
X23021657Y-10055224D01*
X22891680Y-9968377D01*
X22849598Y-9940259D01*
X22845670Y-9938632D01*
X22658420Y-9861070D01*
X22658412Y-9861068D01*
X22455469Y-9820700D01*
X22455465Y-9820700D01*
X22248535Y-9820700D01*
X22248530Y-9820700D01*
X22045587Y-9861068D01*
X22045579Y-9861070D01*
X21854403Y-9940258D01*
X21682342Y-10055224D01*
X21536024Y-10201542D01*
X21421058Y-10373603D01*
X21341870Y-10564779D01*
X21341868Y-10564787D01*
X21301500Y-10767730D01*
X20862499Y-10767730D01*
X20822130Y-10564780D01*
X20742941Y-10373602D01*
X20627977Y-10201545D01*
X20627975Y-10201542D01*
X20481657Y-10055224D01*
X20351680Y-9968377D01*
X20309598Y-9940259D01*
X20305670Y-9938632D01*
X20118420Y-9861070D01*
X20118412Y-9861068D01*
X19915469Y-9820700D01*
X19915465Y-9820700D01*
X19708535Y-9820700D01*
X19708530Y-9820700D01*
X19505587Y-9861068D01*
X19505579Y-9861070D01*
X19314403Y-9940258D01*
X19142342Y-10055224D01*
X18996024Y-10201542D01*
X18881058Y-10373603D01*
X18801870Y-10564779D01*
X18801868Y-10564787D01*
X18761500Y-10767730D01*
X18761500Y-10974669D01*
X18801868Y-11177612D01*
X18801870Y-11177620D01*
X18874037Y-11351847D01*
X18881059Y-11368798D01*
X18910625Y-11413047D01*
X18996024Y-11540857D01*
X19142342Y-11687175D01*
X19142345Y-11687177D01*
X19314402Y-11802141D01*
X19505580Y-11881330D01*
X19687581Y-11917532D01*
X19708530Y-11921699D01*
X19708534Y-11921700D01*
X19708535Y-11921700D01*
X19915466Y-11921700D01*
X19915467Y-11921699D01*
X20118420Y-11881330D01*
X20213970Y-11841750D01*
X20283439Y-11834282D01*
X20345918Y-11865557D01*
X20349104Y-11868631D01*
X20640781Y-12160307D01*
X20655484Y-12187234D01*
X20672077Y-12213053D01*
X20672968Y-12219253D01*
X20674266Y-12221630D01*
X20677100Y-12247988D01*
X20677100Y-12493827D01*
X20657415Y-12560866D01*
X20604611Y-12606621D01*
X20535453Y-12616565D01*
X20484210Y-12596930D01*
X20405652Y-12544440D01*
X20309598Y-12480259D01*
X20266253Y-12462305D01*
X20118420Y-12401070D01*
X20118412Y-12401068D01*
X19915469Y-12360700D01*
X19915465Y-12360700D01*
X19708535Y-12360700D01*
X19708530Y-12360700D01*
X19505587Y-12401068D01*
X19505579Y-12401070D01*
X19314403Y-12480258D01*
X19142342Y-12595224D01*
X18996024Y-12741542D01*
X18881058Y-12913603D01*
X18801870Y-13104779D01*
X18801868Y-13104787D01*
X18761500Y-13307730D01*
X18761500Y-13514669D01*
X18801868Y-13717612D01*
X18801870Y-13717620D01*
X18881058Y-13908796D01*
X18996024Y-14080857D01*
X19142342Y-14227175D01*
X19142345Y-14227177D01*
X19314402Y-14342141D01*
X19387409Y-14372381D01*
X19409952Y-14381719D01*
X19464356Y-14425559D01*
X19486421Y-14491853D01*
X19486500Y-14496280D01*
X19486500Y-30851811D01*
X19466815Y-30918850D01*
X19450181Y-30939492D01*
X19157892Y-31231781D01*
X19096569Y-31265266D01*
X19070211Y-31268100D01*
X19015508Y-31268100D01*
X18888212Y-31302208D01*
X18774086Y-31368100D01*
X18774083Y-31368102D01*
X18680902Y-31461283D01*
X18680900Y-31461286D01*
X18615008Y-31575412D01*
X18584222Y-31690310D01*
X18580900Y-31702708D01*
X18580900Y-31834492D01*
X18590053Y-31868650D01*
X18615008Y-31961787D01*
X18640428Y-32005814D01*
X18680900Y-32075914D01*
X18774086Y-32169100D01*
X18815853Y-32193214D01*
X18881668Y-32231213D01*
X18929884Y-32281780D01*
X18943106Y-32350387D01*
X18917138Y-32415252D01*
X18860224Y-32455780D01*
X18819668Y-32462600D01*
X18774808Y-32462600D01*
X18647512Y-32496708D01*
X18533386Y-32562600D01*
X18533383Y-32562602D01*
X18440202Y-32655783D01*
X18440200Y-32655786D01*
X18374308Y-32769912D01*
X18340200Y-32897208D01*
X18340200Y-33028991D01*
X18374308Y-33156287D01*
X18407254Y-33213350D01*
X18440200Y-33270414D01*
X18440202Y-33270416D01*
X18487505Y-33317719D01*
X18520990Y-33379042D01*
X18516006Y-33448734D01*
X18474134Y-33504667D01*
X18408670Y-33529084D01*
X18399824Y-33529400D01*
X18326608Y-33529400D01*
X18199312Y-33563508D01*
X18085186Y-33629400D01*
X18085183Y-33629402D01*
X17992002Y-33722583D01*
X17992000Y-33722586D01*
X17926108Y-33836712D01*
X17906170Y-33911123D01*
X17892000Y-33964008D01*
X17892000Y-34095792D01*
X17892274Y-34096814D01*
X17926108Y-34223087D01*
X17941050Y-34248967D01*
X17992000Y-34337214D01*
X17992002Y-34337216D01*
X18033755Y-34378969D01*
X18067240Y-34440292D01*
X18062256Y-34509984D01*
X18033755Y-34554331D01*
X17942902Y-34645183D01*
X17942900Y-34645186D01*
X17877008Y-34759312D01*
X17842900Y-34886608D01*
X17842900Y-35018391D01*
X17872445Y-35128658D01*
X17872428Y-35129358D01*
X17872787Y-35129962D01*
X17871597Y-35164256D01*
X17870782Y-35198508D01*
X17870389Y-35199088D01*
X17870365Y-35199789D01*
X17850845Y-35227963D01*
X17831619Y-35256371D01*
X17830840Y-35256839D01*
X17830575Y-35257223D01*
X17828182Y-35258440D01*
X17800240Y-35275263D01*
X17792670Y-35278407D01*
X17757214Y-35287908D01*
X17724925Y-35306549D01*
X17717470Y-35309647D01*
X17690431Y-35312581D01*
X17663999Y-35318994D01*
X17656206Y-35316297D01*
X17648009Y-35317187D01*
X17623674Y-35305037D01*
X17597972Y-35296142D01*
X17592875Y-35289660D01*
X17585497Y-35285977D01*
X17571593Y-35262597D01*
X17554782Y-35241220D01*
X17552817Y-35231026D01*
X17549783Y-35225924D01*
X17550095Y-35216905D01*
X17545900Y-35195135D01*
X17545900Y-32244576D01*
X17565585Y-32177537D01*
X17582219Y-32156895D01*
X17600800Y-32138314D01*
X17620900Y-32118214D01*
X17686792Y-32004086D01*
X17720900Y-31876792D01*
X17720900Y-31745008D01*
X17686792Y-31617714D01*
X17620900Y-31503586D01*
X17527714Y-31410400D01*
X17454452Y-31368102D01*
X17413587Y-31344508D01*
X17317783Y-31318838D01*
X17286292Y-31310400D01*
X17154508Y-31310400D01*
X17027214Y-31344508D01*
X17027212Y-31344508D01*
X17019363Y-31346612D01*
X17018801Y-31344515D01*
X16960662Y-31350755D01*
X16898188Y-31319469D01*
X16862546Y-31259374D01*
X16858700Y-31228729D01*
X16858700Y-14551164D01*
X16878385Y-14484125D01*
X16931189Y-14438370D01*
X17000347Y-14428426D01*
X17006876Y-14429544D01*
X17168533Y-14461699D01*
X17168534Y-14461700D01*
X17168535Y-14461700D01*
X17375466Y-14461700D01*
X17375467Y-14461699D01*
X17578420Y-14421330D01*
X17769598Y-14342141D01*
X17941655Y-14227177D01*
X18087977Y-14080855D01*
X18202941Y-13908798D01*
X18282130Y-13717620D01*
X18322500Y-13514665D01*
X18322500Y-13307735D01*
X18282130Y-13104780D01*
X18202941Y-12913602D01*
X18087977Y-12741545D01*
X18087975Y-12741542D01*
X17941657Y-12595224D01*
X17789904Y-12493827D01*
X17769598Y-12480259D01*
X17726253Y-12462305D01*
X17578420Y-12401070D01*
X17578412Y-12401068D01*
X17375469Y-12360700D01*
X17375465Y-12360700D01*
X17168535Y-12360700D01*
X17168530Y-12360700D01*
X16965587Y-12401068D01*
X16965579Y-12401070D01*
X16774403Y-12480258D01*
X16602342Y-12595224D01*
X16602341Y-12595225D01*
X16539181Y-12658386D01*
X16519744Y-12668998D01*
X16503011Y-12683499D01*
X16489679Y-12685415D01*
X16477858Y-12691871D01*
X16455771Y-12690291D01*
X16433853Y-12693443D01*
X16421601Y-12687847D01*
X16408166Y-12686887D01*
X16390439Y-12673616D01*
X16370297Y-12664418D01*
X16363014Y-12653086D01*
X16352233Y-12645015D01*
X16344495Y-12624269D01*
X16332523Y-12605640D01*
X16329371Y-12583721D01*
X16327816Y-12579551D01*
X16327500Y-12570705D01*
X16327500Y-12327388D01*
X16347185Y-12260349D01*
X16363815Y-12239711D01*
X16734895Y-11868630D01*
X16796218Y-11835146D01*
X16865910Y-11840130D01*
X16870023Y-11841748D01*
X16965580Y-11881330D01*
X17147581Y-11917532D01*
X17168530Y-11921699D01*
X17168534Y-11921700D01*
X17168535Y-11921700D01*
X17375466Y-11921700D01*
X17375467Y-11921699D01*
X17578420Y-11881330D01*
X17769598Y-11802141D01*
X17941655Y-11687177D01*
X18087977Y-11540855D01*
X18202941Y-11368798D01*
X18282130Y-11177620D01*
X18322500Y-10974665D01*
X18322500Y-10767735D01*
X18282130Y-10564780D01*
X18202941Y-10373602D01*
X18087977Y-10201545D01*
X18087975Y-10201542D01*
X17941657Y-10055224D01*
X17811680Y-9968377D01*
X17769598Y-9940259D01*
X17765670Y-9938632D01*
X17578420Y-9861070D01*
X17578412Y-9861068D01*
X17375469Y-9820700D01*
X17375465Y-9820700D01*
X17168535Y-9820700D01*
X17168530Y-9820700D01*
X16965587Y-9861068D01*
X16965579Y-9861070D01*
X16774403Y-9940258D01*
X16602342Y-10055224D01*
X16456024Y-10201542D01*
X16341058Y-10373603D01*
X16261870Y-10564779D01*
X16261868Y-10564787D01*
X16221500Y-10767730D01*
X16221500Y-10974669D01*
X16261868Y-11177612D01*
X16261870Y-11177620D01*
X16301448Y-11273169D01*
X16308917Y-11342638D01*
X16277642Y-11405118D01*
X16274568Y-11408303D01*
X15741537Y-11941335D01*
X15741535Y-11941338D01*
X15698681Y-12015561D01*
X15693569Y-12034637D01*
X15693570Y-12034638D01*
X15676500Y-12098345D01*
X15676500Y-12570705D01*
X15656815Y-12637744D01*
X15604011Y-12683499D01*
X15534853Y-12693443D01*
X15471297Y-12664418D01*
X15464819Y-12658386D01*
X15401657Y-12595224D01*
X15249904Y-12493827D01*
X15229598Y-12480259D01*
X15186253Y-12462305D01*
X15038420Y-12401070D01*
X15038412Y-12401068D01*
X14835469Y-12360700D01*
X14835465Y-12360700D01*
X14628535Y-12360700D01*
X14628530Y-12360700D01*
X14425587Y-12401068D01*
X14425579Y-12401070D01*
X14234403Y-12480258D01*
X14062342Y-12595224D01*
X14062341Y-12595225D01*
X13999181Y-12658386D01*
X13937858Y-12691871D01*
X13868166Y-12686887D01*
X13812233Y-12645015D01*
X13787816Y-12579551D01*
X13787500Y-12570705D01*
X13787500Y-11396388D01*
X13807185Y-11329349D01*
X13859989Y-11283594D01*
X13929147Y-11273650D01*
X13992703Y-11302675D01*
X14014603Y-11327498D01*
X14071763Y-11413046D01*
X14190152Y-11531435D01*
X14190160Y-11531441D01*
X14329371Y-11624459D01*
X14484063Y-11688534D01*
X14484071Y-11688536D01*
X14648277Y-11721199D01*
X14648280Y-11721200D01*
X14815720Y-11721200D01*
X14815722Y-11721199D01*
X14979928Y-11688536D01*
X14979936Y-11688534D01*
X15134627Y-11624459D01*
X15134628Y-11624459D01*
X15273839Y-11531441D01*
X15273847Y-11531435D01*
X15392235Y-11413047D01*
X15392241Y-11413039D01*
X15485259Y-11273828D01*
X15485259Y-11273827D01*
X15549334Y-11119136D01*
X15549336Y-11119128D01*
X15581999Y-10954922D01*
X15582000Y-10954920D01*
X15582000Y-10787479D01*
X15581999Y-10787477D01*
X15549336Y-10623271D01*
X15549334Y-10623263D01*
X15485259Y-10468572D01*
X15485259Y-10468571D01*
X15392241Y-10329360D01*
X15392235Y-10329352D01*
X15273847Y-10210964D01*
X15273839Y-10210958D01*
X15134628Y-10117940D01*
X14979936Y-10053865D01*
X14979928Y-10053863D01*
X14815721Y-10021200D01*
X14656288Y-10021200D01*
X14589249Y-10001515D01*
X14543494Y-9948711D01*
X14533550Y-9879553D01*
X14562575Y-9815997D01*
X14568607Y-9809519D01*
X20516307Y-3861819D01*
X20577630Y-3828334D01*
X20603988Y-3825500D01*
X21935500Y-3825500D01*
X22002539Y-3845185D01*
X22048294Y-3897989D01*
X22059500Y-3949500D01*
X22059500Y-4369752D01*
X22071131Y-4428229D01*
X22071132Y-4428230D01*
X22115447Y-4494552D01*
X22181769Y-4538867D01*
X22181770Y-4538868D01*
X22240247Y-4550499D01*
X22240250Y-4550500D01*
X22240252Y-4550500D01*
X23979750Y-4550500D01*
X23979751Y-4550499D01*
X23996313Y-4547205D01*
X24038229Y-4538868D01*
X24038229Y-4538867D01*
X24038231Y-4538867D01*
X24104552Y-4494552D01*
X24148867Y-4428231D01*
X24148867Y-4428229D01*
X24148868Y-4428229D01*
X24160499Y-4369752D01*
X24160500Y-4369750D01*
X24160500Y-2770189D01*
X24180185Y-2703150D01*
X24232989Y-2657395D01*
X24302147Y-2647451D01*
X24365703Y-2676476D01*
X24372181Y-2682508D01*
X24652568Y-2962895D01*
X24686053Y-3024218D01*
X24681069Y-3093910D01*
X24679448Y-3098028D01*
X24639871Y-3193575D01*
X24639868Y-3193587D01*
X24599500Y-3396530D01*
X24599500Y-3603469D01*
X24639868Y-3806412D01*
X24639870Y-3806420D01*
X24719058Y-3997596D01*
X24834024Y-4169657D01*
X24980342Y-4315975D01*
X24980345Y-4315977D01*
X25152402Y-4430941D01*
X25343580Y-4510130D01*
X25488052Y-4538867D01*
X25546530Y-4550499D01*
X25546534Y-4550500D01*
X25546535Y-4550500D01*
X25753466Y-4550500D01*
X25753467Y-4550499D01*
X25956420Y-4510130D01*
X26147598Y-4430941D01*
X26319655Y-4315977D01*
X26465977Y-4169655D01*
X26580941Y-3997598D01*
X26660130Y-3806420D01*
X26700500Y-3603465D01*
X26700500Y-3396535D01*
X26660130Y-3193580D01*
X26580941Y-3002402D01*
X26465977Y-2830345D01*
X26465975Y-2830342D01*
X26319657Y-2684024D01*
X26233626Y-2626541D01*
X26147598Y-2569059D01*
X26128516Y-2561155D01*
X25956420Y-2489870D01*
X25956412Y-2489868D01*
X25753469Y-2449500D01*
X25753465Y-2449500D01*
X25546535Y-2449500D01*
X25546530Y-2449500D01*
X25343587Y-2489868D01*
X25343575Y-2489871D01*
X25248028Y-2529448D01*
X25178559Y-2536917D01*
X25116080Y-2505641D01*
X25112895Y-2502568D01*
X24992308Y-2381981D01*
X24958823Y-2320658D01*
X24963807Y-2250966D01*
X25005679Y-2195033D01*
X25071143Y-2170616D01*
X25079989Y-2170300D01*
X26348611Y-2170300D01*
X26415650Y-2189985D01*
X26436292Y-2206619D01*
X27192568Y-2962895D01*
X27226053Y-3024218D01*
X27221069Y-3093910D01*
X27219448Y-3098028D01*
X27179871Y-3193575D01*
X27179868Y-3193587D01*
X27139500Y-3396530D01*
X27139500Y-3603469D01*
X27179868Y-3806412D01*
X27179870Y-3806420D01*
X27259058Y-3997596D01*
X27374024Y-4169657D01*
X27520342Y-4315975D01*
X27520345Y-4315977D01*
X27692402Y-4430941D01*
X27883580Y-4510130D01*
X28028052Y-4538867D01*
X28086530Y-4550499D01*
X28086534Y-4550500D01*
X28086535Y-4550500D01*
X28293466Y-4550500D01*
X28293467Y-4550499D01*
X28496420Y-4510130D01*
X28687598Y-4430941D01*
X28859655Y-4315977D01*
X29005977Y-4169655D01*
X29120941Y-3997598D01*
X29200130Y-3806420D01*
X29240500Y-3603465D01*
X29240500Y-3396535D01*
X29200130Y-3193580D01*
X29120941Y-3002402D01*
X29005977Y-2830345D01*
X29005975Y-2830342D01*
X28859657Y-2684024D01*
X28773626Y-2626541D01*
X28687598Y-2569059D01*
X28668516Y-2561155D01*
X28496420Y-2489870D01*
X28496412Y-2489868D01*
X28293469Y-2449500D01*
X28293465Y-2449500D01*
X28086535Y-2449500D01*
X28086530Y-2449500D01*
X27883587Y-2489868D01*
X27883575Y-2489871D01*
X27788028Y-2529448D01*
X27718559Y-2536917D01*
X27656080Y-2505641D01*
X27652895Y-2502568D01*
X26734664Y-1584337D01*
X26734662Y-1584335D01*
X26697550Y-1562908D01*
X26660440Y-1541482D01*
X26619046Y-1530391D01*
X26577653Y-1519300D01*
X26577652Y-1519300D01*
X17043265Y-1519300D01*
X17043249Y-1519299D01*
X17035653Y-1519299D01*
X16949948Y-1519299D01*
X16908555Y-1530390D01*
X16867160Y-1541482D01*
X16867155Y-1541485D01*
X16792944Y-1584330D01*
X16792936Y-1584336D01*
X8174837Y-10202435D01*
X8174835Y-10202438D01*
X8160386Y-10227464D01*
X8109818Y-10275678D01*
X8041210Y-10288899D01*
X7976346Y-10262930D01*
X7949897Y-10234351D01*
X7934266Y-10210958D01*
X7927977Y-10201545D01*
X7927975Y-10201542D01*
X7781657Y-10055224D01*
X7651680Y-9968377D01*
X7609598Y-9940259D01*
X7605670Y-9938632D01*
X7418420Y-9861070D01*
X7418412Y-9861068D01*
X7215469Y-9820700D01*
X7215465Y-9820700D01*
X7008535Y-9820700D01*
X7008530Y-9820700D01*
X6805587Y-9861068D01*
X6805579Y-9861070D01*
X6614403Y-9940258D01*
X6442342Y-10055224D01*
X6296024Y-10201542D01*
X6181058Y-10373603D01*
X6101870Y-10564779D01*
X6101868Y-10564787D01*
X6061500Y-10767730D01*
X6061500Y-10974669D01*
X6101868Y-11177612D01*
X6101870Y-11177620D01*
X6174037Y-11351847D01*
X6181059Y-11368798D01*
X6210625Y-11413047D01*
X6296024Y-11540857D01*
X6442342Y-11687175D01*
X6442345Y-11687177D01*
X6614402Y-11802141D01*
X6805580Y-11881330D01*
X6987581Y-11917532D01*
X7008530Y-11921699D01*
X7008534Y-11921700D01*
X7008535Y-11921700D01*
X7215466Y-11921700D01*
X7215467Y-11921699D01*
X7418420Y-11881330D01*
X7609598Y-11802141D01*
X7781655Y-11687177D01*
X7831447Y-11637385D01*
X7898119Y-11570714D01*
X7959442Y-11537229D01*
X8029134Y-11542213D01*
X8085067Y-11584085D01*
X8109484Y-11649549D01*
X8109800Y-11658395D01*
X8109800Y-12300350D01*
X8090115Y-12367389D01*
X8037311Y-12413144D01*
X7968153Y-12423088D01*
X7927864Y-12409983D01*
X7924882Y-12408407D01*
X7796700Y-12363553D01*
X7766270Y-12360700D01*
X7766266Y-12360700D01*
X6457734Y-12360700D01*
X6457730Y-12360700D01*
X6427300Y-12363553D01*
X6427298Y-12363553D01*
X6299119Y-12408406D01*
X6299117Y-12408407D01*
X6189850Y-12489050D01*
X6109207Y-12598317D01*
X6109206Y-12598319D01*
X6064353Y-12726498D01*
X6064353Y-12726500D01*
X6061500Y-12756930D01*
X6061500Y-14065469D01*
X6064353Y-14095899D01*
X6064353Y-14095901D01*
X6108855Y-14223077D01*
X6109207Y-14224082D01*
X6189850Y-14333350D01*
X6299118Y-14413993D01*
X6320089Y-14421331D01*
X6427299Y-14458846D01*
X6457730Y-14461700D01*
X6457734Y-14461700D01*
X7766270Y-14461700D01*
X7796699Y-14458846D01*
X7796701Y-14458846D01*
X7855216Y-14438370D01*
X7924882Y-14413993D01*
X7924892Y-14413985D01*
X7927856Y-14412420D01*
X7931486Y-14411681D01*
X7933652Y-14410924D01*
X7933755Y-14411220D01*
X7996324Y-14398496D01*
X8061451Y-14423800D01*
X8102559Y-14480297D01*
X8109800Y-14522049D01*
X8109800Y-22687811D01*
X8101155Y-22717251D01*
X8094632Y-22747238D01*
X8090877Y-22752253D01*
X8090115Y-22754850D01*
X8073481Y-22775492D01*
X8001292Y-22847681D01*
X7939969Y-22881166D01*
X7913611Y-22884000D01*
X7858908Y-22884000D01*
X7731612Y-22918108D01*
X7617486Y-22984000D01*
X7617483Y-22984002D01*
X7524302Y-23077183D01*
X7524300Y-23077186D01*
X7458408Y-23191312D01*
X7424300Y-23318608D01*
X7424300Y-23450391D01*
X7458408Y-23577687D01*
X7491354Y-23634750D01*
X7524300Y-23691814D01*
X7617486Y-23785000D01*
X7731614Y-23850892D01*
X7858908Y-23885000D01*
X7858910Y-23885000D01*
X7990690Y-23885000D01*
X7990692Y-23885000D01*
X8117986Y-23850892D01*
X8232114Y-23785000D01*
X8325300Y-23691814D01*
X8391192Y-23577686D01*
X8425300Y-23450392D01*
X8425300Y-23395689D01*
X8444985Y-23328650D01*
X8461619Y-23308008D01*
X8657619Y-23112008D01*
X8718942Y-23078523D01*
X8788634Y-23083507D01*
X8844567Y-23125379D01*
X8868984Y-23190843D01*
X8869300Y-23199689D01*
X8869300Y-25220324D01*
X8849615Y-25287363D01*
X8832981Y-25308005D01*
X8794302Y-25346683D01*
X8794300Y-25346686D01*
X8728408Y-25460812D01*
X8694300Y-25588108D01*
X8694300Y-25719891D01*
X8728408Y-25847187D01*
X8761354Y-25904250D01*
X8794300Y-25961314D01*
X8887486Y-26054500D01*
X8986321Y-26111563D01*
X8990272Y-26113844D01*
X9001614Y-26120392D01*
X9128908Y-26154500D01*
X9128910Y-26154500D01*
X9260689Y-26154500D01*
X9260692Y-26154500D01*
X9351646Y-26130129D01*
X9356703Y-26130249D01*
X9361221Y-26127965D01*
X9391281Y-26131072D01*
X9421491Y-26131792D01*
X9425683Y-26134629D01*
X9430720Y-26135150D01*
X9454331Y-26154018D01*
X9479353Y-26170954D01*
X9482420Y-26176466D01*
X9485302Y-26178769D01*
X9490584Y-26191136D01*
X9501229Y-26210265D01*
X9503789Y-26217854D01*
X9513863Y-26268497D01*
X9551661Y-26359749D01*
X9552994Y-26363701D01*
X9553338Y-26372366D01*
X9559500Y-26403340D01*
X9559500Y-31805234D01*
X9539815Y-31872273D01*
X9538602Y-31874125D01*
X9450609Y-32005814D01*
X9450602Y-32005827D01*
X9390264Y-32151498D01*
X9390261Y-32151510D01*
X9359500Y-32306153D01*
X9359500Y-32463846D01*
X9390261Y-32618489D01*
X9390264Y-32618501D01*
X9450602Y-32764172D01*
X9450609Y-32764185D01*
X9538210Y-32895288D01*
X9538213Y-32895292D01*
X9649707Y-33006786D01*
X9649711Y-33006789D01*
X9780814Y-33094390D01*
X9780827Y-33094397D01*
X9909253Y-33147592D01*
X9926503Y-33154737D01*
X10081153Y-33185499D01*
X10081156Y-33185500D01*
X10081158Y-33185500D01*
X10238844Y-33185500D01*
X10238845Y-33185499D01*
X10393497Y-33154737D01*
X10539179Y-33094394D01*
X10670289Y-33006789D01*
X10781789Y-32895289D01*
X10869394Y-32764179D01*
X10929737Y-32618497D01*
X10960500Y-32463842D01*
X10960500Y-32306158D01*
X10960500Y-32306155D01*
X10960499Y-32306153D01*
X10954758Y-32277291D01*
X10929737Y-32151503D01*
X10924274Y-32138314D01*
X10869397Y-32005827D01*
X10869390Y-32005814D01*
X10781398Y-31874125D01*
X10760520Y-31807447D01*
X10760500Y-31805234D01*
X10760500Y-26741540D01*
X10780185Y-26674501D01*
X10796814Y-26653863D01*
X10905389Y-26545289D01*
X10992994Y-26414179D01*
X11053337Y-26268497D01*
X11084100Y-26113842D01*
X11084100Y-25956158D01*
X11084100Y-25956155D01*
X11084099Y-25956153D01*
X11053338Y-25801510D01*
X11053337Y-25801503D01*
X11019533Y-25719892D01*
X10992997Y-25655827D01*
X10992990Y-25655814D01*
X10905389Y-25524711D01*
X10905386Y-25524707D01*
X10793892Y-25413213D01*
X10793888Y-25413210D01*
X10662785Y-25325609D01*
X10662772Y-25325602D01*
X10517101Y-25265264D01*
X10517089Y-25265261D01*
X10362445Y-25234500D01*
X10362442Y-25234500D01*
X10204758Y-25234500D01*
X10204755Y-25234500D01*
X10050110Y-25265261D01*
X10050098Y-25265264D01*
X9904427Y-25325602D01*
X9904414Y-25325609D01*
X9782652Y-25406969D01*
X9715974Y-25427847D01*
X9648594Y-25409362D01*
X9618413Y-25383143D01*
X9611657Y-25375017D01*
X9595300Y-25346686D01*
X9552592Y-25303978D01*
X9548952Y-25299600D01*
X9537257Y-25272547D01*
X9523134Y-25246682D01*
X9522159Y-25237621D01*
X9521228Y-25235466D01*
X9521651Y-25232893D01*
X9520300Y-25220324D01*
X9520300Y-23368289D01*
X9539985Y-23301250D01*
X9556619Y-23280608D01*
X10244447Y-22592780D01*
X11182565Y-21654662D01*
X11225418Y-21580439D01*
X11247600Y-21497653D01*
X11247600Y-21411947D01*
X11247600Y-14251795D01*
X11267285Y-14184756D01*
X11320089Y-14139001D01*
X11389247Y-14129057D01*
X11452803Y-14158082D01*
X11459281Y-14164114D01*
X11522342Y-14227175D01*
X11522345Y-14227177D01*
X11694402Y-14342141D01*
X11885580Y-14421330D01*
X12037623Y-14451573D01*
X12088530Y-14461699D01*
X12088534Y-14461700D01*
X12088535Y-14461700D01*
X12295466Y-14461700D01*
X12295467Y-14461699D01*
X12498420Y-14421330D01*
X12689598Y-14342141D01*
X12861655Y-14227177D01*
X12884240Y-14204592D01*
X12924819Y-14164014D01*
X12986142Y-14130529D01*
X13055834Y-14135513D01*
X13111767Y-14177385D01*
X13136184Y-14242849D01*
X13136500Y-14251695D01*
X13136500Y-15062480D01*
X13116815Y-15129519D01*
X13064011Y-15175274D01*
X12994853Y-15185218D01*
X12950502Y-15169868D01*
X12936891Y-15162010D01*
X12936888Y-15162009D01*
X12936887Y-15162008D01*
X12936886Y-15162008D01*
X12809592Y-15127900D01*
X12677808Y-15127900D01*
X12550512Y-15162008D01*
X12436386Y-15227900D01*
X12436383Y-15227902D01*
X12343202Y-15321083D01*
X12343200Y-15321086D01*
X12277308Y-15435212D01*
X12243200Y-15562508D01*
X12243200Y-15694291D01*
X12277308Y-15821587D01*
X12310254Y-15878650D01*
X12343200Y-15935714D01*
X12343202Y-15935716D01*
X12381881Y-15974395D01*
X12415366Y-16035718D01*
X12418200Y-16062076D01*
X12418200Y-49249310D01*
X12398515Y-49316349D01*
X12381881Y-49336991D01*
X11459103Y-50259768D01*
X11397780Y-50293253D01*
X11328088Y-50288269D01*
X11323972Y-50286649D01*
X11228420Y-50247070D01*
X11228412Y-50247068D01*
X11025469Y-50206700D01*
X11025465Y-50206700D01*
X10818535Y-50206700D01*
X10818530Y-50206700D01*
X10615587Y-50247068D01*
X10615579Y-50247070D01*
X10424403Y-50326258D01*
X10252342Y-50441224D01*
X10106024Y-50587542D01*
X9991058Y-50759603D01*
X9911870Y-50950779D01*
X9911868Y-50950787D01*
X9871500Y-51153730D01*
X9871500Y-51360669D01*
X9911868Y-51563612D01*
X9911870Y-51563620D01*
X9981140Y-51730853D01*
X9991059Y-51754798D01*
X10020625Y-51799047D01*
X10106024Y-51926857D01*
X10252342Y-52073175D01*
X10252345Y-52073177D01*
X10424402Y-52188141D01*
X10615580Y-52267330D01*
X10760052Y-52296067D01*
X10818530Y-52307699D01*
X10818534Y-52307700D01*
X10818535Y-52307700D01*
X11025466Y-52307700D01*
X11025467Y-52307699D01*
X11228420Y-52267330D01*
X11419598Y-52188141D01*
X11591655Y-52073177D01*
X11737977Y-51926855D01*
X11852941Y-51754798D01*
X11932130Y-51563620D01*
X11972500Y-51360665D01*
X11972500Y-51153735D01*
X11932130Y-50950780D01*
X11892550Y-50855228D01*
X11885082Y-50785760D01*
X11916357Y-50723280D01*
X11919431Y-50720095D01*
X12432472Y-50207054D01*
X12924821Y-49714705D01*
X12986142Y-49681222D01*
X13055834Y-49686206D01*
X13111767Y-49728078D01*
X13136184Y-49793542D01*
X13136500Y-49802388D01*
X13136500Y-50172119D01*
X13116815Y-50239158D01*
X13064011Y-50284913D01*
X13059953Y-50286680D01*
X12964403Y-50326257D01*
X12792342Y-50441224D01*
X12646024Y-50587542D01*
X12531058Y-50759603D01*
X12451870Y-50950779D01*
X12451868Y-50950787D01*
X12411500Y-51153730D01*
X12411500Y-51360669D01*
X12451868Y-51563612D01*
X12451870Y-51563620D01*
X12521140Y-51730853D01*
X12531059Y-51754798D01*
X12560625Y-51799047D01*
X12646024Y-51926857D01*
X12792342Y-52073175D01*
X12792345Y-52073177D01*
X12964402Y-52188141D01*
X13155580Y-52267330D01*
X13300052Y-52296067D01*
X13358530Y-52307699D01*
X13358534Y-52307700D01*
X13358535Y-52307700D01*
X13565466Y-52307700D01*
X13565467Y-52307699D01*
X13768420Y-52267330D01*
X13959598Y-52188141D01*
X14131655Y-52073177D01*
X14277977Y-51926855D01*
X14392941Y-51754798D01*
X14472130Y-51563620D01*
X14512500Y-51360665D01*
X14512500Y-51153735D01*
X14472130Y-50950780D01*
X14392941Y-50759602D01*
X14277977Y-50587545D01*
X14277975Y-50587542D01*
X14131657Y-50441224D01*
X13959596Y-50326257D01*
X13864047Y-50286680D01*
X13809644Y-50242839D01*
X13787579Y-50176545D01*
X13787500Y-50172119D01*
X13787500Y-49541218D01*
X13807185Y-49474179D01*
X13859989Y-49428424D01*
X13929147Y-49418480D01*
X13973502Y-49433832D01*
X13980014Y-49437592D01*
X14107308Y-49471700D01*
X14107310Y-49471700D01*
X14239090Y-49471700D01*
X14239092Y-49471700D01*
X14366386Y-49437592D01*
X14480514Y-49371700D01*
X14573700Y-49278514D01*
X14639592Y-49164386D01*
X14673700Y-49037092D01*
X14673700Y-48905308D01*
X14639592Y-48778014D01*
X14637986Y-48775233D01*
X14608641Y-48724406D01*
X14573700Y-48663886D01*
X14535020Y-48625206D01*
X14501535Y-48563883D01*
X14498701Y-48537525D01*
X14498701Y-48442348D01*
X14488975Y-48406051D01*
X14476518Y-48359561D01*
X14450768Y-48314962D01*
X14442507Y-48300653D01*
X14442481Y-48300548D01*
X14425900Y-48238662D01*
X14425900Y-47774919D01*
X14445585Y-47707880D01*
X14498389Y-47662125D01*
X14567547Y-47652181D01*
X14631103Y-47681206D01*
X14637581Y-47687238D01*
X15069968Y-48119625D01*
X15103453Y-48180948D01*
X15106287Y-48207306D01*
X15106287Y-48249040D01*
X15111501Y-48268498D01*
X15128469Y-48331827D01*
X15142529Y-48356179D01*
X15171322Y-48406049D01*
X15171324Y-48406051D01*
X16910181Y-50144908D01*
X16924884Y-50171835D01*
X16941477Y-50197654D01*
X16942368Y-50203854D01*
X16943666Y-50206231D01*
X16946500Y-50232589D01*
X16946500Y-50416705D01*
X16926815Y-50483744D01*
X16874011Y-50529499D01*
X16804853Y-50539443D01*
X16741297Y-50510418D01*
X16734819Y-50504386D01*
X16671657Y-50441224D01*
X16547316Y-50358143D01*
X16499598Y-50326259D01*
X16499593Y-50326257D01*
X16308420Y-50247070D01*
X16308412Y-50247068D01*
X16105469Y-50206700D01*
X16105465Y-50206700D01*
X15898535Y-50206700D01*
X15898530Y-50206700D01*
X15695587Y-50247068D01*
X15695579Y-50247070D01*
X15504403Y-50326258D01*
X15332342Y-50441224D01*
X15186024Y-50587542D01*
X15071058Y-50759603D01*
X14991870Y-50950779D01*
X14991868Y-50950787D01*
X14951500Y-51153730D01*
X14951500Y-51360669D01*
X14991868Y-51563612D01*
X14991870Y-51563620D01*
X15061140Y-51730853D01*
X15071059Y-51754798D01*
X15100625Y-51799047D01*
X15186024Y-51926857D01*
X15332342Y-52073175D01*
X15332345Y-52073177D01*
X15504402Y-52188141D01*
X15695580Y-52267330D01*
X15840052Y-52296067D01*
X15898530Y-52307699D01*
X15898534Y-52307700D01*
X15898535Y-52307700D01*
X16105466Y-52307700D01*
X16105467Y-52307699D01*
X16308420Y-52267330D01*
X16499598Y-52188141D01*
X16671655Y-52073177D01*
X16702675Y-52042157D01*
X16734819Y-52010014D01*
X16796142Y-51976529D01*
X16865834Y-51981513D01*
X16921767Y-52023385D01*
X16946184Y-52088849D01*
X16946500Y-52097695D01*
X16946500Y-52484347D01*
X16946500Y-52570053D01*
X16954619Y-52600353D01*
X16968682Y-52652840D01*
X16986176Y-52683139D01*
X17011535Y-52727062D01*
X17011537Y-52727064D01*
X17544568Y-53260095D01*
X17578053Y-53321418D01*
X17573069Y-53391110D01*
X17571448Y-53395228D01*
X17531871Y-53490775D01*
X17531868Y-53490787D01*
X17491500Y-53693730D01*
X17491500Y-53900669D01*
X17531868Y-54103612D01*
X17531870Y-54103620D01*
X17597939Y-54263125D01*
X17611059Y-54294798D01*
X17640625Y-54339047D01*
X17726024Y-54466857D01*
X17872342Y-54613175D01*
X17872345Y-54613177D01*
X18044402Y-54728141D01*
X18235580Y-54807330D01*
X18438530Y-54847699D01*
X18438534Y-54847700D01*
X18438535Y-54847700D01*
X18645466Y-54847700D01*
X18645467Y-54847699D01*
X18848420Y-54807330D01*
X19039598Y-54728141D01*
X19211655Y-54613177D01*
X19357977Y-54466855D01*
X19472941Y-54294798D01*
X19552130Y-54103620D01*
X19592500Y-53900665D01*
X19592500Y-53713477D01*
X20232000Y-53713477D01*
X20232000Y-53880922D01*
X20264663Y-54045128D01*
X20264665Y-54045136D01*
X20328740Y-54199827D01*
X20328740Y-54199828D01*
X20421758Y-54339039D01*
X20421764Y-54339047D01*
X20540152Y-54457435D01*
X20540160Y-54457441D01*
X20679371Y-54550459D01*
X20834063Y-54614534D01*
X20834071Y-54614536D01*
X20998277Y-54647199D01*
X20998280Y-54647200D01*
X21165720Y-54647200D01*
X21165722Y-54647199D01*
X21329928Y-54614536D01*
X21329936Y-54614534D01*
X21484627Y-54550459D01*
X21484628Y-54550459D01*
X21623839Y-54457441D01*
X21623847Y-54457435D01*
X21742235Y-54339047D01*
X21742241Y-54339039D01*
X21835259Y-54199828D01*
X21835259Y-54199827D01*
X21899334Y-54045136D01*
X21899336Y-54045128D01*
X21931999Y-53880922D01*
X21932000Y-53880920D01*
X21932000Y-53713479D01*
X21931999Y-53713477D01*
X21899336Y-53549271D01*
X21899334Y-53549263D01*
X21835259Y-53394572D01*
X21835259Y-53394571D01*
X21742241Y-53255360D01*
X21742235Y-53255352D01*
X21623847Y-53136964D01*
X21623839Y-53136958D01*
X21484628Y-53043940D01*
X21329936Y-52979865D01*
X21329928Y-52979863D01*
X21165721Y-52947200D01*
X20998279Y-52947200D01*
X20834071Y-52979863D01*
X20834063Y-52979865D01*
X20679372Y-53043940D01*
X20679371Y-53043940D01*
X20540160Y-53136958D01*
X20540152Y-53136964D01*
X20421764Y-53255352D01*
X20421758Y-53255360D01*
X20328740Y-53394571D01*
X20328740Y-53394572D01*
X20264665Y-53549263D01*
X20264663Y-53549271D01*
X20232000Y-53713477D01*
X19592500Y-53713477D01*
X19592500Y-53693735D01*
X19552130Y-53490780D01*
X19472941Y-53299602D01*
X19357977Y-53127545D01*
X19357975Y-53127542D01*
X19211657Y-52981224D01*
X19113501Y-52915639D01*
X19039598Y-52866259D01*
X19020516Y-52858355D01*
X18848420Y-52787070D01*
X18848412Y-52787068D01*
X18645469Y-52746700D01*
X18645465Y-52746700D01*
X18438535Y-52746700D01*
X18438530Y-52746700D01*
X18235587Y-52787068D01*
X18235575Y-52787071D01*
X18140028Y-52826648D01*
X18070559Y-52834117D01*
X18008080Y-52802841D01*
X18004895Y-52799768D01*
X17633819Y-52428692D01*
X17619115Y-52401764D01*
X17602523Y-52375946D01*
X17601631Y-52369745D01*
X17600334Y-52367369D01*
X17597500Y-52341011D01*
X17597500Y-52097695D01*
X17617185Y-52030656D01*
X17669989Y-51984901D01*
X17739147Y-51974957D01*
X17802703Y-52003982D01*
X17809181Y-52010014D01*
X17872342Y-52073175D01*
X17872345Y-52073177D01*
X18044402Y-52188141D01*
X18235580Y-52267330D01*
X18380052Y-52296067D01*
X18438530Y-52307699D01*
X18438534Y-52307700D01*
X18438535Y-52307700D01*
X18645466Y-52307700D01*
X18645467Y-52307699D01*
X18848420Y-52267330D01*
X19039598Y-52188141D01*
X19211655Y-52073177D01*
X19357977Y-51926855D01*
X19472941Y-51754798D01*
X19552130Y-51563620D01*
X19592500Y-51360665D01*
X19592500Y-51153735D01*
X19552130Y-50950780D01*
X19472941Y-50759602D01*
X19357977Y-50587545D01*
X19357975Y-50587542D01*
X19211657Y-50441224D01*
X19087316Y-50358143D01*
X19039598Y-50326259D01*
X19039593Y-50326257D01*
X18848420Y-50247070D01*
X18848412Y-50247068D01*
X18645469Y-50206700D01*
X18645465Y-50206700D01*
X18438535Y-50206700D01*
X18438530Y-50206700D01*
X18235587Y-50247068D01*
X18235579Y-50247070D01*
X18044403Y-50326258D01*
X17872342Y-50441224D01*
X17872341Y-50441225D01*
X17809181Y-50504386D01*
X17747858Y-50537871D01*
X17678166Y-50532887D01*
X17622233Y-50491015D01*
X17597816Y-50425551D01*
X17597500Y-50416705D01*
X17597500Y-50003549D01*
X17597500Y-50003547D01*
X17575318Y-49920762D01*
X17575318Y-49920761D01*
X17532465Y-49846538D01*
X15793606Y-48107679D01*
X15760121Y-48046356D01*
X15757287Y-48019998D01*
X15757287Y-47978265D01*
X15757286Y-47978261D01*
X15751872Y-47958053D01*
X15735105Y-47895478D01*
X15692252Y-47821255D01*
X15100519Y-47229522D01*
X15067034Y-47168199D01*
X15064200Y-47141841D01*
X15064200Y-34677685D01*
X15083885Y-34610646D01*
X15136689Y-34564891D01*
X15205847Y-34554947D01*
X15220268Y-34557904D01*
X15328108Y-34586800D01*
X15328111Y-34586800D01*
X15459890Y-34586800D01*
X15459892Y-34586800D01*
X15587186Y-34552692D01*
X15701314Y-34486800D01*
X15794500Y-34393614D01*
X15860392Y-34279486D01*
X15894500Y-34152192D01*
X15894500Y-34097489D01*
X15903144Y-34068048D01*
X15909668Y-34038062D01*
X15913422Y-34033046D01*
X15914185Y-34030450D01*
X15930819Y-34009808D01*
X15996019Y-33944608D01*
X16057342Y-33911123D01*
X16127034Y-33916107D01*
X16182967Y-33957979D01*
X16207384Y-34023443D01*
X16207700Y-34032289D01*
X16207700Y-42355724D01*
X16188015Y-42422763D01*
X16171381Y-42443405D01*
X16132702Y-42482083D01*
X16132700Y-42482086D01*
X16066808Y-42596212D01*
X16032700Y-42723508D01*
X16032700Y-42855291D01*
X16066808Y-42982587D01*
X16069249Y-42986814D01*
X16132700Y-43096714D01*
X16225886Y-43189900D01*
X16340014Y-43255792D01*
X16467308Y-43289900D01*
X16467310Y-43289900D01*
X16599090Y-43289900D01*
X16599092Y-43289900D01*
X16726386Y-43255792D01*
X16840514Y-43189900D01*
X16933700Y-43096714D01*
X16999592Y-42982586D01*
X17033700Y-42855292D01*
X17033700Y-42723508D01*
X16999592Y-42596214D01*
X16933700Y-42482086D01*
X16895019Y-42443405D01*
X16861534Y-42382082D01*
X16858700Y-42355724D01*
X16858700Y-41697089D01*
X16878385Y-41630050D01*
X16931189Y-41584295D01*
X17000347Y-41574351D01*
X17063903Y-41603376D01*
X17070381Y-41609408D01*
X21350831Y-45889858D01*
X21384316Y-45951181D01*
X21379332Y-46020873D01*
X21337460Y-46076806D01*
X21295244Y-46097313D01*
X21191514Y-46125108D01*
X21191512Y-46125108D01*
X21191512Y-46125109D01*
X21077386Y-46191000D01*
X21077383Y-46191002D01*
X20984202Y-46284183D01*
X20984200Y-46284186D01*
X20918308Y-46398312D01*
X20884200Y-46525608D01*
X20884200Y-46580311D01*
X20866522Y-46644121D01*
X20858671Y-46657201D01*
X20821535Y-46694338D01*
X20778682Y-46768561D01*
X20772573Y-46791362D01*
X20768072Y-46808159D01*
X20768070Y-46808163D01*
X20756500Y-46851347D01*
X20756500Y-50172119D01*
X20736815Y-50239158D01*
X20684011Y-50284913D01*
X20679953Y-50286680D01*
X20584403Y-50326257D01*
X20412342Y-50441224D01*
X20266024Y-50587542D01*
X20151058Y-50759603D01*
X20071870Y-50950779D01*
X20071868Y-50950787D01*
X20031500Y-51153730D01*
X20031500Y-51360669D01*
X20071868Y-51563612D01*
X20071870Y-51563620D01*
X20141140Y-51730853D01*
X20151059Y-51754798D01*
X20180625Y-51799047D01*
X20266024Y-51926857D01*
X20412342Y-52073175D01*
X20412345Y-52073177D01*
X20584402Y-52188141D01*
X20775580Y-52267330D01*
X20920052Y-52296067D01*
X20978530Y-52307699D01*
X20978534Y-52307700D01*
X20978535Y-52307700D01*
X21185466Y-52307700D01*
X21185467Y-52307699D01*
X21388420Y-52267330D01*
X21579598Y-52188141D01*
X21751655Y-52073177D01*
X21897977Y-51926855D01*
X21921599Y-51891502D01*
X21975210Y-51846696D01*
X22044535Y-51837987D01*
X22107563Y-51868141D01*
X22112383Y-51872710D01*
X22547373Y-52307699D01*
X22966733Y-52727059D01*
X22966735Y-52727062D01*
X22986373Y-52746700D01*
X23006490Y-52766817D01*
X23039975Y-52828140D01*
X23037848Y-52857868D01*
X23034990Y-52897829D01*
X23034989Y-52897830D01*
X23034989Y-52897832D01*
X23016012Y-52923181D01*
X22993120Y-52953763D01*
X22987700Y-52957598D01*
X22952347Y-52981220D01*
X22952341Y-52981225D01*
X22806024Y-53127542D01*
X22691058Y-53299603D01*
X22611870Y-53490779D01*
X22611868Y-53490787D01*
X22571500Y-53693730D01*
X22571500Y-53900669D01*
X22611868Y-54103612D01*
X22611870Y-54103620D01*
X22677939Y-54263125D01*
X22691059Y-54294798D01*
X22720625Y-54339047D01*
X22806024Y-54466857D01*
X22952342Y-54613175D01*
X22952345Y-54613177D01*
X23124402Y-54728141D01*
X23315580Y-54807330D01*
X23518530Y-54847699D01*
X23518534Y-54847700D01*
X23518535Y-54847700D01*
X23725466Y-54847700D01*
X23725467Y-54847699D01*
X23928420Y-54807330D01*
X24023970Y-54767750D01*
X24093439Y-54760282D01*
X24155918Y-54791557D01*
X24159104Y-54794631D01*
X24641038Y-55276565D01*
X24641045Y-55276569D01*
X24641767Y-55277123D01*
X24642229Y-55277756D01*
X24646785Y-55282312D01*
X24646074Y-55283022D01*
X24682970Y-55333551D01*
X24687125Y-55403297D01*
X24652913Y-55464218D01*
X24591197Y-55496971D01*
X24566281Y-55499500D01*
X624500Y-55499500D01*
X557461Y-55479815D01*
X511706Y-55427011D01*
X500500Y-55375500D01*
X500500Y-52378711D01*
X1649500Y-52378711D01*
X1649500Y-52621288D01*
X1680709Y-52858355D01*
X1681162Y-52861789D01*
X1692406Y-52903750D01*
X1743947Y-53096104D01*
X1785784Y-53197106D01*
X1836776Y-53320212D01*
X1958064Y-53530289D01*
X1958066Y-53530292D01*
X1958067Y-53530293D01*
X2105733Y-53722736D01*
X2105739Y-53722743D01*
X2277256Y-53894260D01*
X2277263Y-53894266D01*
X2285604Y-53900666D01*
X2469711Y-54041936D01*
X2679788Y-54163224D01*
X2903900Y-54256054D01*
X3138211Y-54318838D01*
X3318586Y-54342584D01*
X3378711Y-54350500D01*
X3378712Y-54350500D01*
X3621289Y-54350500D01*
X3669388Y-54344167D01*
X3861789Y-54318838D01*
X4096100Y-54256054D01*
X4320212Y-54163224D01*
X4530289Y-54041936D01*
X4722738Y-53894265D01*
X4894265Y-53722738D01*
X4916524Y-53693730D01*
X7331500Y-53693730D01*
X7331500Y-53900669D01*
X7371868Y-54103612D01*
X7371870Y-54103620D01*
X7437939Y-54263125D01*
X7451059Y-54294798D01*
X7480625Y-54339047D01*
X7566024Y-54466857D01*
X7712342Y-54613175D01*
X7712345Y-54613177D01*
X7884402Y-54728141D01*
X8075580Y-54807330D01*
X8278530Y-54847699D01*
X8278534Y-54847700D01*
X8278535Y-54847700D01*
X8485466Y-54847700D01*
X8485467Y-54847699D01*
X8688420Y-54807330D01*
X8879598Y-54728141D01*
X9051655Y-54613177D01*
X9197977Y-54466855D01*
X9312941Y-54294798D01*
X9392130Y-54103620D01*
X9432500Y-53900665D01*
X9432500Y-53693735D01*
X9432499Y-53693730D01*
X9871500Y-53693730D01*
X9871500Y-53900669D01*
X9911868Y-54103612D01*
X9911870Y-54103620D01*
X9977939Y-54263125D01*
X9991059Y-54294798D01*
X10020625Y-54339047D01*
X10106024Y-54466857D01*
X10252342Y-54613175D01*
X10252345Y-54613177D01*
X10424402Y-54728141D01*
X10615580Y-54807330D01*
X10818530Y-54847699D01*
X10818534Y-54847700D01*
X10818535Y-54847700D01*
X11025466Y-54847700D01*
X11025467Y-54847699D01*
X11228420Y-54807330D01*
X11419598Y-54728141D01*
X11591655Y-54613177D01*
X11737977Y-54466855D01*
X11852941Y-54294798D01*
X11932130Y-54103620D01*
X11972500Y-53900665D01*
X11972500Y-53693735D01*
X11972499Y-53693730D01*
X12411500Y-53693730D01*
X12411500Y-53900669D01*
X12451868Y-54103612D01*
X12451870Y-54103620D01*
X12517939Y-54263125D01*
X12531059Y-54294798D01*
X12560625Y-54339047D01*
X12646024Y-54466857D01*
X12792342Y-54613175D01*
X12792345Y-54613177D01*
X12964402Y-54728141D01*
X13155580Y-54807330D01*
X13358530Y-54847699D01*
X13358534Y-54847700D01*
X13358535Y-54847700D01*
X13565466Y-54847700D01*
X13565467Y-54847699D01*
X13768420Y-54807330D01*
X13959598Y-54728141D01*
X14131655Y-54613177D01*
X14277977Y-54466855D01*
X14392941Y-54294798D01*
X14472130Y-54103620D01*
X14512500Y-53900665D01*
X14512500Y-53713477D01*
X15152000Y-53713477D01*
X15152000Y-53880922D01*
X15184663Y-54045128D01*
X15184665Y-54045136D01*
X15248740Y-54199827D01*
X15248740Y-54199828D01*
X15341758Y-54339039D01*
X15341764Y-54339047D01*
X15460152Y-54457435D01*
X15460160Y-54457441D01*
X15599371Y-54550459D01*
X15754063Y-54614534D01*
X15754071Y-54614536D01*
X15918277Y-54647199D01*
X15918280Y-54647200D01*
X16085720Y-54647200D01*
X16085722Y-54647199D01*
X16249928Y-54614536D01*
X16249936Y-54614534D01*
X16404627Y-54550459D01*
X16404628Y-54550459D01*
X16543839Y-54457441D01*
X16543847Y-54457435D01*
X16662235Y-54339047D01*
X16662241Y-54339039D01*
X16755259Y-54199828D01*
X16755259Y-54199827D01*
X16819334Y-54045136D01*
X16819336Y-54045128D01*
X16851999Y-53880922D01*
X16852000Y-53880920D01*
X16852000Y-53713479D01*
X16851999Y-53713477D01*
X16819336Y-53549271D01*
X16819334Y-53549263D01*
X16755259Y-53394572D01*
X16755259Y-53394571D01*
X16662241Y-53255360D01*
X16662235Y-53255352D01*
X16543847Y-53136964D01*
X16543839Y-53136958D01*
X16404628Y-53043940D01*
X16249936Y-52979865D01*
X16249928Y-52979863D01*
X16085721Y-52947200D01*
X15918279Y-52947200D01*
X15754071Y-52979863D01*
X15754063Y-52979865D01*
X15599372Y-53043940D01*
X15599371Y-53043940D01*
X15460160Y-53136958D01*
X15460152Y-53136964D01*
X15341764Y-53255352D01*
X15341758Y-53255360D01*
X15248740Y-53394571D01*
X15248740Y-53394572D01*
X15184665Y-53549263D01*
X15184663Y-53549271D01*
X15152000Y-53713477D01*
X14512500Y-53713477D01*
X14512500Y-53693735D01*
X14472130Y-53490780D01*
X14392941Y-53299602D01*
X14277977Y-53127545D01*
X14277975Y-53127542D01*
X14131657Y-52981224D01*
X14033501Y-52915639D01*
X13959598Y-52866259D01*
X13940516Y-52858355D01*
X13768420Y-52787070D01*
X13768412Y-52787068D01*
X13565469Y-52746700D01*
X13565465Y-52746700D01*
X13358535Y-52746700D01*
X13358530Y-52746700D01*
X13155587Y-52787068D01*
X13155579Y-52787070D01*
X12964403Y-52866258D01*
X12792342Y-52981224D01*
X12646024Y-53127542D01*
X12531058Y-53299603D01*
X12451870Y-53490779D01*
X12451868Y-53490787D01*
X12411500Y-53693730D01*
X11972499Y-53693730D01*
X11932130Y-53490780D01*
X11852941Y-53299602D01*
X11737977Y-53127545D01*
X11737975Y-53127542D01*
X11591657Y-52981224D01*
X11493501Y-52915639D01*
X11419598Y-52866259D01*
X11400516Y-52858355D01*
X11228420Y-52787070D01*
X11228412Y-52787068D01*
X11025469Y-52746700D01*
X11025465Y-52746700D01*
X10818535Y-52746700D01*
X10818530Y-52746700D01*
X10615587Y-52787068D01*
X10615579Y-52787070D01*
X10424403Y-52866258D01*
X10252342Y-52981224D01*
X10106024Y-53127542D01*
X9991058Y-53299603D01*
X9911870Y-53490779D01*
X9911868Y-53490787D01*
X9871500Y-53693730D01*
X9432499Y-53693730D01*
X9392130Y-53490780D01*
X9312941Y-53299602D01*
X9197977Y-53127545D01*
X9197975Y-53127542D01*
X9051657Y-52981224D01*
X8953501Y-52915639D01*
X8879598Y-52866259D01*
X8860516Y-52858355D01*
X8688420Y-52787070D01*
X8688412Y-52787068D01*
X8485469Y-52746700D01*
X8485465Y-52746700D01*
X8278535Y-52746700D01*
X8278530Y-52746700D01*
X8075587Y-52787068D01*
X8075579Y-52787070D01*
X7884403Y-52866258D01*
X7712342Y-52981224D01*
X7566024Y-53127542D01*
X7451058Y-53299603D01*
X7371870Y-53490779D01*
X7371868Y-53490787D01*
X7331500Y-53693730D01*
X4916524Y-53693730D01*
X5041936Y-53530289D01*
X5163224Y-53320212D01*
X5256054Y-53096100D01*
X5318838Y-52861789D01*
X5350500Y-52621288D01*
X5350500Y-52378712D01*
X5349319Y-52369745D01*
X5335837Y-52267331D01*
X5318838Y-52138211D01*
X5256054Y-51903900D01*
X5250489Y-51890466D01*
X5218667Y-51813639D01*
X5163224Y-51679788D01*
X5041936Y-51469711D01*
X4943113Y-51340922D01*
X4894266Y-51277263D01*
X4894260Y-51277256D01*
X4790481Y-51173477D01*
X7532000Y-51173477D01*
X7532000Y-51340922D01*
X7564663Y-51505128D01*
X7564665Y-51505136D01*
X7628740Y-51659827D01*
X7628740Y-51659828D01*
X7721758Y-51799039D01*
X7721764Y-51799047D01*
X7840152Y-51917435D01*
X7840160Y-51917441D01*
X7979371Y-52010459D01*
X8134063Y-52074534D01*
X8134071Y-52074536D01*
X8298277Y-52107199D01*
X8298280Y-52107200D01*
X8465720Y-52107200D01*
X8465722Y-52107199D01*
X8629928Y-52074536D01*
X8629936Y-52074534D01*
X8784627Y-52010459D01*
X8784628Y-52010459D01*
X8923839Y-51917441D01*
X8923847Y-51917435D01*
X9042235Y-51799047D01*
X9042241Y-51799039D01*
X9135259Y-51659828D01*
X9135259Y-51659827D01*
X9199334Y-51505136D01*
X9199336Y-51505128D01*
X9231999Y-51340922D01*
X9232000Y-51340920D01*
X9232000Y-51173479D01*
X9231999Y-51173477D01*
X9199336Y-51009271D01*
X9199334Y-51009263D01*
X9135259Y-50854572D01*
X9135259Y-50854571D01*
X9042241Y-50715360D01*
X9042235Y-50715352D01*
X8923847Y-50596964D01*
X8923839Y-50596958D01*
X8784628Y-50503940D01*
X8629936Y-50439865D01*
X8629928Y-50439863D01*
X8465721Y-50407200D01*
X8298279Y-50407200D01*
X8134071Y-50439863D01*
X8134063Y-50439865D01*
X7979372Y-50503940D01*
X7979371Y-50503940D01*
X7840160Y-50596958D01*
X7840152Y-50596964D01*
X7721764Y-50715352D01*
X7721758Y-50715360D01*
X7628740Y-50854571D01*
X7628740Y-50854572D01*
X7564665Y-51009263D01*
X7564663Y-51009271D01*
X7532000Y-51173477D01*
X4790481Y-51173477D01*
X4722743Y-51105739D01*
X4722736Y-51105733D01*
X4530293Y-50958067D01*
X4530292Y-50958066D01*
X4530289Y-50958064D01*
X4320212Y-50836776D01*
X4289996Y-50824260D01*
X4096104Y-50743947D01*
X3861785Y-50681161D01*
X3621289Y-50649500D01*
X3621288Y-50649500D01*
X3378712Y-50649500D01*
X3378711Y-50649500D01*
X3138214Y-50681161D01*
X2903895Y-50743947D01*
X2679794Y-50836773D01*
X2679785Y-50836777D01*
X2497851Y-50941817D01*
X2471610Y-50956968D01*
X2469706Y-50958067D01*
X2277263Y-51105733D01*
X2277256Y-51105739D01*
X2105739Y-51277256D01*
X2105733Y-51277263D01*
X1958067Y-51469706D01*
X1836777Y-51679785D01*
X1836773Y-51679794D01*
X1743947Y-51903895D01*
X1681161Y-52138214D01*
X1649500Y-52378711D01*
X500500Y-52378711D01*
X500500Y-29378711D01*
X1649500Y-29378711D01*
X1649500Y-29621288D01*
X1681161Y-29861785D01*
X1743947Y-30096104D01*
X1836773Y-30320205D01*
X1836776Y-30320212D01*
X1958064Y-30530289D01*
X1958066Y-30530292D01*
X1958067Y-30530293D01*
X2105733Y-30722736D01*
X2105739Y-30722743D01*
X2277256Y-30894260D01*
X2277263Y-30894266D01*
X2304880Y-30915457D01*
X2469711Y-31041936D01*
X2679788Y-31163224D01*
X2903900Y-31256054D01*
X3138211Y-31318838D01*
X3318586Y-31342584D01*
X3378711Y-31350500D01*
X3378712Y-31350500D01*
X3621289Y-31350500D01*
X3669388Y-31344167D01*
X3861789Y-31318838D01*
X4096100Y-31256054D01*
X4320212Y-31163224D01*
X4530289Y-31041936D01*
X4722738Y-30894265D01*
X4894265Y-30722738D01*
X5041936Y-30530289D01*
X5163224Y-30320212D01*
X5256054Y-30096100D01*
X5318838Y-29861789D01*
X5350500Y-29621288D01*
X5350500Y-29378712D01*
X5318838Y-29138211D01*
X5256054Y-28903900D01*
X5163224Y-28679788D01*
X5041936Y-28469711D01*
X4981018Y-28390321D01*
X4894266Y-28277263D01*
X4894260Y-28277256D01*
X4722743Y-28105739D01*
X4722736Y-28105733D01*
X4530293Y-27958067D01*
X4530292Y-27958066D01*
X4530289Y-27958064D01*
X4320212Y-27836776D01*
X4313643Y-27834055D01*
X4096104Y-27743947D01*
X3904338Y-27692563D01*
X3861789Y-27681162D01*
X3861788Y-27681161D01*
X3861785Y-27681161D01*
X3621289Y-27649500D01*
X3621288Y-27649500D01*
X3378712Y-27649500D01*
X3378711Y-27649500D01*
X3138214Y-27681161D01*
X2903895Y-27743947D01*
X2679794Y-27836773D01*
X2679785Y-27836777D01*
X2469706Y-27958067D01*
X2277263Y-28105733D01*
X2277256Y-28105739D01*
X2105739Y-28277256D01*
X2105733Y-28277263D01*
X1958067Y-28469706D01*
X1836777Y-28679785D01*
X1836773Y-28679794D01*
X1743947Y-28903895D01*
X1681161Y-29138214D01*
X1649500Y-29378711D01*
X500500Y-29378711D01*
X500500Y-3378711D01*
X1649500Y-3378711D01*
X1649500Y-3621288D01*
X1681161Y-3861785D01*
X1743947Y-4096104D01*
X1836773Y-4320205D01*
X1836777Y-4320214D01*
X1853974Y-4350000D01*
X1958064Y-4530289D01*
X1958066Y-4530292D01*
X1958067Y-4530293D01*
X2105733Y-4722736D01*
X2105739Y-4722743D01*
X2277256Y-4894260D01*
X2277262Y-4894265D01*
X2469711Y-5041936D01*
X2679788Y-5163224D01*
X2903900Y-5256054D01*
X3138211Y-5318838D01*
X3318586Y-5342584D01*
X3378711Y-5350500D01*
X3378712Y-5350500D01*
X3621289Y-5350500D01*
X3669388Y-5344167D01*
X3861789Y-5318838D01*
X4096100Y-5256054D01*
X4320212Y-5163224D01*
X4530289Y-5041936D01*
X4722738Y-4894265D01*
X4894265Y-4722738D01*
X5041936Y-4530289D01*
X5163224Y-4320212D01*
X5256054Y-4096100D01*
X5318838Y-3861789D01*
X5350500Y-3621288D01*
X5350500Y-3378712D01*
X5318838Y-3138211D01*
X5256054Y-2903900D01*
X5163224Y-2679788D01*
X5041936Y-2469711D01*
X4894265Y-2277262D01*
X4894260Y-2277256D01*
X4722743Y-2105739D01*
X4722736Y-2105733D01*
X4530293Y-1958067D01*
X4530292Y-1958066D01*
X4530289Y-1958064D01*
X4320212Y-1836776D01*
X4320205Y-1836773D01*
X4096104Y-1743947D01*
X3861785Y-1681161D01*
X3621289Y-1649500D01*
X3621288Y-1649500D01*
X3378712Y-1649500D01*
X3378711Y-1649500D01*
X3138214Y-1681161D01*
X2903895Y-1743947D01*
X2679794Y-1836773D01*
X2679785Y-1836777D01*
X2469706Y-1958067D01*
X2277263Y-2105733D01*
X2277256Y-2105739D01*
X2105739Y-2277256D01*
X2105733Y-2277263D01*
X1958067Y-2469706D01*
X1836777Y-2679785D01*
X1836773Y-2679794D01*
X1743947Y-2903895D01*
X1681161Y-3138214D01*
X1649500Y-3378711D01*
X500500Y-3378711D01*
X500500Y-624500D01*
X520185Y-557461D01*
X572989Y-511706D01*
X624500Y-500500D01*
X64375500Y-500500D01*
X64442539Y-520185D01*
G37*
%TD.AperFunction*%
%TA.AperFunction,Conductor*%
G36*
X27072095Y-51680059D02*
G01*
X27108815Y-51739502D01*
X27108991Y-51740151D01*
X27112916Y-51754798D01*
X27128682Y-51813640D01*
X27141059Y-51835077D01*
X27171535Y-51887862D01*
X27171537Y-51887864D01*
X27273692Y-51990019D01*
X27307177Y-52051342D01*
X27302193Y-52121034D01*
X27260321Y-52176967D01*
X27194857Y-52201384D01*
X27186011Y-52201700D01*
X26687189Y-52201700D01*
X26620150Y-52182015D01*
X26574395Y-52129211D01*
X26564451Y-52060053D01*
X26593476Y-51996497D01*
X26618299Y-51974598D01*
X26703839Y-51917441D01*
X26703847Y-51917435D01*
X26822236Y-51799046D01*
X26886131Y-51703419D01*
X26939743Y-51658614D01*
X27009068Y-51649905D01*
X27072095Y-51680059D01*
G37*
%TD.AperFunction*%
%TA.AperFunction,Conductor*%
G36*
X47376134Y-46088194D02*
G01*
X47432067Y-46130066D01*
X47456484Y-46195530D01*
X47456800Y-46204376D01*
X47456800Y-50777358D01*
X47437115Y-50844397D01*
X47384311Y-50890152D01*
X47315153Y-50900096D01*
X47251597Y-50871071D01*
X47229698Y-50846249D01*
X47142238Y-50715355D01*
X47023847Y-50596964D01*
X47023839Y-50596958D01*
X46884628Y-50503940D01*
X46729936Y-50439865D01*
X46729928Y-50439863D01*
X46565721Y-50407200D01*
X46398279Y-50407200D01*
X46234071Y-50439863D01*
X46234063Y-50439865D01*
X46079372Y-50503940D01*
X46079371Y-50503940D01*
X45940160Y-50596958D01*
X45940152Y-50596964D01*
X45821764Y-50715352D01*
X45821758Y-50715360D01*
X45728740Y-50854571D01*
X45728740Y-50854572D01*
X45708861Y-50902565D01*
X45665020Y-50956968D01*
X45598725Y-50979033D01*
X45531026Y-50961753D01*
X45483416Y-50910616D01*
X45470300Y-50855112D01*
X45470300Y-47695388D01*
X45489985Y-47628349D01*
X45506619Y-47607707D01*
X46861007Y-46253319D01*
X46922330Y-46219834D01*
X46948688Y-46217000D01*
X47003390Y-46217000D01*
X47003392Y-46217000D01*
X47130686Y-46182892D01*
X47244814Y-46117000D01*
X47245119Y-46116695D01*
X47245436Y-46116521D01*
X47251260Y-46112053D01*
X47251956Y-46112961D01*
X47306442Y-46083210D01*
X47376134Y-46088194D01*
G37*
%TD.AperFunction*%
%TA.AperFunction,Conductor*%
G36*
X18613317Y-35408582D02*
G01*
X18626244Y-35408159D01*
X18645704Y-35419782D01*
X18667127Y-35427190D01*
X18682909Y-35440536D01*
X27538181Y-44295807D01*
X27571666Y-44357130D01*
X27574500Y-44383488D01*
X27574500Y-48724406D01*
X27554815Y-48791445D01*
X27502011Y-48837200D01*
X27432853Y-48847144D01*
X27369297Y-48818119D01*
X27362819Y-48812087D01*
X26107119Y-47556387D01*
X26073634Y-47495064D01*
X26070800Y-47468706D01*
X26070800Y-45302876D01*
X26090485Y-45235837D01*
X26107119Y-45215195D01*
X26145800Y-45176514D01*
X26211692Y-45062386D01*
X26245800Y-44935092D01*
X26245800Y-44803308D01*
X26211692Y-44676014D01*
X26210586Y-44674099D01*
X26175181Y-44612776D01*
X26145800Y-44561886D01*
X26052614Y-44468700D01*
X25979671Y-44426586D01*
X25938487Y-44402808D01*
X25866382Y-44383488D01*
X25811192Y-44368700D01*
X25679408Y-44368700D01*
X25552112Y-44402808D01*
X25437986Y-44468700D01*
X25437983Y-44468702D01*
X25344802Y-44561883D01*
X25344800Y-44561886D01*
X25278908Y-44676012D01*
X25244800Y-44803308D01*
X25244800Y-44935091D01*
X25278908Y-45062387D01*
X25311854Y-45119450D01*
X25344800Y-45176514D01*
X25344802Y-45176516D01*
X25383481Y-45215195D01*
X25416966Y-45276518D01*
X25419800Y-45302876D01*
X25419800Y-47697747D01*
X25441982Y-47780535D01*
X25447311Y-47789764D01*
X25484835Y-47854757D01*
X25484837Y-47854759D01*
X27070181Y-49440103D01*
X27103666Y-49501426D01*
X27106500Y-49527784D01*
X27106500Y-50732011D01*
X27086815Y-50799050D01*
X27034011Y-50844805D01*
X26964853Y-50854749D01*
X26901297Y-50825724D01*
X26879398Y-50800901D01*
X26822241Y-50715360D01*
X26822235Y-50715352D01*
X26703847Y-50596964D01*
X26703839Y-50596958D01*
X26564628Y-50503940D01*
X26409936Y-50439865D01*
X26409928Y-50439863D01*
X26245721Y-50407200D01*
X26078279Y-50407200D01*
X25914071Y-50439863D01*
X25914063Y-50439865D01*
X25759372Y-50503940D01*
X25759371Y-50503940D01*
X25620160Y-50596958D01*
X25620152Y-50596964D01*
X25501764Y-50715352D01*
X25501758Y-50715360D01*
X25444602Y-50800901D01*
X25390990Y-50845707D01*
X25321665Y-50854414D01*
X25258638Y-50824260D01*
X25221918Y-50764817D01*
X25217500Y-50732011D01*
X25217500Y-50096544D01*
X25217501Y-50096531D01*
X25217501Y-50000837D01*
X25217501Y-50000836D01*
X25195318Y-49918051D01*
X25183635Y-49897816D01*
X25152465Y-49843827D01*
X25091862Y-49783224D01*
X25091859Y-49783222D01*
X24737061Y-49428424D01*
X24384097Y-49075459D01*
X24350612Y-49014136D01*
X24347778Y-48987778D01*
X24347778Y-44285227D01*
X24347778Y-44285225D01*
X24325596Y-44202440D01*
X24325596Y-44202439D01*
X24282743Y-44128216D01*
X18312219Y-38157692D01*
X18278734Y-38096369D01*
X18275900Y-38070011D01*
X18275900Y-36187976D01*
X18295585Y-36120937D01*
X18312219Y-36100295D01*
X18329621Y-36082893D01*
X18350900Y-36061614D01*
X18416792Y-35947486D01*
X18450900Y-35820192D01*
X18450900Y-35688408D01*
X18421354Y-35578139D01*
X18421485Y-35572637D01*
X18419036Y-35567709D01*
X18422307Y-35538091D01*
X18423017Y-35508291D01*
X18426102Y-35503731D01*
X18426707Y-35498262D01*
X18445474Y-35475111D01*
X18462180Y-35450429D01*
X18468157Y-35447130D01*
X18470706Y-35443986D01*
X18490056Y-35435044D01*
X18502313Y-35428280D01*
X18505632Y-35427185D01*
X18536586Y-35418892D01*
X18544288Y-35414444D01*
X18556412Y-35410449D01*
X18579066Y-35409706D01*
X18601094Y-35404356D01*
X18613317Y-35408582D01*
G37*
%TD.AperFunction*%
%TA.AperFunction,Conductor*%
G36*
X46169167Y-35647023D02*
G01*
X46184922Y-35660350D01*
X47420481Y-36895907D01*
X47453966Y-36957230D01*
X47456800Y-36983588D01*
X47456800Y-45228624D01*
X47437115Y-45295663D01*
X47384311Y-45341418D01*
X47315153Y-45351362D01*
X47251597Y-45322337D01*
X47245119Y-45316305D01*
X47244816Y-45316002D01*
X47244814Y-45316000D01*
X47187750Y-45283054D01*
X47130687Y-45250108D01*
X47050506Y-45228624D01*
X47003392Y-45216000D01*
X46871608Y-45216000D01*
X46744312Y-45250108D01*
X46630186Y-45316000D01*
X46630183Y-45316002D01*
X46537002Y-45409183D01*
X46537000Y-45409186D01*
X46471108Y-45523312D01*
X46437000Y-45650608D01*
X46437000Y-45705311D01*
X46417315Y-45772350D01*
X46400681Y-45792992D01*
X44884337Y-47309335D01*
X44884335Y-47309338D01*
X44841482Y-47383560D01*
X44841482Y-47383561D01*
X44822697Y-47453668D01*
X44820432Y-47462120D01*
X44819300Y-47466346D01*
X44819300Y-50349505D01*
X44799615Y-50416544D01*
X44746811Y-50462299D01*
X44677653Y-50472243D01*
X44616862Y-50444481D01*
X44616365Y-50445088D01*
X44611657Y-50441224D01*
X44439596Y-50326257D01*
X44344047Y-50286680D01*
X44289644Y-50242839D01*
X44267579Y-50176545D01*
X44267500Y-50172119D01*
X44267500Y-37303114D01*
X44274380Y-37262384D01*
X44278238Y-37251287D01*
X44294318Y-37223438D01*
X44315782Y-37143332D01*
X44317263Y-37139074D01*
X44329421Y-37122052D01*
X44346700Y-37092125D01*
X45676107Y-35762719D01*
X45737430Y-35729234D01*
X45763788Y-35726400D01*
X45818490Y-35726400D01*
X45818492Y-35726400D01*
X45945786Y-35692292D01*
X46035241Y-35640644D01*
X46103139Y-35624171D01*
X46169167Y-35647023D01*
G37*
%TD.AperFunction*%
%TA.AperFunction,Conductor*%
G36*
X10555462Y-11303990D02*
G01*
X10592182Y-11363433D01*
X10596600Y-11396239D01*
X10596600Y-12570805D01*
X10576915Y-12637844D01*
X10524111Y-12683599D01*
X10454953Y-12693543D01*
X10391397Y-12664518D01*
X10384919Y-12658486D01*
X10321657Y-12595224D01*
X10169904Y-12493827D01*
X10149598Y-12480259D01*
X10106253Y-12462305D01*
X9958420Y-12401070D01*
X9958412Y-12401068D01*
X9755469Y-12360700D01*
X9755465Y-12360700D01*
X9548535Y-12360700D01*
X9548530Y-12360700D01*
X9345587Y-12401068D01*
X9345579Y-12401070D01*
X9154403Y-12480258D01*
X8982342Y-12595224D01*
X8982341Y-12595225D01*
X8972481Y-12605086D01*
X8911158Y-12638571D01*
X8841466Y-12633587D01*
X8785533Y-12591715D01*
X8761116Y-12526251D01*
X8760800Y-12517405D01*
X8760800Y-11476158D01*
X8780485Y-11409119D01*
X8833289Y-11363364D01*
X8902447Y-11353420D01*
X8966003Y-11382445D01*
X8987904Y-11407270D01*
X8991762Y-11413045D01*
X9110152Y-11531435D01*
X9110160Y-11531441D01*
X9249371Y-11624459D01*
X9404063Y-11688534D01*
X9404071Y-11688536D01*
X9568277Y-11721199D01*
X9568280Y-11721200D01*
X9735720Y-11721200D01*
X9735722Y-11721199D01*
X9899928Y-11688536D01*
X9899936Y-11688534D01*
X10054627Y-11624459D01*
X10054628Y-11624459D01*
X10193839Y-11531441D01*
X10193847Y-11531435D01*
X10312236Y-11413046D01*
X10369497Y-11327349D01*
X10423110Y-11282543D01*
X10492434Y-11273836D01*
X10555462Y-11303990D01*
G37*
%TD.AperFunction*%
%TA.AperFunction,Conductor*%
G36*
X18515751Y-2189985D02*
G01*
X18561506Y-2242789D01*
X18571450Y-2311947D01*
X18542425Y-2375503D01*
X18536393Y-2381981D01*
X10661637Y-10256735D01*
X10661633Y-10256741D01*
X10618781Y-10330962D01*
X10618780Y-10330963D01*
X10607357Y-10373600D01*
X10607355Y-10373607D01*
X10602176Y-10392932D01*
X10565809Y-10452591D01*
X10502961Y-10483117D01*
X10433586Y-10474819D01*
X10379710Y-10430332D01*
X10379300Y-10429723D01*
X10312236Y-10329353D01*
X10193847Y-10210964D01*
X10193839Y-10210958D01*
X10054628Y-10117940D01*
X9899936Y-10053865D01*
X9899928Y-10053863D01*
X9735721Y-10021200D01*
X9576088Y-10021200D01*
X9509049Y-10001515D01*
X9463294Y-9948711D01*
X9453350Y-9879553D01*
X9482375Y-9815997D01*
X9488407Y-9809519D01*
X17091307Y-2206619D01*
X17152630Y-2173134D01*
X17178988Y-2170300D01*
X18448712Y-2170300D01*
X18515751Y-2189985D01*
G37*
%TD.AperFunction*%
%TD*%
M02*
