%TF.GenerationSoftware,KiCad,Pcbnew,10.0.3*%
%TF.CreationDate,2026-06-14T04:58:04-05:00*%
%TF.ProjectId,rp2350-rgb-pcb,72703233-3530-42d7-9267-622d7063622e,rev?*%
%TF.SameCoordinates,Original*%
%TF.FileFunction,Paste,Top*%
%TF.FilePolarity,Positive*%
%FSLAX46Y46*%
G04 Gerber Fmt 4.6, Leading zero omitted, Abs format (unit mm)*
G04 Created by KiCad (PCBNEW 10.0.3) date 2026-06-14 04:58:04*
%MOMM*%
%LPD*%
G01*
G04 APERTURE LIST*
G04 Aperture macros list*
%AMRoundRect*
0 Rectangle with rounded corners*
0 $1 Rounding radius*
0 $2 $3 $4 $5 $6 $7 $8 $9 X,Y pos of 4 corners*
0 Add a 4 corners polygon primitive as box body*
4,1,4,$2,$3,$4,$5,$6,$7,$8,$9,$2,$3,0*
0 Add four circle primitives for the rounded corners*
1,1,$1+$1,$2,$3*
1,1,$1+$1,$4,$5*
1,1,$1+$1,$6,$7*
1,1,$1+$1,$8,$9*
0 Add four rect primitives between the rounded corners*
20,1,$1+$1,$2,$3,$4,$5,0*
20,1,$1+$1,$4,$5,$6,$7,0*
20,1,$1+$1,$6,$7,$8,$9,0*
20,1,$1+$1,$8,$9,$2,$3,0*%
G04 Aperture macros list end*
%ADD10RoundRect,0.150000X0.875000X0.150000X-0.875000X0.150000X-0.875000X-0.150000X0.875000X-0.150000X0*%
%ADD11RoundRect,0.250000X-0.475000X0.250000X-0.475000X-0.250000X0.475000X-0.250000X0.475000X0.250000X0*%
%ADD12RoundRect,0.250000X0.450000X-0.262500X0.450000X0.262500X-0.450000X0.262500X-0.450000X-0.262500X0*%
%ADD13RoundRect,0.250000X0.475000X-0.250000X0.475000X0.250000X-0.475000X0.250000X-0.475000X-0.250000X0*%
%ADD14RoundRect,0.250000X1.500000X0.550000X-1.500000X0.550000X-1.500000X-0.550000X1.500000X-0.550000X0*%
%ADD15RoundRect,0.150000X0.150000X-0.875000X0.150000X0.875000X-0.150000X0.875000X-0.150000X-0.875000X0*%
G04 APERTURE END LIST*
D10*
%TO.C,U2*%
X48465000Y-46990000D03*
X48465000Y-45720000D03*
X48465000Y-44450000D03*
X48465000Y-43180000D03*
X48465000Y-41910000D03*
X48465000Y-40640000D03*
X48465000Y-39370000D03*
X48465000Y-38100000D03*
X48465000Y-36830000D03*
X48465000Y-35560000D03*
X39165000Y-35560000D03*
X39165000Y-36830000D03*
X39165000Y-38100000D03*
X39165000Y-39370000D03*
X39165000Y-40640000D03*
X39165000Y-41910000D03*
X39165000Y-43180000D03*
X39165000Y-44450000D03*
X39165000Y-45720000D03*
X39165000Y-46990000D03*
%TD*%
D11*
%TO.C,C3*%
X8163600Y-20434500D03*
X8163600Y-22334500D03*
%TD*%
D12*
%TO.C,R2*%
X25269600Y-22358000D03*
X25269600Y-20533000D03*
%TD*%
D13*
%TO.C,C4*%
X11330000Y-47109500D03*
X11330000Y-45209500D03*
%TD*%
D11*
%TO.C,C1*%
X34114000Y-20386000D03*
X34114000Y-22286000D03*
%TD*%
D13*
%TO.C,C2*%
X36195000Y-46990000D03*
X36195000Y-45090000D03*
%TD*%
D14*
%TO.C,C5*%
X62651600Y-45364400D03*
X57251600Y-45364400D03*
%TD*%
D15*
%TO.C,U3*%
X10283600Y-30159500D03*
X11553600Y-30159500D03*
X12823600Y-30159500D03*
X14093600Y-30159500D03*
X15363600Y-30159500D03*
X16633600Y-30159500D03*
X17903600Y-30159500D03*
X19173600Y-30159500D03*
X20443600Y-30159500D03*
X21713600Y-30159500D03*
X21713600Y-20859500D03*
X20443600Y-20859500D03*
X19173600Y-20859500D03*
X17903600Y-20859500D03*
X16633600Y-20859500D03*
X15363600Y-20859500D03*
X14093600Y-20859500D03*
X12823600Y-20859500D03*
X11553600Y-20859500D03*
X10283600Y-20859500D03*
%TD*%
%TO.C,U1*%
X36400000Y-30050000D03*
X37670000Y-30050000D03*
X38940000Y-30050000D03*
X40210000Y-30050000D03*
X41480000Y-30050000D03*
X42750000Y-30050000D03*
X44020000Y-30050000D03*
X45290000Y-30050000D03*
X46560000Y-30050000D03*
X47830000Y-30050000D03*
X47830000Y-20750000D03*
X46560000Y-20750000D03*
X45290000Y-20750000D03*
X44020000Y-20750000D03*
X42750000Y-20750000D03*
X41480000Y-20750000D03*
X40210000Y-20750000D03*
X38940000Y-20750000D03*
X37670000Y-20750000D03*
X36400000Y-20750000D03*
%TD*%
D10*
%TO.C,U4*%
X23700000Y-47099500D03*
X23700000Y-45829500D03*
X23700000Y-44559500D03*
X23700000Y-43289500D03*
X23700000Y-42019500D03*
X23700000Y-40749500D03*
X23700000Y-39479500D03*
X23700000Y-38209500D03*
X23700000Y-36939500D03*
X23700000Y-35669500D03*
X14400000Y-35669500D03*
X14400000Y-36939500D03*
X14400000Y-38209500D03*
X14400000Y-39479500D03*
X14400000Y-40749500D03*
X14400000Y-42019500D03*
X14400000Y-43289500D03*
X14400000Y-44559500D03*
X14400000Y-45829500D03*
X14400000Y-47099500D03*
%TD*%
D12*
%TO.C,R1*%
X51386000Y-22248500D03*
X51386000Y-20423500D03*
%TD*%
M02*
