%TF.GenerationSoftware,KiCad,Pcbnew,10.0.3*%
%TF.CreationDate,2026-06-14T04:58:04-05:00*%
%TF.ProjectId,rp2350-rgb-pcb,72703233-3530-42d7-9267-622d7063622e,rev?*%
%TF.SameCoordinates,Original*%
%TF.FileFunction,Soldermask,Bot*%
%TF.FilePolarity,Negative*%
%FSLAX46Y46*%
G04 Gerber Fmt 4.6, Leading zero omitted, Abs format (unit mm)*
G04 Created by KiCad (PCBNEW 10.0.3) date 2026-06-14 04:58:04*
%MOMM*%
%LPD*%
G01*
G04 APERTURE LIST*
G04 Aperture macros list*
%AMRoundRect*
0 Rectangle with rounded corners*
0 $1 Rounding radius*
0 $2 $3 $4 $5 $6 $7 $8 $9 X,Y pos of 4 corners*
0 Add a 4 corners polygon primitive as box body*
4,1,4,$2,$3,$4,$5,$6,$7,$8,$9,$2,$3,0*
0 Add four circle primitives for the rounded corners*
1,1,$1+$1,$2,$3*
1,1,$1+$1,$4,$5*
1,1,$1+$1,$6,$7*
1,1,$1+$1,$8,$9*
0 Add four rect primitives between the rounded corners*
20,1,$1+$1,$2,$3,$4,$5,0*
20,1,$1+$1,$4,$5,$6,$7,0*
20,1,$1+$1,$6,$7,$8,$9,0*
20,1,$1+$1,$8,$9,$2,$3,0*%
G04 Aperture macros list end*
%ADD10C,3.200000*%
%ADD11RoundRect,0.250000X0.600000X-0.600000X0.600000X0.600000X-0.600000X0.600000X-0.600000X-0.600000X0*%
%ADD12C,1.700000*%
%ADD13RoundRect,0.250000X0.750000X-0.600000X0.750000X0.600000X-0.750000X0.600000X-0.750000X-0.600000X0*%
%ADD14O,2.000000X1.700000*%
%ADD15R,1.700000X1.700000*%
G04 APERTURE END LIST*
D10*
%TO.C,*%
X61500000Y-52500000D03*
%TD*%
%TO.C,*%
X3500000Y-29500000D03*
%TD*%
%TO.C,*%
X61500000Y-29500000D03*
%TD*%
D11*
%TO.C,J3*%
X7112000Y-13411200D03*
D12*
X7112000Y-10871200D03*
X9652000Y-13411200D03*
X9652000Y-10871200D03*
X12192000Y-13411200D03*
X12192000Y-10871200D03*
X14732000Y-13411200D03*
X14732000Y-10871200D03*
X17272000Y-13411200D03*
X17272000Y-10871200D03*
X19812000Y-13411200D03*
X19812000Y-10871200D03*
X22352000Y-13411200D03*
X22352000Y-10871200D03*
X24892000Y-13411200D03*
X24892000Y-10871200D03*
%TD*%
D10*
%TO.C,*%
X61500000Y-3500000D03*
%TD*%
%TO.C,*%
X3500000Y-3500000D03*
%TD*%
D11*
%TO.C,J2*%
X40110000Y-13350000D03*
D12*
X40110000Y-10810000D03*
X42650000Y-13350000D03*
X42650000Y-10810000D03*
X45190000Y-13350000D03*
X45190000Y-10810000D03*
X47730000Y-13350000D03*
X47730000Y-10810000D03*
X50270000Y-13350000D03*
X50270000Y-10810000D03*
X52810000Y-13350000D03*
X52810000Y-10810000D03*
X55350000Y-13350000D03*
X55350000Y-10810000D03*
X57890000Y-13350000D03*
X57890000Y-10810000D03*
%TD*%
D13*
%TO.C,J5*%
X59690000Y-38750000D03*
D14*
X59690000Y-36250000D03*
%TD*%
D15*
%TO.C,J4*%
X23110000Y-3500000D03*
D12*
X25650000Y-3500000D03*
X28190000Y-3500000D03*
X30730000Y-3500000D03*
X33270000Y-3500000D03*
X35810000Y-3500000D03*
X38350000Y-3500000D03*
X40890000Y-3500000D03*
%TD*%
D10*
%TO.C,*%
X3500000Y-52500000D03*
%TD*%
D15*
%TO.C,J1*%
X56642000Y-51257200D03*
D12*
X56642000Y-53797200D03*
X54102000Y-51257200D03*
X54102000Y-53797200D03*
X51562000Y-51257200D03*
X51562000Y-53797200D03*
X49022000Y-51257200D03*
X49022000Y-53797200D03*
X46482000Y-51257200D03*
X46482000Y-53797200D03*
X43942000Y-51257200D03*
X43942000Y-53797200D03*
X41402000Y-51257200D03*
X41402000Y-53797200D03*
X38862000Y-51257200D03*
X38862000Y-53797200D03*
X36322000Y-51257200D03*
X36322000Y-53797200D03*
X33782000Y-51257200D03*
X33782000Y-53797200D03*
X31242000Y-51257200D03*
X31242000Y-53797200D03*
X28702000Y-51257200D03*
X28702000Y-53797200D03*
X26162000Y-51257200D03*
X26162000Y-53797200D03*
X23622000Y-51257200D03*
X23622000Y-53797200D03*
X21082000Y-51257200D03*
X21082000Y-53797200D03*
X18542000Y-51257200D03*
X18542000Y-53797200D03*
X16002000Y-51257200D03*
X16002000Y-53797200D03*
X13462000Y-51257200D03*
X13462000Y-53797200D03*
X10922000Y-51257200D03*
X10922000Y-53797200D03*
X8382000Y-51257200D03*
X8382000Y-53797200D03*
%TD*%
M02*
