%TF.GenerationSoftware,KiCad,Pcbnew,10.0.3*%
%TF.CreationDate,2026-06-14T04:58:04-05:00*%
%TF.ProjectId,rp2350-rgb-pcb,72703233-3530-42d7-9267-622d7063622e,rev?*%
%TF.SameCoordinates,Original*%
%TF.FileFunction,Legend,Top*%
%TF.FilePolarity,Positive*%
%FSLAX46Y46*%
G04 Gerber Fmt 4.6, Leading zero omitted, Abs format (unit mm)*
G04 Created by KiCad (PCBNEW 10.0.3) date 2026-06-14 04:58:04*
%MOMM*%
%LPD*%
G01*
G04 APERTURE LIST*
%ADD10C,0.150000*%
%ADD11C,0.120000*%
G04 APERTURE END LIST*
D10*
X43053095Y-48079819D02*
X43053095Y-48889342D01*
X43053095Y-48889342D02*
X43100714Y-48984580D01*
X43100714Y-48984580D02*
X43148333Y-49032200D01*
X43148333Y-49032200D02*
X43243571Y-49079819D01*
X43243571Y-49079819D02*
X43434047Y-49079819D01*
X43434047Y-49079819D02*
X43529285Y-49032200D01*
X43529285Y-49032200D02*
X43576904Y-48984580D01*
X43576904Y-48984580D02*
X43624523Y-48889342D01*
X43624523Y-48889342D02*
X43624523Y-48079819D01*
X44053095Y-48175057D02*
X44100714Y-48127438D01*
X44100714Y-48127438D02*
X44195952Y-48079819D01*
X44195952Y-48079819D02*
X44434047Y-48079819D01*
X44434047Y-48079819D02*
X44529285Y-48127438D01*
X44529285Y-48127438D02*
X44576904Y-48175057D01*
X44576904Y-48175057D02*
X44624523Y-48270295D01*
X44624523Y-48270295D02*
X44624523Y-48365533D01*
X44624523Y-48365533D02*
X44576904Y-48508390D01*
X44576904Y-48508390D02*
X44005476Y-49079819D01*
X44005476Y-49079819D02*
X44624523Y-49079819D01*
X6811180Y-20689866D02*
X6858800Y-20737485D01*
X6858800Y-20737485D02*
X6906419Y-20880342D01*
X6906419Y-20880342D02*
X6906419Y-20975580D01*
X6906419Y-20975580D02*
X6858800Y-21118437D01*
X6858800Y-21118437D02*
X6763561Y-21213675D01*
X6763561Y-21213675D02*
X6668323Y-21261294D01*
X6668323Y-21261294D02*
X6477847Y-21308913D01*
X6477847Y-21308913D02*
X6334990Y-21308913D01*
X6334990Y-21308913D02*
X6144514Y-21261294D01*
X6144514Y-21261294D02*
X6049276Y-21213675D01*
X6049276Y-21213675D02*
X5954038Y-21118437D01*
X5954038Y-21118437D02*
X5906419Y-20975580D01*
X5906419Y-20975580D02*
X5906419Y-20880342D01*
X5906419Y-20880342D02*
X5954038Y-20737485D01*
X5954038Y-20737485D02*
X6001657Y-20689866D01*
X5906419Y-20356532D02*
X5906419Y-19737485D01*
X5906419Y-19737485D02*
X6287371Y-20070818D01*
X6287371Y-20070818D02*
X6287371Y-19927961D01*
X6287371Y-19927961D02*
X6334990Y-19832723D01*
X6334990Y-19832723D02*
X6382609Y-19785104D01*
X6382609Y-19785104D02*
X6477847Y-19737485D01*
X6477847Y-19737485D02*
X6715942Y-19737485D01*
X6715942Y-19737485D02*
X6811180Y-19785104D01*
X6811180Y-19785104D02*
X6858800Y-19832723D01*
X6858800Y-19832723D02*
X6906419Y-19927961D01*
X6906419Y-19927961D02*
X6906419Y-20213675D01*
X6906419Y-20213675D02*
X6858800Y-20308913D01*
X6858800Y-20308913D02*
X6811180Y-20356532D01*
X24074419Y-21612166D02*
X23598228Y-21945499D01*
X24074419Y-22183594D02*
X23074419Y-22183594D01*
X23074419Y-22183594D02*
X23074419Y-21802642D01*
X23074419Y-21802642D02*
X23122038Y-21707404D01*
X23122038Y-21707404D02*
X23169657Y-21659785D01*
X23169657Y-21659785D02*
X23264895Y-21612166D01*
X23264895Y-21612166D02*
X23407752Y-21612166D01*
X23407752Y-21612166D02*
X23502990Y-21659785D01*
X23502990Y-21659785D02*
X23550609Y-21707404D01*
X23550609Y-21707404D02*
X23598228Y-21802642D01*
X23598228Y-21802642D02*
X23598228Y-22183594D01*
X23169657Y-21231213D02*
X23122038Y-21183594D01*
X23122038Y-21183594D02*
X23074419Y-21088356D01*
X23074419Y-21088356D02*
X23074419Y-20850261D01*
X23074419Y-20850261D02*
X23122038Y-20755023D01*
X23122038Y-20755023D02*
X23169657Y-20707404D01*
X23169657Y-20707404D02*
X23264895Y-20659785D01*
X23264895Y-20659785D02*
X23360133Y-20659785D01*
X23360133Y-20659785D02*
X23502990Y-20707404D01*
X23502990Y-20707404D02*
X24074419Y-21278832D01*
X24074419Y-21278832D02*
X24074419Y-20659785D01*
X10009580Y-46326166D02*
X10057200Y-46373785D01*
X10057200Y-46373785D02*
X10104819Y-46516642D01*
X10104819Y-46516642D02*
X10104819Y-46611880D01*
X10104819Y-46611880D02*
X10057200Y-46754737D01*
X10057200Y-46754737D02*
X9961961Y-46849975D01*
X9961961Y-46849975D02*
X9866723Y-46897594D01*
X9866723Y-46897594D02*
X9676247Y-46945213D01*
X9676247Y-46945213D02*
X9533390Y-46945213D01*
X9533390Y-46945213D02*
X9342914Y-46897594D01*
X9342914Y-46897594D02*
X9247676Y-46849975D01*
X9247676Y-46849975D02*
X9152438Y-46754737D01*
X9152438Y-46754737D02*
X9104819Y-46611880D01*
X9104819Y-46611880D02*
X9104819Y-46516642D01*
X9104819Y-46516642D02*
X9152438Y-46373785D01*
X9152438Y-46373785D02*
X9200057Y-46326166D01*
X9438152Y-45469023D02*
X10104819Y-45469023D01*
X9057200Y-45707118D02*
X9771485Y-45945213D01*
X9771485Y-45945213D02*
X9771485Y-45326166D01*
X466819Y-12474533D02*
X1181104Y-12474533D01*
X1181104Y-12474533D02*
X1323961Y-12522152D01*
X1323961Y-12522152D02*
X1419200Y-12617390D01*
X1419200Y-12617390D02*
X1466819Y-12760247D01*
X1466819Y-12760247D02*
X1466819Y-12855485D01*
X466819Y-12093580D02*
X466819Y-11474533D01*
X466819Y-11474533D02*
X847771Y-11807866D01*
X847771Y-11807866D02*
X847771Y-11665009D01*
X847771Y-11665009D02*
X895390Y-11569771D01*
X895390Y-11569771D02*
X943009Y-11522152D01*
X943009Y-11522152D02*
X1038247Y-11474533D01*
X1038247Y-11474533D02*
X1276342Y-11474533D01*
X1276342Y-11474533D02*
X1371580Y-11522152D01*
X1371580Y-11522152D02*
X1419200Y-11569771D01*
X1419200Y-11569771D02*
X1466819Y-11665009D01*
X1466819Y-11665009D02*
X1466819Y-11950723D01*
X1466819Y-11950723D02*
X1419200Y-12045961D01*
X1419200Y-12045961D02*
X1371580Y-12093580D01*
X34141580Y-18759466D02*
X34189200Y-18807085D01*
X34189200Y-18807085D02*
X34236819Y-18949942D01*
X34236819Y-18949942D02*
X34236819Y-19045180D01*
X34236819Y-19045180D02*
X34189200Y-19188037D01*
X34189200Y-19188037D02*
X34093961Y-19283275D01*
X34093961Y-19283275D02*
X33998723Y-19330894D01*
X33998723Y-19330894D02*
X33808247Y-19378513D01*
X33808247Y-19378513D02*
X33665390Y-19378513D01*
X33665390Y-19378513D02*
X33474914Y-19330894D01*
X33474914Y-19330894D02*
X33379676Y-19283275D01*
X33379676Y-19283275D02*
X33284438Y-19188037D01*
X33284438Y-19188037D02*
X33236819Y-19045180D01*
X33236819Y-19045180D02*
X33236819Y-18949942D01*
X33236819Y-18949942D02*
X33284438Y-18807085D01*
X33284438Y-18807085D02*
X33332057Y-18759466D01*
X34236819Y-17807085D02*
X34236819Y-18378513D01*
X34236819Y-18092799D02*
X33236819Y-18092799D01*
X33236819Y-18092799D02*
X33379676Y-18188037D01*
X33379676Y-18188037D02*
X33474914Y-18283275D01*
X33474914Y-18283275D02*
X33522533Y-18378513D01*
X34554580Y-45256666D02*
X34602200Y-45304285D01*
X34602200Y-45304285D02*
X34649819Y-45447142D01*
X34649819Y-45447142D02*
X34649819Y-45542380D01*
X34649819Y-45542380D02*
X34602200Y-45685237D01*
X34602200Y-45685237D02*
X34506961Y-45780475D01*
X34506961Y-45780475D02*
X34411723Y-45828094D01*
X34411723Y-45828094D02*
X34221247Y-45875713D01*
X34221247Y-45875713D02*
X34078390Y-45875713D01*
X34078390Y-45875713D02*
X33887914Y-45828094D01*
X33887914Y-45828094D02*
X33792676Y-45780475D01*
X33792676Y-45780475D02*
X33697438Y-45685237D01*
X33697438Y-45685237D02*
X33649819Y-45542380D01*
X33649819Y-45542380D02*
X33649819Y-45447142D01*
X33649819Y-45447142D02*
X33697438Y-45304285D01*
X33697438Y-45304285D02*
X33745057Y-45256666D01*
X33745057Y-44875713D02*
X33697438Y-44828094D01*
X33697438Y-44828094D02*
X33649819Y-44732856D01*
X33649819Y-44732856D02*
X33649819Y-44494761D01*
X33649819Y-44494761D02*
X33697438Y-44399523D01*
X33697438Y-44399523D02*
X33745057Y-44351904D01*
X33745057Y-44351904D02*
X33840295Y-44304285D01*
X33840295Y-44304285D02*
X33935533Y-44304285D01*
X33935533Y-44304285D02*
X34078390Y-44351904D01*
X34078390Y-44351904D02*
X34649819Y-44923332D01*
X34649819Y-44923332D02*
X34649819Y-44304285D01*
X59784933Y-50073980D02*
X59737314Y-50121600D01*
X59737314Y-50121600D02*
X59594457Y-50169219D01*
X59594457Y-50169219D02*
X59499219Y-50169219D01*
X59499219Y-50169219D02*
X59356362Y-50121600D01*
X59356362Y-50121600D02*
X59261124Y-50026361D01*
X59261124Y-50026361D02*
X59213505Y-49931123D01*
X59213505Y-49931123D02*
X59165886Y-49740647D01*
X59165886Y-49740647D02*
X59165886Y-49597790D01*
X59165886Y-49597790D02*
X59213505Y-49407314D01*
X59213505Y-49407314D02*
X59261124Y-49312076D01*
X59261124Y-49312076D02*
X59356362Y-49216838D01*
X59356362Y-49216838D02*
X59499219Y-49169219D01*
X59499219Y-49169219D02*
X59594457Y-49169219D01*
X59594457Y-49169219D02*
X59737314Y-49216838D01*
X59737314Y-49216838D02*
X59784933Y-49264457D01*
X60689695Y-49169219D02*
X60213505Y-49169219D01*
X60213505Y-49169219D02*
X60165886Y-49645409D01*
X60165886Y-49645409D02*
X60213505Y-49597790D01*
X60213505Y-49597790D02*
X60308743Y-49550171D01*
X60308743Y-49550171D02*
X60546838Y-49550171D01*
X60546838Y-49550171D02*
X60642076Y-49597790D01*
X60642076Y-49597790D02*
X60689695Y-49645409D01*
X60689695Y-49645409D02*
X60737314Y-49740647D01*
X60737314Y-49740647D02*
X60737314Y-49978742D01*
X60737314Y-49978742D02*
X60689695Y-50073980D01*
X60689695Y-50073980D02*
X60642076Y-50121600D01*
X60642076Y-50121600D02*
X60546838Y-50169219D01*
X60546838Y-50169219D02*
X60308743Y-50169219D01*
X60308743Y-50169219D02*
X60213505Y-50121600D01*
X60213505Y-50121600D02*
X60165886Y-50073980D01*
X8103419Y-26271404D02*
X8912942Y-26271404D01*
X8912942Y-26271404D02*
X9008180Y-26223785D01*
X9008180Y-26223785D02*
X9055800Y-26176166D01*
X9055800Y-26176166D02*
X9103419Y-26080928D01*
X9103419Y-26080928D02*
X9103419Y-25890452D01*
X9103419Y-25890452D02*
X9055800Y-25795214D01*
X9055800Y-25795214D02*
X9008180Y-25747595D01*
X9008180Y-25747595D02*
X8912942Y-25699976D01*
X8912942Y-25699976D02*
X8103419Y-25699976D01*
X8103419Y-25319023D02*
X8103419Y-24699976D01*
X8103419Y-24699976D02*
X8484371Y-25033309D01*
X8484371Y-25033309D02*
X8484371Y-24890452D01*
X8484371Y-24890452D02*
X8531990Y-24795214D01*
X8531990Y-24795214D02*
X8579609Y-24747595D01*
X8579609Y-24747595D02*
X8674847Y-24699976D01*
X8674847Y-24699976D02*
X8912942Y-24699976D01*
X8912942Y-24699976D02*
X9008180Y-24747595D01*
X9008180Y-24747595D02*
X9055800Y-24795214D01*
X9055800Y-24795214D02*
X9103419Y-24890452D01*
X9103419Y-24890452D02*
X9103419Y-25176166D01*
X9103419Y-25176166D02*
X9055800Y-25271404D01*
X9055800Y-25271404D02*
X9008180Y-25319023D01*
X34219819Y-26161904D02*
X35029342Y-26161904D01*
X35029342Y-26161904D02*
X35124580Y-26114285D01*
X35124580Y-26114285D02*
X35172200Y-26066666D01*
X35172200Y-26066666D02*
X35219819Y-25971428D01*
X35219819Y-25971428D02*
X35219819Y-25780952D01*
X35219819Y-25780952D02*
X35172200Y-25685714D01*
X35172200Y-25685714D02*
X35124580Y-25638095D01*
X35124580Y-25638095D02*
X35029342Y-25590476D01*
X35029342Y-25590476D02*
X34219819Y-25590476D01*
X35219819Y-24590476D02*
X35219819Y-25161904D01*
X35219819Y-24876190D02*
X34219819Y-24876190D01*
X34219819Y-24876190D02*
X34362676Y-24971428D01*
X34362676Y-24971428D02*
X34457914Y-25066666D01*
X34457914Y-25066666D02*
X34505533Y-25161904D01*
X18288095Y-48189319D02*
X18288095Y-48998842D01*
X18288095Y-48998842D02*
X18335714Y-49094080D01*
X18335714Y-49094080D02*
X18383333Y-49141700D01*
X18383333Y-49141700D02*
X18478571Y-49189319D01*
X18478571Y-49189319D02*
X18669047Y-49189319D01*
X18669047Y-49189319D02*
X18764285Y-49141700D01*
X18764285Y-49141700D02*
X18811904Y-49094080D01*
X18811904Y-49094080D02*
X18859523Y-48998842D01*
X18859523Y-48998842D02*
X18859523Y-48189319D01*
X19764285Y-48522652D02*
X19764285Y-49189319D01*
X19526190Y-48141700D02*
X19288095Y-48855985D01*
X19288095Y-48855985D02*
X19907142Y-48855985D01*
X33464819Y-12413333D02*
X34179104Y-12413333D01*
X34179104Y-12413333D02*
X34321961Y-12460952D01*
X34321961Y-12460952D02*
X34417200Y-12556190D01*
X34417200Y-12556190D02*
X34464819Y-12699047D01*
X34464819Y-12699047D02*
X34464819Y-12794285D01*
X33560057Y-11984761D02*
X33512438Y-11937142D01*
X33512438Y-11937142D02*
X33464819Y-11841904D01*
X33464819Y-11841904D02*
X33464819Y-11603809D01*
X33464819Y-11603809D02*
X33512438Y-11508571D01*
X33512438Y-11508571D02*
X33560057Y-11460952D01*
X33560057Y-11460952D02*
X33655295Y-11413333D01*
X33655295Y-11413333D02*
X33750533Y-11413333D01*
X33750533Y-11413333D02*
X33893390Y-11460952D01*
X33893390Y-11460952D02*
X34464819Y-12032380D01*
X34464819Y-12032380D02*
X34464819Y-11413333D01*
X50190819Y-21502666D02*
X49714628Y-21835999D01*
X50190819Y-22074094D02*
X49190819Y-22074094D01*
X49190819Y-22074094D02*
X49190819Y-21693142D01*
X49190819Y-21693142D02*
X49238438Y-21597904D01*
X49238438Y-21597904D02*
X49286057Y-21550285D01*
X49286057Y-21550285D02*
X49381295Y-21502666D01*
X49381295Y-21502666D02*
X49524152Y-21502666D01*
X49524152Y-21502666D02*
X49619390Y-21550285D01*
X49619390Y-21550285D02*
X49667009Y-21597904D01*
X49667009Y-21597904D02*
X49714628Y-21693142D01*
X49714628Y-21693142D02*
X49714628Y-22074094D01*
X50190819Y-20550285D02*
X50190819Y-21121713D01*
X50190819Y-20835999D02*
X49190819Y-20835999D01*
X49190819Y-20835999D02*
X49333676Y-20931237D01*
X49333676Y-20931237D02*
X49428914Y-21026475D01*
X49428914Y-21026475D02*
X49476533Y-21121713D01*
X55594819Y-37833333D02*
X56309104Y-37833333D01*
X56309104Y-37833333D02*
X56451961Y-37880952D01*
X56451961Y-37880952D02*
X56547200Y-37976190D01*
X56547200Y-37976190D02*
X56594819Y-38119047D01*
X56594819Y-38119047D02*
X56594819Y-38214285D01*
X55594819Y-36880952D02*
X55594819Y-37357142D01*
X55594819Y-37357142D02*
X56071009Y-37404761D01*
X56071009Y-37404761D02*
X56023390Y-37357142D01*
X56023390Y-37357142D02*
X55975771Y-37261904D01*
X55975771Y-37261904D02*
X55975771Y-37023809D01*
X55975771Y-37023809D02*
X56023390Y-36928571D01*
X56023390Y-36928571D02*
X56071009Y-36880952D01*
X56071009Y-36880952D02*
X56166247Y-36833333D01*
X56166247Y-36833333D02*
X56404342Y-36833333D01*
X56404342Y-36833333D02*
X56499580Y-36880952D01*
X56499580Y-36880952D02*
X56547200Y-36928571D01*
X56547200Y-36928571D02*
X56594819Y-37023809D01*
X56594819Y-37023809D02*
X56594819Y-37261904D01*
X56594819Y-37261904D02*
X56547200Y-37357142D01*
X56547200Y-37357142D02*
X56499580Y-37404761D01*
X20184819Y-3833333D02*
X20899104Y-3833333D01*
X20899104Y-3833333D02*
X21041961Y-3880952D01*
X21041961Y-3880952D02*
X21137200Y-3976190D01*
X21137200Y-3976190D02*
X21184819Y-4119047D01*
X21184819Y-4119047D02*
X21184819Y-4214285D01*
X20518152Y-2928571D02*
X21184819Y-2928571D01*
X20137200Y-3166666D02*
X20851485Y-3404761D01*
X20851485Y-3404761D02*
X20851485Y-2785714D01*
%TO.C,U2*%
D11*
X39955000Y-34765000D02*
X47675000Y-34765000D01*
X39955000Y-35000000D02*
X39955000Y-34765000D01*
X39955000Y-47785000D02*
X39955000Y-47550000D01*
X47675000Y-34765000D02*
X47675000Y-35000000D01*
X47675000Y-47550000D02*
X47675000Y-47785000D01*
X47675000Y-47785000D02*
X39955000Y-47785000D01*
X48465000Y-47555000D02*
X48805000Y-48025000D01*
X48125000Y-48025000D01*
X48465000Y-47555000D01*
G36*
X48805000Y-48025000D02*
G01*
X48125000Y-48025000D01*
X48465000Y-47555000D01*
X48805000Y-48025000D01*
G37*
%TO.C,C3*%
X7428600Y-21123248D02*
X7428600Y-21645752D01*
X8898600Y-21123248D02*
X8898600Y-21645752D01*
%TO.C,R2*%
X24534600Y-21672564D02*
X24534600Y-21218436D01*
X26004600Y-21672564D02*
X26004600Y-21218436D01*
%TO.C,C4*%
X10595000Y-46420752D02*
X10595000Y-45898248D01*
X12065000Y-46420752D02*
X12065000Y-45898248D01*
%TO.C,J3*%
X1902000Y-7581200D02*
X30102000Y-7581200D01*
X1902000Y-16701200D02*
X1902000Y-7581200D01*
X3202000Y-8891200D02*
X28802000Y-8891200D01*
X3202000Y-15391200D02*
X3202000Y-8891200D01*
X6612000Y-18091200D02*
X7612000Y-18091200D01*
X7112000Y-17091200D02*
X6612000Y-18091200D01*
X7612000Y-18091200D02*
X7112000Y-17091200D01*
X13952000Y-15391200D02*
X3202000Y-15391200D01*
X13952000Y-16701200D02*
X13952000Y-15391200D01*
X18052000Y-15391200D02*
X18052000Y-16701200D01*
X28802000Y-8891200D02*
X28802000Y-15391200D01*
X28802000Y-15391200D02*
X18052000Y-15391200D01*
X30102000Y-7581200D02*
X30102000Y-16701200D01*
X30102000Y-16701200D02*
X1902000Y-16701200D01*
%TO.C,C1*%
X33379000Y-21074748D02*
X33379000Y-21597252D01*
X34849000Y-21074748D02*
X34849000Y-21597252D01*
%TO.C,C2*%
X35460000Y-46301252D02*
X35460000Y-45778748D01*
X36930000Y-46301252D02*
X36930000Y-45778748D01*
%TO.C,C5*%
X56541600Y-41954400D02*
X56541600Y-44304400D01*
X56541600Y-48774400D02*
X56541600Y-46424400D01*
X62297163Y-41954400D02*
X56541600Y-41954400D01*
X62297163Y-48774400D02*
X56541600Y-48774400D01*
X63361600Y-43018837D02*
X62297163Y-41954400D01*
X63361600Y-43018837D02*
X63361600Y-44304400D01*
X63361600Y-47709963D02*
X62297163Y-48774400D01*
X63361600Y-47709963D02*
X63361600Y-46424400D01*
X63995350Y-47605650D02*
X63995350Y-46818150D01*
X64389100Y-47211900D02*
X63601600Y-47211900D01*
%TO.C,U3*%
X9488600Y-21649500D02*
X9723600Y-21649500D01*
X9488600Y-29369500D02*
X9488600Y-21649500D01*
X9723600Y-29369500D02*
X9488600Y-29369500D01*
X22273600Y-21649500D02*
X22508600Y-21649500D01*
X22508600Y-21649500D02*
X22508600Y-29369500D01*
X22508600Y-29369500D02*
X22273600Y-29369500D01*
X9718600Y-30159500D02*
X9248600Y-30499500D01*
X9248600Y-29819500D01*
X9718600Y-30159500D01*
G36*
X9718600Y-30159500D02*
G01*
X9248600Y-30499500D01*
X9248600Y-29819500D01*
X9718600Y-30159500D01*
G37*
%TO.C,U1*%
X35605000Y-21540000D02*
X35840000Y-21540000D01*
X35605000Y-29260000D02*
X35605000Y-21540000D01*
X35840000Y-29260000D02*
X35605000Y-29260000D01*
X48390000Y-21540000D02*
X48625000Y-21540000D01*
X48625000Y-21540000D02*
X48625000Y-29260000D01*
X48625000Y-29260000D02*
X48390000Y-29260000D01*
X35835000Y-30050000D02*
X35365000Y-30390000D01*
X35365000Y-29710000D01*
X35835000Y-30050000D01*
G36*
X35835000Y-30050000D02*
G01*
X35365000Y-30390000D01*
X35365000Y-29710000D01*
X35835000Y-30050000D01*
G37*
%TO.C,U4*%
X15190000Y-34874500D02*
X22910000Y-34874500D01*
X15190000Y-35109500D02*
X15190000Y-34874500D01*
X15190000Y-47894500D02*
X15190000Y-47659500D01*
X22910000Y-34874500D02*
X22910000Y-35109500D01*
X22910000Y-47659500D02*
X22910000Y-47894500D01*
X22910000Y-47894500D02*
X15190000Y-47894500D01*
X23700000Y-47664500D02*
X24040000Y-48134500D01*
X23360000Y-48134500D01*
X23700000Y-47664500D01*
G36*
X24040000Y-48134500D02*
G01*
X23360000Y-48134500D01*
X23700000Y-47664500D01*
X24040000Y-48134500D01*
G37*
%TO.C,J2*%
X34900000Y-7520000D02*
X63100000Y-7520000D01*
X34900000Y-16640000D02*
X34900000Y-7520000D01*
X36200000Y-8830000D02*
X61800000Y-8830000D01*
X36200000Y-15330000D02*
X36200000Y-8830000D01*
X39610000Y-18030000D02*
X40610000Y-18030000D01*
X40110000Y-17030000D02*
X39610000Y-18030000D01*
X40610000Y-18030000D02*
X40110000Y-17030000D01*
X46950000Y-15330000D02*
X36200000Y-15330000D01*
X46950000Y-16640000D02*
X46950000Y-15330000D01*
X51050000Y-15330000D02*
X51050000Y-16640000D01*
X61800000Y-8830000D02*
X61800000Y-15330000D01*
X61800000Y-15330000D02*
X51050000Y-15330000D01*
X63100000Y-7520000D02*
X63100000Y-16640000D01*
X63100000Y-16640000D02*
X34900000Y-16640000D01*
%TO.C,R1*%
X50651000Y-21563064D02*
X50651000Y-21108936D01*
X52121000Y-21563064D02*
X52121000Y-21108936D01*
%TO.C,J5*%
X56940000Y-40350000D02*
X56940000Y-41600000D01*
X56940000Y-41600000D02*
X58190000Y-41600000D01*
X59490000Y-33700000D02*
X59490000Y-34450000D01*
X59490000Y-34450000D02*
X62440000Y-34450000D01*
X59490000Y-40550000D02*
X62440000Y-40550000D01*
X59490000Y-41300000D02*
X59490000Y-40550000D01*
X62440000Y-34450000D02*
X62440000Y-37500000D01*
X62440000Y-40550000D02*
X62440000Y-37500000D01*
X57230000Y-33690000D02*
X63200000Y-33690000D01*
X63200000Y-41310000D01*
X57230000Y-41310000D01*
X57230000Y-33690000D01*
X57240000Y-33700000D02*
X57990000Y-33700000D01*
X57990000Y-35500000D01*
X57240000Y-35500000D01*
X57240000Y-33700000D01*
X57240000Y-37000000D02*
X57990000Y-37000000D01*
X57990000Y-38000000D01*
X57240000Y-38000000D01*
X57240000Y-37000000D01*
X57240000Y-39500000D02*
X57990000Y-39500000D01*
X57990000Y-41300000D01*
X57240000Y-41300000D01*
X57240000Y-39500000D01*
%TO.C,J4*%
X21730000Y-4880000D02*
X21730000Y-3500000D01*
X23110000Y-4880000D02*
X21730000Y-4880000D01*
X24380000Y-2120000D02*
X42270000Y-2120000D01*
X24380000Y-4880000D02*
X24380000Y-2120000D01*
X24380000Y-4880000D02*
X42270000Y-4880000D01*
X42270000Y-4880000D02*
X42270000Y-2120000D01*
%TD*%
M02*
