M48
; DRILL file KiCad 10.0.3 date 2026-06-14T04:58:05
; FORMAT={-:-/ absolute / metric / decimal}
; #@! TF.CreationDate,2026-06-14T04:58:05-05:00
; #@! TF.GenerationSoftware,Kicad,Pcbnew,10.0.3
; #@! TF.FileFunction,Plated,1,2,PTH
FMAT,2
METRIC
; #@! TA.AperFunction,Plated,PTH,ViaDrill
T1C0.300
; #@! TA.AperFunction,Plated,PTH,ViaDrill
T2C0.800
; #@! TA.AperFunction,Plated,PTH,ComponentDrill
T3C1.000
%
G90
G05
T1
X7.925Y-23.384
X9.195Y-25.654
X12.744Y-15.628
X14.1Y-33.199
X14.173Y-48.971
X15.296Y-31.811
X15.394Y-34.086
X16.533Y-42.789
X17.22Y-31.811
X17.95Y-35.754
X18.343Y-34.953
X18.392Y-34.03
X18.841Y-32.963
X19.081Y-31.769
X21.385Y-46.591
X22.86Y-34.29
X25.745Y-44.869
X29.354Y-46.537
X29.584Y-39.26
X29.705Y-36.693
X30.376Y-34.95
X30.378Y-28.092
X31.58Y-34.747
X31.598Y-28.042
X37.037Y-41.91
X37.037Y-43.18
X40.726Y-35.667
X40.79Y-43.18
X41.005Y-34.777
X41.618Y-43.18
X41.89Y-31.756
X42.038Y-48.304
X42.38Y-36.261
X43.253Y-33.575
X43.965Y-33.111
X45.753Y-35.226
X46.938Y-45.716
X48.155Y-16.834
X49.215Y-32.369
X50.121Y-44.267
X54.61Y-41.275
T2
X6.632Y-22.294
X10.16Y-32.385
X10.284Y-26.035
X11.227Y-43.536
X11.554Y-22.723
X16.245Y-45.299
X20.066Y-7.061
X21.785Y-39.445
X22.986Y-30.131
X32.516Y-22.084
X34.835Y-45.832
X36.4Y-22.359
X36.4Y-28.28
X38.074Y-22.265
X46.564Y-36.896
X48.971Y-31.012
X59.131Y-47.092
T3
X7.112Y-10.871
X7.112Y-13.411
X8.382Y-51.257
X8.382Y-53.797
X9.652Y-10.871
X9.652Y-13.411
X10.922Y-51.257
X10.922Y-53.797
X12.192Y-10.871
X12.192Y-13.411
X13.462Y-51.257
X13.462Y-53.797
X14.732Y-10.871
X14.732Y-13.411
X16.002Y-51.257
X16.002Y-53.797
X17.272Y-10.871
X17.272Y-13.411
X18.542Y-51.257
X18.542Y-53.797
X19.812Y-10.871
X19.812Y-13.411
X21.082Y-51.257
X21.082Y-53.797
X22.352Y-10.871
X22.352Y-13.411
X23.11Y-3.5
X23.622Y-51.257
X23.622Y-53.797
X24.892Y-10.871
X24.892Y-13.411
X25.65Y-3.5
X26.162Y-51.257
X26.162Y-53.797
X28.19Y-3.5
X28.702Y-51.257
X28.702Y-53.797
X30.73Y-3.5
X31.242Y-51.257
X31.242Y-53.797
X33.27Y-3.5
X33.782Y-51.257
X33.782Y-53.797
X35.81Y-3.5
X36.322Y-51.257
X36.322Y-53.797
X38.35Y-3.5
X38.862Y-51.257
X38.862Y-53.797
X40.11Y-10.81
X40.11Y-13.35
X40.89Y-3.5
X41.402Y-51.257
X41.402Y-53.797
X42.65Y-10.81
X42.65Y-13.35
X43.942Y-51.257
X43.942Y-53.797
X45.19Y-10.81
X45.19Y-13.35
X46.482Y-51.257
X46.482Y-53.797
X47.73Y-10.81
X47.73Y-13.35
X49.022Y-51.257
X49.022Y-53.797
X50.27Y-10.81
X50.27Y-13.35
X51.562Y-51.257
X51.562Y-53.797
X52.81Y-10.81
X52.81Y-13.35
X54.102Y-51.257
X54.102Y-53.797
X55.35Y-10.81
X55.35Y-13.35
X56.642Y-51.257
X56.642Y-53.797
X57.89Y-10.81
X57.89Y-13.35
X59.69Y-36.25
X59.69Y-38.75
M30
